<svg width="1280" height="720" xmlns="http://www.w3.org/2000/svg" xmlns:xlink="http://www.w3.org/1999/xlink" overflow="hidden"><defs><filter id="fx0" x="-10%" y="-10%" width="120%" height="120%" filterUnits="userSpaceOnUse" primitiveUnits="userSpaceOnUse"><feComponentTransfer color-interpolation-filters="sRGB"><feFuncR type="discrete" tableValues="0 0"/><feFuncG type="discrete" tableValues="0 0"/><feFuncB type="discrete" tableValues="0 0"/><feFuncA type="linear" slope="0.431373" intercept="0"/></feComponentTransfer><feGaussianBlur stdDeviation="0.841586 0.841586"/></filter><clipPath id="clip1"><rect x="27" y="22" width="474" height="48"/></clipPath></defs><g><rect x="0" y="0" width="1280" height="720" fill="#FFFFFF"/><path d="M690.533 411.5 690.533 495.601 528 495.601 528 492.601 689.033 492.601 687.533 494.101 687.533 411.5ZM681.533 411.5C681.533 407.358 684.891 404 689.033 404 693.175 404 696.533 407.358 696.533 411.5 696.533 415.642 693.175 419 689.033 419 684.891 419 681.533 415.642 681.533 411.5ZM529.5 498.601 520.5 494.101 529.5 489.601Z" fill="#4BACC6"/><text font-family="BIZ UDPGothic,BIZ UDPGothic_MSFontService,sans-serif" font-weight="400" font-size="16" transform="translate(607.013 433)">報告</text><path d="M324.5 351.5 510.5 351.5 520.5 361.5 520.5 411.5 520.5 411.5 334.5 411.5 324.5 401.5 324.5 351.5Z" stroke="#7030A0" stroke-width="3" stroke-linejoin="round" stroke-miterlimit="10" fill="#FFFFFF" fill-rule="evenodd"/><text font-family="BIZ UDPGothic,BIZ UDPGothic_MSFontService,sans-serif" font-weight="700" font-size="19" transform="translate(347.29 379)">観光振興戦略会議</text><text font-family="BIZ UDPGothic,BIZ UDPGothic_MSFontService,sans-serif" font-weight="700" font-size="19" transform="translate(356.624 401)">（意思決定機関）</text><path d="M224.5 381.167 317.498 381.167 317.498 381.833 224.5 381.833ZM316.165 377.5 324.165 381.5 316.165 385.5Z"/><path d="M5.06469e-07-0.333333 62.4306-0.333238 62.4306 0.333428-5.06469e-07 0.333333ZM61.0972-3.99991 69.0972 0.000104987 61.0972 4.00009Z" transform="matrix(-1 0 0 1 589.597 368.5)"/><path d="M0.333324-0.00247307 0.676409 46.239 0.00976029 46.2439-0.333324 0.00247307ZM4.33308 44.8785 0.392546 52.9079-3.6667 44.9378Z" transform="matrix(1 0 0 -1 422.5 464.408)"/><text font-family="BIZ UDPGothic,BIZ UDPGothic_MSFontService,sans-serif" font-weight="400" font-size="16" transform="translate(531.626 360)">構成員</text><text font-family="BIZ UDPGothic,BIZ UDPGothic_MSFontService,sans-serif" font-weight="400" font-size="16" transform="translate(252.505 373)">構成員</text><text font-family="BIZ UDPGothic,BIZ UDPGothic_MSFontService,sans-serif" font-weight="400" font-size="16" transform="translate(426.775 445)">構成員</text><text font-family="BIZ UDPGothic,BIZ UDPGothic_MSFontService,sans-serif" font-weight="400" font-size="16" transform="translate(523.548 410)">決定事項</text><path d="M521.501 388.167 582.777 388.379 582.775 389.046 521.499 388.833ZM581.457 384.708 589.443 388.735 581.429 392.708Z"/><path d="M1.5-2.51854e-06 1.50009 55.0285-1.49991 55.0285-1.5 2.51854e-06ZM-7.5 1.25927e-05C-7.50001-4.14212-4.14215-7.49999-1.25927e-05-7.5 4.14212-7.50001 7.49999-4.14215 7.5-1.25927e-05 7.50001 4.14212 4.14215 7.49999 1.25927e-05 7.5-4.14212 7.50001-7.49999 4.14215-7.5 1.25927e-05ZM4.50009 53.5285 0.000104987 62.5285-4.49991 53.5285Z" fill="#4BACC6" transform="matrix(1 0 0 -1 422.5 586.029)"/><path d="M324.5 586.5 510.667 586.5 520.5 596.333 520.5 645.5 520.5 645.5 334.333 645.5 324.5 635.667 324.5 586.5Z" stroke="#3A86FF" stroke-width="3" stroke-linejoin="round" stroke-miterlimit="10" fill="#FFFFFF" fill-rule="evenodd"/><text font-family="BIZ UDPGothic,BIZ UDPGothic_MSFontService,sans-serif" font-weight="700" font-size="19" transform="translate(393.565 624)">宿泊客</text><path d="M1.5801e-06-1.5 92.165-1.4999 92.165 1.5001-1.5801e-06 1.5ZM-7.90048e-06 7.5C-4.14214 7.5-7.5 4.14213-7.5-7.90048e-06-7.5-4.14214-4.14213-7.5 7.90048e-06-7.5 4.14214-7.5 7.5-4.14213 7.5 7.90048e-06 7.5 4.14214 4.14213 7.5-7.90048e-06 7.5ZM90.665-4.4999 99.665 0.000104987 90.665 4.5001Z" fill="#4BACC6" transform="matrix(-1 0 0 1 324.165 493.5)"/><path d="M324.5 464.5 510.667 464.5 520.5 474.333 520.5 523.5 520.5 523.5 334.333 523.5 324.5 513.667 324.5 464.5Z" stroke="#3A86FF" stroke-width="3" stroke-linejoin="round" stroke-miterlimit="10" fill="#FFFFFF" fill-rule="evenodd"/><text font-family="BIZ UDPGothic,BIZ UDPGothic_MSFontService,sans-serif" font-weight="700" font-size="19" transform="translate(374.898 502)">宿泊事業者</text><text font-family="BIZ UDPGothic,BIZ UDPGothic_MSFontService,sans-serif" font-weight="400" font-size="16" transform="translate(439.635 560)">宿泊税（定率）</text><text font-family="BIZ UDPGothic,BIZ UDPGothic_MSFontService,sans-serif" font-weight="400" font-size="16" transform="translate(250.555 488)">宿泊税</text><path d="M853.5 358.5 1175.83 358.5 1198.5 381.167 1198.5 494.5 1198.5 494.5 876.167 494.5 853.5 471.833 853.5 358.5Z" stroke="#000000" stroke-width="1.33333" stroke-linejoin="round" stroke-miterlimit="10" fill="#FFFFFF" fill-rule="evenodd"/><text font-family="BIZ UDPGothic,BIZ UDPGothic_MSFontService,sans-serif" font-weight="700" font-size="19" transform="translate(878.917 424)">自然環境、文化財、伝統文化の保全・</text><text font-family="BIZ UDPGothic,BIZ UDPGothic_MSFontService,sans-serif" font-weight="700" font-size="19" transform="translate(886.583 446)">保護・継承・活用に向けた取り組み</text><path d="M853.5 509.5 1175.83 509.5 1198.5 532.167 1198.5 645.5 1198.5 645.5 876.167 645.5 853.5 622.833 853.5 509.5Z" stroke="#000000" stroke-width="1.33333" stroke-linejoin="round" stroke-miterlimit="10" fill="#FFFFFF" fill-rule="evenodd"/><text font-family="BIZ UDPGothic,BIZ UDPGothic_MSFontService,sans-serif" font-weight="700" font-size="19" transform="translate(914.583 586)">人材育成にかかる取り組み</text><path d="M840.5 165.5 1193.71 165.5 1211.5 183.286 1211.5 668.5 1211.5 668.5 858.286 668.5 840.5 650.714 840.5 165.5Z" stroke="#70AD47" stroke-width="3" stroke-linejoin="round" stroke-miterlimit="10" fill="none" fill-rule="evenodd"/><text font-family="BIZ UDPGothic,BIZ UDPGothic_MSFontService,sans-serif" font-weight="700" font-size="19" transform="translate(988.083 194)">使途の柱</text><path d="M786.5 380 832.817 380 832.817 383 786.5 383ZM786.5 389C782.358 389 779 385.642 779 381.5 779 377.358 782.358 374 786.5 374 790.642 374 794 377.358 794 381.5 794 385.642 790.642 389 786.5 389ZM831.317 377 840.317 381.5 831.317 386Z" fill="#4BACC6"/><text font-family="BIZ UDPGothic,BIZ UDPGothic_MSFontService,sans-serif" font-weight="400" font-size="16" transform="translate(797.091 373)">支出</text><path d="M853.5 207.5 1175.67 207.5 1198.5 230.334 1198.5 344.5 1198.5 344.5 876.334 344.5 853.5 321.666 853.5 207.5Z" stroke="#000000" stroke-width="1.33333" stroke-linejoin="round" stroke-miterlimit="10" fill="#FFFFFF" fill-rule="evenodd"/><text font-family="BIZ UDPGothic,BIZ UDPGothic_MSFontService,sans-serif" font-weight="700" font-size="19" transform="translate(874.253 262)">景観まちづくりや伝統的・歴史的町並</text><text font-family="BIZ UDPGothic,BIZ UDPGothic_MSFontService,sans-serif" font-weight="700" font-size="19" transform="translate(874 284)">みの保存・整備、エリアマネジメントに</text><text font-family="BIZ UDPGothic,BIZ UDPGothic_MSFontService,sans-serif" font-weight="700" font-size="19" transform="translate(961.167 307)">向けた取り組み</text><g clip-path="url(#clip1)" filter="url(#fx0)" transform="translate(15 10)"><g><path d="M26.77-17.2378 38.3599-17.2378 38.3599 4.09424 35.0425 4.09424 35.0425 1.84766 19.0645 1.84766 19.0645 4.09424 15.7891 4.09424 15.7891-17.2378 23.5576-17.2378C24.0615-18.8615 24.4395-20.2962 24.6914-21.542L13.2905-21.542 13.2905-24.4185 41.1523-24.4185 41.1523-21.542 28.1558-21.542C27.6938-19.8063 27.2319-18.3716 26.77-17.2378ZM35.0425-14.5713 19.0645-14.5713 19.0645-9.32227 35.0425-9.32227ZM19.0645-6.57178 19.0645-0.986816 35.0425-0.986816 35.0425-6.57178ZM23.0537-32.502 40.2075-32.502 40.2075-25.6992 36.8481-25.6992 36.8481-29.7935 6.06787-29.7935 6.06787-24.2505 2.7085-24.2505 2.7085-32.502 19.6523-32.502 19.6523-36.7642 23.0537-36.7642ZM9.93115-19.4214 9.93115 4.09424 6.65576 4.09424 6.65576-14.6973C5.368-13.0456 3.97526-11.5409 2.47754-10.1831L0.86084-12.9756C4.92008-16.6569 8.13249-21.549 10.498-27.6519L13.5005-26.4551C12.3667-23.7956 11.1769-21.451 9.93115-19.4214ZM65.9093-29.7515C66.6652-31.8791 67.3301-34.1886 67.904-36.6802L71.5573-36.0713C70.7874-33.5658 70.0386-31.4591 69.3107-29.7515L81.9714-29.7515 81.9714 3.94727 78.612 3.94727 78.612 0.944824 60.8493 0.944824 60.8493 3.94727 57.4899 3.94727 57.4899-29.7515ZM60.8493-26.833 60.8493-16.335 78.612-16.335 78.612-26.833ZM60.8493-13.4585 60.8493-2.05762 78.612-2.05762 78.612-13.4585ZM52.1779-27.2529C49.7843-30.0524 47.5588-32.264 45.5011-33.8877L47.7477-36.1973C50.2673-34.3356 52.5278-32.215 54.5295-29.8354ZM50.4982-16.335C48.3146-18.8685 46.033-21.0941 43.6535-23.0117L45.9421-25.4053C48.3496-23.6696 50.6802-21.521 52.9338-18.9595ZM44.4723 1.11279C47.2298-2.52653 49.7773-7.15267 52.1149-12.7656L54.8234-10.582C52.4718-4.8571 49.9663-0.0979817 47.3068 3.69531ZM93.5848-15.6841C92.0451-11.4429 90.1274-7.74056 87.8319-4.57715L86.0262-7.74756C89.3296-12.0588 91.7231-16.7059 93.2069-21.689L86.5301-21.689 86.5301-24.6494 93.5848-24.6494 93.5848-31.6201C91.6112-31.1722 89.8335-30.8293 88.2518-30.5913L86.929-33.1738C92.1081-33.9577 96.5942-35.0985 100.388-36.5962L102.361-34.2026C100.723-33.5728 98.9318-32.9919 96.9862-32.46L96.7762-32.397 96.7762-24.6494 102.445-24.6494 102.445-21.689 96.7762-21.689 96.7762-18.3926C99.0158-16.7829 101.066-14.9842 102.928-12.9966L100.912-10.2461C99.5547-12.0798 98.1759-13.6755 96.7762-15.0332L96.7762 4.07324 93.5848 4.07324ZM108.912-13.3325 104.293-13.3325 104.293-27.6099 115.883-27.6099C117.408-30.7173 118.675-33.7967 119.683-36.8481L122.916-35.6514C121.489-32.278 120.173-29.5975 118.969-27.6099L124.638-27.6099 124.638-13.3325 118.696-13.3325 118.696-1.28076C118.696-0.622884 118.871-0.230957 119.221-0.10498 119.515 0.00699869 120.334 0.0629883 121.678 0.0629883 122.699 0.0629883 123.336-0.0489909 123.588-0.272949 124.036-0.664876 124.302-2.63851 124.386-6.19385L127.389-5.03906C127.291-2.6735 127.151-0.909831 126.969 0.251953 126.717 1.79167 125.835 2.72249 124.323 3.04443 123.581 3.2124 122.398 3.29639 120.775 3.29639 118.633 3.29639 117.219 3.03743 116.534 2.51953 115.918 2.07161 115.61 1.25977 115.61 0.0839844L115.61-13.3325 112.04-13.3325 112.04-12.2197C112.04-7.08268 110.844-3.16341 108.45-0.461914 107.078 1.0918 104.944 2.56152 102.046 3.94727L99.8626 1.38574C101.808 0.573893 103.341-0.265951 104.461-1.13379 106.616-2.82747 107.974-5.12305 108.534-8.02051 108.786-9.25228 108.912-10.666 108.912-12.2617ZM121.405-16.167 121.405-24.7334 107.484-24.7334 107.484-16.167ZM108.807-28.1138C107.771-31.0672 106.7-33.4328 105.595-35.2104L108.303-36.5542C109.661-34.4126 110.837-32.061 111.83-29.4995ZM152.125-31.1792 140.724-31.1792 140.724-33.6357 147.631-33.6357C147.085-34.4476 146.477-35.2384 145.805-36.0083L148.807-36.9531C149.451-36.0993 150.13-34.9935 150.844-33.6357L158.192-33.6357C158.234-33.7057 158.332-33.8877 158.486-34.1816 158.99-35.0775 159.431-36.0153 159.809-36.9951L163.126-36.2183C162.623-35.3084 162.084-34.4476 161.51-33.6357L168.963-33.6357 168.963-31.1792 155.652-31.1792C155.33-30.4793 155.015-29.8634 154.707-29.3315L165.394-29.3315 165.394-15.0122 144.083-15.0122 144.083-29.3315 151.348-29.3315 151.453-29.5625C151.719-30.1364 151.943-30.6753 152.125-31.1792ZM147.211-27.2319 147.211-25.2373 162.224-25.2373 162.224-27.2319ZM147.211-23.2637 147.211-21.248 162.224-21.248 162.224-23.2637ZM147.211-19.2324 147.211-17.0698 162.224-17.0698 162.224-19.2324ZM139.737-16.8389C142.382-14.3893 146.162-13.1645 151.075-13.1646L170.139-13.1646C169.593-12.3667 169.187-11.4639 168.921-10.4561L161.363-10.4561 161.363-8.20947 169.929-8.20947 169.929-5.45898 161.363-5.45898 161.363 0.86084C161.363 2.06462 161.055 2.91846 160.439 3.42236 159.893 3.87028 158.955 4.09424 157.625 4.09424 155.708 4.09424 153.685 3.98926 151.558 3.7793L150.823 0.776855C153.258 1.0568 155.225 1.19678 156.723 1.19678 157.283 1.19678 157.639 1.0918 157.793 0.881836 157.905 0.713867 157.961 0.433919 157.961 0.0419922L157.961-5.45898 129.155-5.45898 129.155-8.20947 157.961-8.20947 157.961-10.4561 151.138-10.4561C145.637-10.4561 141.34-11.9538 138.246-14.9492 136.314-12.9756 134.145-11.1489 131.737-9.46924L129.974-12.1777C132.199-13.4235 134.376-14.9212 136.503-16.6709L136.503-22.4868 130.142-22.4868 130.142-25.3213 139.737-25.3213ZM137.49-29.2896C135.419-31.3472 133.382-33.0479 131.38-34.3916L133.459-36.5542C135.657-35.2244 137.735-33.6007 139.695-31.6831ZM144.902 2.01562C142.564 0.0559896 140.08-1.72168 137.448-3.31738L139.653-5.375C142.438-3.82129 144.93-2.1276 147.127-0.293945ZM194.287-34.5806 194.287-31.8721C194.287-23.5856 195.904-16.8879 199.137-11.7788 202.105-7.10368 206.591-3.10742 212.596 0.209961L210.223 3.2334C204.232-0.0559894 199.48-4.66113 195.967-10.582 194.413-13.2135 193.251-16.3979 192.482-20.1353 191.6-15.7121 190.2-11.8838 188.282-8.65039 185.315-3.65332 180.78 0.419922 174.677 3.56934L172.304 0.650879C179.737-2.83447 184.853-7.95052 187.653-14.6973 189.5-19.1904 190.627-24.7544 191.033-31.3892L180.094-31.3892 180.094-34.5806ZM235.169-16.8389C234.497-16.8109 233.679-16.7619 232.713-16.6919 232.265-16.6639 230.592-16.5939 227.695-16.4819L226.834-19.3164C228.332-19.3444 230.606-19.4074 233.658-19.5054L233.889-19.7363C234.266-20.0863 235.022-20.8071 236.156-21.8989 233.847-24.6564 231.11-27.3089 227.947-29.8564L230.151-31.9141C231.313-30.9902 232.321-30.1224 233.175-29.3105 235.162-31.6341 236.919-34.1676 238.445-36.9111L241.447-35.4414C239.236-32.236 237.108-29.5835 235.064-27.4839 236.1-26.4061 237.157-25.2443 238.235-23.9985L238.823-24.6284C241.622-27.5819 244.093-30.4583 246.234-33.2578L248.985-31.5361C245.723-27.5469 241.979-23.5856 237.752-19.6523 239.18-19.7363 240.25-19.7923 240.964-19.8203 242-19.8763 244.625-20.0513 248.838-20.3452 247.69-22.0249 246.605-23.4736 245.583-24.6914L248.124-26.1191C250.489-23.4456 252.666-20.3732 254.654-16.9019L251.945-15.3691C251.231-16.6009 250.685-17.5037 250.307-18.0776 247.088-17.6857 243.239-17.3498 238.76-17.0698 238.102-15.95 237.402-14.8932 236.66-13.8994L248.901-13.8994 250.916-12.0938C248.537-8.83236 245.905-6.10286 243.022-3.90527 246.339-1.83366 250.461-0.230957 255.389 0.902832L253.499 3.94727C248.642 2.61751 244.254 0.615885 240.334-2.05762 235.855 0.811849 231.299 2.84147 226.666 4.03125L224.902 1.15479C229.479 0.10498 233.784-1.6027 237.815-3.96826 237.745-4.03825 237.661-4.11523 237.563-4.19922 235.869-5.61296 234.182-7.31364 232.503-9.30127 231.187-8.09749 229.654-6.9917 227.905-5.98389L225.763-8.18848C229.5-10.1901 232.636-13.0736 235.169-16.8389ZM240.481-5.71094C242.875-7.43262 244.834-9.27327 246.36-11.2329L234.539-11.2329C236.317-9.20329 238.298-7.36263 240.481-5.71094ZM223.579-19.5474 223.579 4.09424 220.262 4.09424 220.262-15.3481C218.946-13.8364 217.47-12.3457 215.832-10.876L214.11-13.7944C218.071-17.0978 221.529-21.528 224.482-27.085L227.317-25.5522C226.141-23.3966 224.895-21.395 223.579-19.5474ZM214.53-26.749C218.085-29.4785 221.011-32.7469 223.306-36.5542L226.141-35.0425C223.467-30.7173 220.213-27.106 216.378-24.2085ZM279.957-1.88965C283.302-2.74349 286.024-4.06624 288.124-5.85791 290.938-8.25146 292.344-11.7578 292.344-16.377 292.344-19.4144 291.616-22.0879 290.161-24.3975 288.173-27.5889 284.898-29.5205 280.334-30.1924 279.369-20.9681 277.416-13.5075 274.477-7.81055 273.231-5.389 272.013-3.64632 270.823-2.58252 269.549-1.44873 268.22-0.881836 266.834-0.881836 264.972-0.881836 263.293-1.79167 261.795-3.61133 260.983-4.57715 260.318-5.79492 259.8-7.26465 259.072-9.28027 258.708-11.4569 258.708-13.7944 258.708-17.8117 259.835-21.465 262.089-24.7544 264.314-28.0298 267.177-30.3603 270.676-31.7461 273.056-32.6839 275.617-33.1528 278.361-33.1528 282.616-33.1528 286.276-32.089 289.342-29.9614 292.001-28.0998 293.884-25.6222 294.99-22.5288 295.662-20.6532 295.998-18.6375 295.998-16.4819 295.998-7.32764 291.252-1.47673 281.762 1.0708ZM277.164-30.2764C273.903-30.0804 271.124-29.1076 268.829-27.3579 265.343-24.7124 263.223-21.29 262.467-17.0908 262.271-16.013 262.173-14.9492 262.173-13.8994 262.173-10.596 262.894-8.01351 264.335-6.15186 265.175-5.07406 266.043-4.53516 266.939-4.53516 267.961-4.53516 268.983-5.29801 270.004-6.82373 271.67-9.32926 273.168-12.7096 274.498-16.9648 275.617-20.5482 276.506-24.9854 277.164-30.2764ZM308.955-4.40918C310.159-3.2334 311.565-2.27458 313.175-1.53271 314.239-1.04281 315.645-0.636881 317.395-0.314941 319.383 0.0489909 321.398 0.230957 323.442 0.230957L341.016 0.230957C340.624 0.958822 340.253 1.93164 339.903 3.14941L323.442 3.14941C318.935 3.14941 315.324 2.55452 312.608 1.36475 310.802 0.580892 309.137-0.580892 307.611-2.12061L307.359-1.82666C305.357 0.608887 303.363 2.59652 301.375 4.13623L299.611 1.0918C301.669-0.279948 303.692-1.88265 305.679-3.71631L305.679-15.3901 299.737-15.3901 299.737-18.3506 308.955-18.3506ZM338.433-25.8042 338.433-4.8501C338.433-3.89827 338.181-3.18441 337.677-2.7085 337.173-2.21859 336.264-1.97363 334.948-1.97363 333.464-1.97363 332.232-2.02962 331.253-2.1416L330.665-4.89209C331.938-4.75212 333.149-4.68213 334.297-4.68213 334.829-4.68213 335.144-4.80811 335.242-5.06006 335.312-5.22803 335.347-5.50098 335.347-5.87891L335.347-23.2217 326.906-23.2217 326.906-20.2612 334.045-20.2612 334.045-17.7627 326.906-17.7627 326.906-14.8022 332.344-14.8022 332.344-6.40381 321.531-6.40381 321.531-4.17822 318.781-4.17822 318.781-14.8022 323.946-14.8022 323.946-17.7627 317.185-17.7627 317.185-20.2612 323.946-20.2612 323.946-23.2217 315.862-23.2217 315.862-2.09961 312.776-2.09961 312.776-25.8042 318.991-25.8042C318.319-27.5539 317.661-29.0166 317.017-30.1924L310.739-30.1924 310.739-32.9009 323.778-32.9009 323.778-36.7642 326.948-36.7642 326.948-32.9009 339.882-32.9009 339.882-30.1924 334.003-30.1924C333.429-28.8346 332.722-27.3719 331.882-25.8042ZM320.209-30.1924C320.895-28.7786 321.524-27.3159 322.098-25.8042L328.691-25.8042C329.321-27.022 329.993-28.4847 330.707-30.1924ZM321.531-12.4297 321.531-8.81836 329.489-8.81836 329.489-12.4297ZM307.17-26.3921C305.252-29.3175 303.23-31.7881 301.102-33.8037L303.475-35.7354C305.798-33.6357 307.863-31.2842 309.669-28.6807ZM365.626-1.91064 383.116-1.91064 383.116 1.23877 342.488 1.23877 342.488-1.91064 349.543-1.91064 349.543-22.2349 353.028-22.2349 353.028-1.91064 362.182-1.91064 362.182-31.0532 344.504-31.0532 344.504-34.1396 381.793-34.1396 381.793-31.0532 365.626-31.0532 365.626-19.0854 378.391-19.0854 378.391-16.083 365.626-16.083ZM398.172-30.9062C398.914-29.7585 399.551-28.5827 400.083-27.3789L397.039-26.3081C396.493-27.7218 395.751-29.2546 394.813-30.9062L392.188-30.9062C391.139-29.2686 389.83-27.7638 388.262-26.3921L385.68-28.2817C388.353-30.4933 390.348-33.3768 391.664-36.9321L395.002-36.3652C394.596-35.3154 394.183-34.3846 393.763-33.5728L404.471-33.5728 404.471-30.9062ZM415.914-30.9062C416.614-29.8984 417.328-28.7646 418.056-27.5049L415.053-26.4341C414.311-27.9318 413.443-29.4225 412.45-30.9062L409.825-30.9062C408.859-29.2546 407.95-27.9528 407.096-27.001L407.096-24.5864 424.375-24.5864 424.375-17.4058 421.016-17.4058 421.016-22.0039 389.942-22.0039 389.942-17.4058 386.624-17.4058 386.624-24.5864 403.694-24.5864 403.694-27.1689 406.76-27.1689 404.513-28.8486C406.529-31.0462 408.047-33.7547 409.069-36.9741L412.387-36.4492C411.953-35.3014 411.554-34.3426 411.19-33.5728L424.9-33.5728 424.9-30.9062ZM418.266-18.8755 418.266-10.0991 395.569-10.0991 395.569-6.92871 420.386-6.92871 420.386 4.09424 416.943 4.09424 416.943 2.28857 395.569 2.28857 395.569 4.09424 392.125 4.09424 392.125-18.8755ZM395.569-16.4189 395.569-12.5977 414.927-12.5977 414.927-16.4189ZM395.569-4.43018 395.569-0.293945 416.943-0.293945 416.943-4.43018ZM436.955-31.2632 436.955-21.248 441.637-21.248 441.637-18.1616 436.955-18.1616 436.955-7.64258C438.928-8.39844 440.503-9.03532 441.679-9.55322L441.994-6.50879C438.144-4.68913 433.609-2.92546 428.388-1.21777L427.359-4.57715C429.459-5.13704 431.58-5.78092 433.721-6.50879L433.721-18.1616 428.514-18.1616 428.514-21.248 433.721-21.248 433.721-31.2632 428.01-31.2632 428.01-34.3496 442.246-34.3496 442.246-31.2632ZM466.37-34.8325 466.37-13.9414 456.46-13.9414 456.46-8.94434 467.105-8.94434 467.105-6.06787 456.46-6.06787 456.46-0.461914 468.638-0.461914 468.638 2.49854 440.377 2.49854 440.377-0.461914 453.311-0.461914 453.311-6.06787 443.296-6.06787 443.296-8.94434 453.311-8.94434 453.311-13.9414 443.82-13.9414 443.82-34.8325ZM446.865-31.998 446.865-25.8462 453.311-25.8462 453.311-31.998ZM446.865-23.0117 446.865-16.7339 453.311-16.7339 453.311-23.0117ZM463.284-16.7339 463.284-23.0117 456.46-23.0117 456.46-16.7339ZM463.284-25.8462 463.284-31.998 456.46-31.998 456.46-25.8462Z" fill="#595959" transform="translate(29.2597 62)"/></g></g><text fill="#595959" font-family="BIZ UDPGothic,BIZ UDPGothic_MSFontService,sans-serif" font-weight="400" font-size="43" transform="translate(42.4744 70)">宿泊税導入後の適正管理</text><path d="M324.5 165.5 510.667 165.5 520.5 175.333 520.5 224.5 520.5 224.5 334.333 224.5 324.5 214.667 324.5 165.5Z" stroke="#FF9770" stroke-width="3" stroke-linejoin="round" stroke-miterlimit="10" fill="#FFFFFF" fill-rule="evenodd"/><text font-family="BIZ UDPGothic,BIZ UDPGothic_MSFontService,sans-serif" font-weight="700" font-size="19" transform="translate(379.565 204)">県・自治体</text><path d="M7.49999-1.49999 99.665-1.49989 99.665 1.5001 7.49999 1.50001ZM9 4.50001 0 0 9-4.49999ZM99.665-7.49989C103.807-7.49989 107.165-4.14202 107.165 0.000112887 107.165 4.14225 103.807 7.50011 99.665 7.5001 95.5228 7.5001 92.165 4.14223 92.165 9.70864e-05 92.165-4.14204 95.5229-7.4999 99.665-7.49989Z" fill="#4BACC6" transform="matrix(-1 0 0 1 324.165 195.5)"/><text font-family="BIZ UDPGothic,BIZ UDPGothic_MSFontService,sans-serif" font-weight="400" font-size="16" transform="translate(252.171 168)">宿泊税</text><text font-family="BIZ UDPGothic,BIZ UDPGothic_MSFontService,sans-serif" font-weight="400" font-size="16" transform="translate(252.171 187)">（一部）</text><path d="M520.5 270 690.533 270 690.533 344.484 687.533 344.484 687.533 271.5 689.033 273 520.5 273ZM520.5 279C516.358 279 513 275.642 513 271.5 513 267.358 516.358 264 520.5 264 524.642 264 528 267.358 528 271.5 528 275.642 524.642 279 520.5 279ZM693.533 342.984 689.033 351.984 684.533 342.984Z" fill="#4BACC6"/><path d="M324.5 241.5 510.5 241.5 520.5 251.5 520.5 301.5 520.5 301.5 334.5 301.5 324.5 291.5 324.5 241.5Z" stroke="#FF9770" stroke-width="3" stroke-linejoin="round" stroke-miterlimit="10" fill="#FFFFFF" fill-rule="evenodd"/><text font-family="BIZ UDPGothic,BIZ UDPGothic_MSFontService,sans-serif" font-weight="700" font-size="19" transform="translate(337.565 268)">沖縄県観光振興基金</text><text font-family="BIZ UDPGothic,BIZ UDPGothic_MSFontService,sans-serif" font-weight="700" font-size="19" transform="translate(393.565 290)">（既設）</text><path d="M7.49999-1.49999 99.2724-1.49989 99.2724 1.5001 7.49999 1.50001ZM9 4.50001 0 0 9-4.49999ZM99.2724-7.49989C103.415-7.49989 106.772-4.14202 106.772 0.000112919 106.772 4.14225 103.415 7.50011 99.2724 7.5001 95.1303 7.5001 91.7724 4.14223 91.7724 9.70551e-05 91.7724-4.14204 95.1303-7.4999 99.2724-7.49989Z" fill="#4BACC6" transform="matrix(-1 0 0 1 323.772 271.5)"/><path d="M590.5 351.5 776.5 351.5 786.5 361.5 786.5 411.5 786.5 411.5 600.5 411.5 590.5 401.5 590.5 351.5Z" stroke="#FF9770" stroke-width="3" stroke-linejoin="round" stroke-miterlimit="10" fill="#FFFFFF" fill-rule="evenodd"/><text font-family="BIZ UDPGothic,BIZ UDPGothic_MSFontService,sans-serif" font-weight="700" font-size="19" transform="translate(632.14 379)">基金運用主体</text><text font-family="BIZ UDPGothic,BIZ UDPGothic_MSFontService,sans-serif" font-weight="700" font-size="19" transform="translate(634.72 401)">（例：</text><text font-family="BIZ UDPGothic,BIZ UDPGothic_MSFontService,sans-serif" font-weight="700" font-size="19" transform="translate(672.053 401)">OCVB</text><text font-family="BIZ UDPGothic,BIZ UDPGothic_MSFontService,sans-serif" font-weight="700" font-size="19" transform="translate(732.22 401)">）</text><text font-family="BIZ UDPGothic,BIZ UDPGothic_MSFontService,sans-serif" font-weight="400" font-size="16" transform="translate(251.131 246)">宿泊税</text><text font-family="BIZ UDPGothic,BIZ UDPGothic_MSFontService,sans-serif" font-weight="400" font-size="16" transform="translate(251.131 265)">（一部）</text><text font-family="BIZ UDPGothic,BIZ UDPGothic_MSFontService,sans-serif" font-weight="400" font-size="16" transform="translate(605.251 262)">委託</text><path d="M74.5001 165.5 211.852 165.5 224.5 178.148 224.5 523.5 224.5 523.5 87.1479 523.5 74.5001 510.852 74.5001 165.5Z" stroke="#FF006E" stroke-width="3" stroke-linejoin="round" stroke-miterlimit="10" fill="#FFFFFF" fill-rule="evenodd"/><text font-family="BIZ UDPGothic,BIZ UDPGothic_MSFontService,sans-serif" font-weight="700" font-size="19" transform="translate(102.52 342)">地方自治体</text><text font-family="BIZ UDPGothic,BIZ UDPGothic_MSFontService,sans-serif" font-weight="700" font-size="19" transform="translate(97.8533 364)">（県・市町村）</text></g></svg>