<?xml version="1.0" encoding="UTF-8"?>
<svg xmlns="http://www.w3.org/2000/svg" xmlns:xlink="http://www.w3.org/1999/xlink" viewBox="0 0 1920 1082">
  <defs>
    <style>
      .cls-1 {
        letter-spacing: .5em;
      }

      .cls-2 {
        fill: #707070;
      }

      .cls-2, .cls-3, .cls-4, .cls-5, .cls-6 {
        stroke-width: 0px;
      }

      .cls-7 {
        stroke: #5f5f5f;
        stroke-width: .75px;
      }

      .cls-7, .cls-8, .cls-9, .cls-10, .cls-11, .cls-12, .cls-13 {
        stroke-miterlimit: 10;
      }

      .cls-7, .cls-14, .cls-15, .cls-16, .cls-17, .cls-18 {
        fill: none;
      }

      .cls-8, .cls-9, .cls-11, .cls-12, .cls-13 {
        stroke: #fff;
        stroke-width: 2px;
      }

      .cls-8, .cls-6 {
        fill: #ff9;
      }

      .cls-9, .cls-4 {
        fill: #a6a6ff;
      }

      .cls-10 {
        fill: #81b29a;
        stroke: #81b29a;
      }

      .cls-3 {
        fill: #5b5b5e;
      }

      .cls-19 {
        font-family: BIZ-UDPGothic, 'BIZ UDPGothic';
        font-size: 48px;
      }

      .cls-5 {
        fill: #fff;
      }

      .cls-14 {
        stroke-dasharray: 0 0 2.02 2.02;
      }

      .cls-14, .cls-15, .cls-16, .cls-17, .cls-18 {
        stroke: gray;
        stroke-linejoin: round;
        stroke-width: .5px;
      }

      .cls-11 {
        fill: #ff4d4d;
      }

      .cls-15 {
        stroke-dasharray: 0 0 2 2;
      }

      .cls-12 {
        fill: #4d4dff;
      }

      .cls-17 {
        stroke-dasharray: 0 0 2 2;
      }

      .cls-13 {
        fill: #ffa6a6;
      }

      .cls-18 {
        stroke-dasharray: 0 0 2 2;
      }
    </style>
  </defs>
  <g id="okinawa">
    <g id="g50">
      <a xlink:href="http://ja.wikipedia.org/wiki/那覇市">
        <g id="a52">
          <g id="use54">
            <path id="_47201" data-name="47201" class="cls-10" d="M1240.86,592.25l-1.09-4.35,2.18-6.53-18.49,1.09-8.7-4.35h-1.09l-1.09-1.09h-2.18l-1.09-1.09h-3.26l2.18,3.26-2.18,5.44,5.44-5.44,2.18,9.79-10.88,3.26,6.53,6.53-11.97-6.53-7.62,10.88,4.35,11.97,13.05-2.18,6.53-4.35v-5.44l6.53,2.18,6.53,2.18,14.14-15.23Z"/>
          </g>
        </g>
      </a>
      <a xlink:href="http://ja.wikipedia.org/wiki/宜野湾市">
        <g id="a56">
          <g id="use58">
            <path id="_47205" data-name="47205" class="cls-10" d="M1261.53,560.7l5.44-7.62-4.35-5.44-10.88,1.09-9.79,5.44,1.09,2.18-5.44-1.09-2.18,5.44,2.18,3.26,1.09,7.62,5.44-2.18,5.44,3.26,8.7-1.09,3.26-10.88Z"/>
          </g>
        </g>
      </a>
      <a xlink:href="http://ja.wikipedia.org/wiki/浦添市">
        <g id="a60">
          <g id="use62">
            <path id="_47208" data-name="47208" class="cls-10" d="M1249.56,572.67l-5.44-3.26-5.44,2.18-1.09-7.62-2.18-3.26h-9.79l-7.62,10.88-4.35-1.09v3.26l1.09,4.35,8.7,4.35,18.49-1.09,7.62-8.7ZM1209.31,575.93l2.18-2.18-5.44,2.18h3.26Z"/>
          </g>
        </g>
      </a>
      <a xlink:href="http://ja.wikipedia.org/wiki/名護市">
        <g id="a64">
          <g id="use66">
            <path id="_47209" data-name="47209" class="cls-10" d="M1385.55,328.98l-10.88,2.18-3.26,8.7,5.44,4.35,3.26,1.09,2.18-4.35,9.79,6.53v-6.53l-6.53-11.97ZM1436.68,400.78h8.7v-7.62l6.53-1.09-6.53-8.7-5.44-5.44-5.44,1.09-10.88-9.79,1.09-4.35-6.53-7.62-2.18-8.7-14.14,5.44h-9.79l-4.35,4.35-9.79-2.18-2.18-5.44-6.53-3.26-5.44,5.44-2.18-2.18-2.18,3.26-3.26-2.18h-2.18l-6.53,5.44-13.05-2.18-10.88,10.88,1.09,4.35-1.09,1.09,7.62,2.18,5.44-4.35,20.67,10.88h7.62l2.18,7.62-4.35,9.79-6.53,10.88-5.44-3.26-5.44,6.53-4.35-4.35-2.18,6.53,6.53,11.97,7.62-1.09,4.35-6.53h4.35v-4.35l6.53,6.53,5.44,5.44,4.35,2.18,2.18-5.44,7.62,2.18,4.35-3.26,9.79-2.18-7.62-14.14-2.18-4.35,4.35-1.09,1.09,4.35,10.88-3.26,4.35,3.26,10.88,7.62-1.09-4.35,4.35,1.09,1.09-3.26,8.7-4.35Z"/>
          </g>
        </g>
      </a>
      <a xlink:href="http://ja.wikipedia.org/wiki/糸満市">
        <g id="a68">
          <g id="use70">
            <path id="_47210" data-name="47210" class="cls-10" d="M1238.68,660.79l-6.53-4.35-5.44-13.05,3.26-9.79h-6.53l-3.26-3.26,5.44-7.62-1.09-3.26-17.41,9.79-10.88,4.35,2.18,10.88v-5.44l8.7,1.09-3.26,2.18,2.18,5.44h-3.26l-2.18,20.67,7.62,3.26,4.35,2.18,7.62-6.53,14.14-2.18,4.35-4.35Z"/>
          </g>
        </g>
      </a>
      <a xlink:href="http://ja.wikipedia.org/wiki/沖縄市">
        <g id="a72">
          <g id="use74">
            <path id="_47211" data-name="47211" class="cls-10" d="M1271.32,533.51l5.44-3.26,2.18,11.97,9.79,1.09v-5.44l6.53-1.09,2.18-2.18-6.53-4.35,4.35-4.35-10.88-14.14,7.62-11.97-5.44-7.62-3.26,3.26-4.35-6.53-3.26,4.35-8.7-16.32v-1.09l-1.09,3.26v16.32l-3.26,11.97,3.26,10.88-4.35,2.18-2.18,2.18,4.35,10.88-1.09,2.18h3.26l3.26,1.09,2.18-3.26ZM1301.78,530.24l-6.53-4.35-3.26,2.18,9.79,2.18Z"/>
          </g>
        </g>
      </a>
      <a xlink:href="http://ja.wikipedia.org/wiki/豊見城市">
        <g id="a76">
          <g id="use78">
            <path id="_47212" data-name="47212" class="cls-10" d="M1228.89,614.01h1.09l-3.26-6.53-6.53-2.18-6.53-2.18v5.44l-6.53,4.35-13.05,2.18-2.18,1.09h6.53l-2.18,2.18,10.88,10.88,17.41-9.79,4.35-5.44Z"/>
          </g>
        </g>
      </a>
      <a xlink:href="http://ja.wikipedia.org/wiki/うるま市">
        <g id="a80">
          <g id="use82">
            <path id="_47213" data-name="47213" class="cls-10" d="M1310.48,495.43l-9.79-6.53-4.35-3.26,3.26-1.09-6.53-2.18-6.53-7.62,2.18-4.35,5.44,2.18,1.09-2.18-1.09-2.18-3.26-7.62h-1.09l-7.62,2.18-15.23,13.05v1.09l8.7,16.32,3.26-4.35,4.35,6.53,3.26-3.26,5.44,7.62-7.62,11.97,10.88,14.14,7.62-5.44h3.26l20.67,25.02,2.18-1.09-1.09,3.26,1.09-3.26,6.53,4.35,1.09-4.35-2.18-8.7-7.62-7.62,5.44-1.09h-7.62l-6.53-4.35-7.62-10.88,1.09-7.62v-2.18h3.26l-4.35-6.53ZM1376.84,489.99v-1.09l-4.35-1.09-3.26,7.62,5.44,3.26,2.18-8.7ZM1361.61,513.92l9.79-2.18,2.18-5.44-5.44-3.26,1.09-6.53-7.62,5.44-2.18,7.62,2.18,4.35ZM1359.44,513.92l-1.09-5.44-5.44,4.35h-5.44l-1.09-3.26,2.18,11.97-6.53,5.44h-9.79l22.85-3.26,7.62-6.53-3.26-3.26ZM1301.78,530.24l1.09-4.35,6.53,2.18-4.35-7.62-9.79,5.44,6.53,4.35ZM1350.73,532.42l1.09,5.44,3.26,2.18,4.35-8.7-6.53-2.18-2.18,3.26ZM1333.33,533.51l6.53,4.35-3.26-5.44-3.26,1.09ZM1345.29,578.11l3.26-3.26-1.09-8.7-4.35,1.09-1.09,7.62,3.26,3.26Z"/>
          </g>
        </g>
      </a>
      <a xlink:href="http://ja.wikipedia.org/wiki/南城市">
        <g id="a84">
          <g id="use86">
            <path id="_47215" data-name="47215" class="cls-10" d="M1266.97,641.21l21.76-19.58,1.09-5.44-5.44-2.18v-6.53l-9.79,2.18-7.62,9.79-4.35-1.09v-8.7l-1.09-1.09-5.44,2.18-2.18-5.44-7.62-2.18-3.26,1.09-5.44,16.32,1.09,8.7,4.35,1.09,11.97,14.14,6.53-5.44,4.35,2.18h1.09ZM1330.06,618.36l-14.14,8.7,1.09,1.09,13.05-9.79Z"/>
          </g>
        </g>
      </a>
      <a xlink:href="http://ja.wikipedia.org/wiki/国頭村">
        <g id="a88">
          <g id="use90">
            <path id="_47301" data-name="47301" class="cls-10" d="M1530.23,299.61l6.53-3.26v-4.35l4.35-3.26-3.26-5.44,2.18-15.23-4.35-4.35,1.09-11.97-6.53-8.7-1.09-6.53-2.18-3.26-5.44,2.18-4.35-4.35-9.79-8.7,1.09-4.35-4.35-1.09-5.44,8.7,4.35,5.44-1.09,7.62-9.79,18.49v3.26l-13.05,16.32-10.88,11.97-17.41,4.35,4.35,4.35-2.18,9.79,23.93,15.23,10.88-9.79,9.79,2.18,1.09,7.62,10.88,13.05,5.44-3.26,3.26-13.05,7.62-8.7-2.18-4.35,5.44-1.09,1.09-5.44Z"/>
          </g>
        </g>
      </a>
      <a xlink:href="http://ja.wikipedia.org/wiki/大宜味村">
        <g id="a92">
          <g id="use94">
            <path id="_47302" data-name="47302" class="cls-10" d="M1476.93,322.46l-23.93-15.23-5.44,5.44-14.14,3.26-7.62,13.05,2.18,4.35,7.62,1.09,3.26,5.44h-7.62v-4.35l-15.23,13.05,2.18,8.7,6.53,7.62,18.49-18.49,11.97,3.26,21.76-27.2Z"/>
          </g>
        </g>
      </a>
      <a xlink:href="http://ja.wikipedia.org/wiki/東村">
        <g id="a96">
          <g id="use98">
            <path id="_47303" data-name="47303" class="cls-10" d="M1423.62,369.23l10.88,9.79,5.44-1.09v-1.09l-2.18-4.35,14.14,2.18,1.09-6.53-4.35-6.53,2.18-4.35,19.58,2.18,17.41-2.18,7.62-1.09,4.35-5.44,5.44-9.79,4.35-1.09v-4.35l-10.88-13.05-1.09-7.62-9.79-2.18-10.88,9.79-21.76,27.2-11.97-3.26-18.49,18.49-1.09,4.35Z"/>
          </g>
        </g>
      </a>
      <a xlink:href="http://ja.wikipedia.org/wiki/今帰仁村">
        <g id="a100">
          <g id="use102">
            <path id="_47306" data-name="47306" class="cls-10" d="M1388.81,312.66l-5.44-3.26-4.35,3.26,5.44,7.62,4.35-7.62ZM1354,339.86v11.97h2.18l3.26,2.18,2.18-3.26,2.18,2.18,5.44-5.44-3.26-3.26,4.35,1.09,1.09-11.97,7.62-7.62-15.23-7.62-4.35,3.26-2.18-2.18,2.18-3.26-8.7-3.26-17.41,3.26-1.09,10.88,9.79,7.62h10.88l1.09,5.44Z"/>
          </g>
        </g>
      </a>
      <a xlink:href="http://ja.wikipedia.org/wiki/本部町">
        <g id="a104">
          <g id="use106">
            <path id="_47308" data-name="47308" class="cls-10" d="M1354,351.83v-11.97l-1.09-5.44h-10.88l-9.79-7.62,1.09-10.88h-13.05l-6.53-4.35-3.26,13.05,3.26,4.35,7.62,10.88-8.7,3.26v7.62l10.88,20.67,1.09-1.09-1.09-4.35,10.88-10.88,13.05,2.18,6.53-5.44ZM1303.95,358.36l6.53-11.97-4.35-2.18-5.44,3.26,3.26,10.88ZM1277.84,347.48l6.53,1.09-2.18-3.26-4.35,2.18Z"/>
          </g>
        </g>
      </a>
      <a xlink:href="http://ja.wikipedia.org/wiki/恩納村">
        <g id="a108">
          <g id="use110">
            <path id="_47311" data-name="47311" class="cls-10" d="M1257.18,463.88l-13.05,11.97,4.35,4.35,6.53-4.35,10.88,3.26,1.09-3.26,15.23-13.05,7.62-2.18h1.09l3.26-7.62,16.32-9.79,9.79,1.09v-4.35l5.44-4.35,5.44,5.44,3.26-9.79h4.35l6.53-5.44-6.53-11.97-3.26,1.09-2.18,7.62-5.44-2.18-8.7,4.35-1.09,4.35h-4.35l-3.26-4.35-3.26,1.09-2.18,3.26-2.18-3.26-2.18,4.35-4.35-1.09-3.26,4.35,3.26,7.62-16.32,10.88-5.44,8.7-3.26,7.62h-6.53l-6.53-6.53-1.09,2.18Z"/>
          </g>
        </g>
      </a>
      <a xlink:href="http://ja.wikipedia.org/wiki/宜野座村">
        <g id="a112">
          <g id="use114">
            <path id="_47313" data-name="47313" class="cls-10" d="M1370.32,444.3l6.53-5.44-4.35-6.53-2.18-3.26,3.26-3.26-5.44-5.44-6.53-6.53v4.35h-4.35l-4.35,6.53-7.62,1.09-6.53,5.44-1.09,2.18,10.88,18.49,1.09-1.09,2.18-4.35,6.53,3.26,11.97-5.44Z"/>
          </g>
        </g>
      </a>
      <a xlink:href="http://ja.wikipedia.org/wiki/金武町">
        <g id="a116">
          <g id="use118">
            <path id="_47314" data-name="47314" class="cls-10" d="M1322.45,459.53l9.79,2.18,4.35,4.35,11.97,1.09-2.18-5.44,2.18-4.35v-5.44l-10.88-18.49,1.09-2.18h-4.35l-3.26,9.79-5.44-5.44-5.44,4.35v4.35l-9.79-1.09-16.32,9.79-3.26,7.62,3.26,7.62,1.09-1.09,4.35-7.62,8.7-4.35h8.7l5.44,4.35Z"/>
          </g>
        </g>
      </a>
      <a xlink:href="http://ja.wikipedia.org/wiki/伊江村">
        <g id="a120">
          <g id="use122">
            <path id="_47315" data-name="47315" class="cls-10" d="M1272.41,312.66l3.26,2.18,11.97-3.26,1.09-6.53-9.79-8.7-19.58,1.09h-9.79l-2.18,7.62,4.35,7.62h20.67Z"/>
          </g>
        </g>
      </a>
      <a xlink:href="http://ja.wikipedia.org/wiki/読谷村">
        <g id="a124">
          <g id="use126">
            <path id="_47324" data-name="47324" class="cls-10" d="M1234.33,493.25l8.7,16.32,15.23-4.35-1.09-3.26,8.7-18.49v-4.35l-10.88-3.26-6.53,4.35-4.35-4.35-4.35-1.09-4.35-8.7h-7.62l3.26,2.18-2.18,15.23,5.44,9.79Z"/>
          </g>
        </g>
      </a>
      <a xlink:href="http://ja.wikipedia.org/wiki/嘉手納町">
        <g id="a128">
          <g id="use130">
            <path id="_47325" data-name="47325" class="cls-10" d="M1261.53,520.45l4.35-2.18-3.26-10.88,3.26-11.97v-11.97l-8.7,18.49,1.09,3.26-15.23,4.35-1.09,2.18,3.26,9.79,7.62,1.09,8.7-2.18Z"/>
          </g>
        </g>
      </a>
      <a xlink:href="http://ja.wikipedia.org/wiki/北谷町">
        <g id="a132">
          <g id="use134">
            <path id="_47326" data-name="47326" class="cls-10" d="M1265.88,536.77v-1.09h-3.26l1.09-2.18-4.35-10.88,2.18-2.18-8.7,2.18-7.62-1.09-1.09,6.53,3.26,5.44h3.26l1.09,15.23,10.88-1.09-1.09-6.53,4.35-4.35Z"/>
          </g>
        </g>
      </a>
      <a xlink:href="http://ja.wikipedia.org/wiki/北中城村">
        <g id="a136">
          <g id="use138">
            <path id="_47327" data-name="47327" class="cls-10" d="M1288.72,543.3l-9.79-1.09-2.18-11.97-5.44,3.26-2.18,3.26-3.26-1.09v1.09l-4.35,4.35,1.09,6.53,4.35,5.44,7.62,1.09,6.53-3.26-2.18-4.35,3.26-4.35,6.53,1.09Z"/>
          </g>
        </g>
      </a>
      <a xlink:href="http://ja.wikipedia.org/wiki/中城村">
        <g id="a140">
          <g id="use142">
            <path id="_47328" data-name="47328" class="cls-10" d="M1256.09,578.11l10.88,6.53,5.44-19.58,7.62-4.35,1.09-9.79-6.53,3.26-7.62-1.09-5.44,7.62-3.26,10.88-2.18,6.53Z"/>
          </g>
        </g>
      </a>
      <a xlink:href="http://ja.wikipedia.org/wiki/西原町">
        <g id="a144">
          <g id="use146">
            <path id="_47329" data-name="47329" class="cls-10" d="M1244.12,594.43l9.79,2.18,11.97-8.7,4.35,3.26-3.26-6.53-10.88-6.53,2.18-6.53-8.7,1.09-7.62,8.7-2.18,6.53,1.09,4.35,3.26,2.18Z"/>
          </g>
        </g>
      </a>
      <a xlink:href="http://ja.wikipedia.org/wiki/与那原町">
        <g id="a148">
          <g id="use150">
            <path id="_47348" data-name="47348" class="cls-10" d="M1253.91,596.6l-9.79-2.18,2.18,5.44v3.26l7.62,2.18,2.18,5.44,5.44-2.18-4.35-6.53-6.53-1.09,3.26-4.35Z"/>
          </g>
        </g>
      </a>
      <a xlink:href="http://ja.wikipedia.org/wiki/南風原町">
        <g id="a152">
          <g id="use154">
            <path id="_47350" data-name="47350" class="cls-10" d="M1229.98,614.01l7.62,6.53,5.44-16.32,3.26-1.09v-3.26l-2.18-5.44-3.26-2.18-14.14,15.23,3.26,6.53Z"/>
          </g>
        </g>
      </a>
      <a xlink:href="http://ja.wikipedia.org/wiki/渡嘉敷村">
        <g id="a156">
          <g id="use158">
            <path id="_47353" data-name="47353" class="cls-10" d="M1051.57,584.64l2.18,4.35,1.09-3.26-2.18-4.35-1.09,3.26ZM1050.48,611.83l4.35-3.26,1.09-5.44h-3.26l3.26-2.18-1.09-4.35-1.09-5.44-6.53-3.26-2.18,2.18-4.35,11.97,2.18,8.7-5.44,1.09,1.09,7.62,4.35,2.18-2.18,6.53,2.18,5.44,1.09-5.44,4.35-1.09v-14.14l2.18-1.09ZM1091.82,602.04l6.53-10.88-3.26-3.26-6.53,14.14h3.26Z"/>
          </g>
        </g>
      </a>
      <a xlink:href="http://ja.wikipedia.org/wiki/座間味村">
        <g id="a160">
          <g id="use162">
            <path id="_47354" data-name="47354" class="cls-10" d="M1033.07,583.55l1.09-4.35-8.7-2.18-2.18-4.35-1.09,6.53-3.26,2.18-3.26-3.26-1.09,4.35-6.53,2.18,7.62,4.35,3.26-2.18,3.26,5.44,3.26-6.53-2.18-4.35,3.26-2.18,2.18,6.53,5.44,1.09-1.09-3.26ZM986.29,593.34l2.18,4.35,4.35-7.62h-5.44l-1.09,3.26ZM1022.19,596.6l2.18,7.62,2.18-4.35-4.35-7.62v4.35ZM1013.49,606.39l-5.44-11.97-7.62,8.7,1.09,1.09,4.35,1.09v4.35l7.62-3.26ZM1009.14,612.92l2.18,3.26,4.35-1.09-3.26-5.44-3.26,3.26ZM988.47,623.8l1.09-7.62-3.26-3.26-3.26,9.79,5.44,1.09ZM1014.58,623.8l1.09-6.53-4.35,4.35,3.26,2.18Z"/>
          </g>
        </g>
      </a>
      <a xlink:href="http://ja.wikipedia.org/wiki/粟国村">
        <g id="a164">
          <g id="use166">
            <path id="_47355" data-name="47355" class="cls-10" d="M988.47,387.73l2.18-8.7-4.35-5.44-7.62,3.26-7.62,10.88h17.41Z"/>
          </g>
        </g>
      </a>
      <a xlink:href="http://ja.wikipedia.org/wiki/渡名喜村">
        <g id="a168">
          <g id="use170">
            <path id="_47356" data-name="47356" class="cls-10" d="M939.51,515.01v3.26l4.35-4.35,3.26-4.35h-5.44l-2.18-10.88-3.26,3.26-1.09,6.53,4.35,6.53Z"/>
          </g>
        </g>
      </a>
      <a xlink:href="http://ja.wikipedia.org/wiki/伊平屋村">
        <g id="a172">
          <g id="use174">
            <path id="_47359" data-name="47359" class="cls-10" d="M1339.85,148.39l2.18,1.09,4.35-14.14,8.7-1.09,2.18-8.7,11.97-4.35,5.44-17.41,10.88-9.79-10.88,2.18-15.23,11.97-9.79,13.05-9.79,13.05,2.18,10.88-2.18,3.26ZM1330.06,149.48l4.35,3.26,5.44-5.44-5.44-2.18-4.35,4.35Z"/>
          </g>
        </g>
      </a>
      <a xlink:href="http://ja.wikipedia.org/wiki/伊是名村">
        <g id="a176">
          <g id="use178">
            <path id="_47360" data-name="47360" class="cls-10" d="M1348.56,187.56l3.26-9.79-8.7-6.53-10.88,6.53-3.26,4.35,5.44,1.09-1.09,8.7,9.79,5.44,6.53-1.09-1.09-8.7ZM1333.33,202.79l1.09,4.35h6.53l-4.35-2.18,2.18-2.18h-5.44Z"/>
          </g>
        </g>
      </a>
      <a xlink:href="http://ja.wikipedia.org/wiki/久米島町">
        <g id="a180">
          <g id="use182">
            <path id="_47361" data-name="47361" class="cls-10" d="M745.87,526.98l8.7,15.23,11.97,6.53,1.09,1.09-2.18-13.05,1.09-8.7,9.79-9.79-6.53-4.35-2.18-7.62-8.7-5.44-5.44-7.62-5.44-1.09-9.79,4.35-13.05,5.44-6.53,1.09-2.18,5.44,4.35-5.44-5.44,8.7,4.35,4.35,3.26,2.18-5.44-4.35,1.09-4.35,7.62,8.7,16.32,2.18-2.18,2.18,5.44,4.35ZM799.18,519.36h8.7l5.44-3.26-14.14,3.26ZM781.77,522.63l3.26,1.09-1.09-3.26-2.18,2.18ZM773.07,523.71h7.62l-3.26-3.26-4.35,3.26Z"/>
          </g>
        </g>
      </a>
      <a xlink:href="http://ja.wikipedia.org/wiki/八重瀬町">
        <g id="a184">
          <g id="use186">
            <path id="_47362" data-name="47362" class="cls-10" d="M1255,644.47l-11.97-14.14-4.35-1.09-1.09-8.7-7.62-6.53h-1.09l-4.35,5.44,1.09,3.26-5.44,7.62,3.26,3.26h6.53l-3.26,9.79,5.44,13.05,6.53,4.35,5.44-7.62,10.88-8.7Z"/>
          </g>
        </g>
      </a>
    </g>
    <g id="g219">
      <a xlink:href="http://ja.wikipedia.org/wiki/宮古島市">
        <g id="a221">
          <g id="use223">
            <path id="_47214" data-name="47214" class="cls-10" d="M900.36,715.38l-1.09-3.26,5.44,1.09-4.35-6.53-2.18-2.18-6.53,2.18,1.09,4.35,7.62,4.35ZM929.73,717.56l3.26,1.09-2.18-3.26-1.09,2.18ZM1002.62,826.35l2.18-1.09,2.18-2.18,7.62,6.53-11.97-14.14-6.53-9.79-9.79-1.09-10.88-5.44-5.44-7.62-6.53-3.26-7.62,2.18-9.79-5.44-3.26-7.62,2.18-6.53-10.88-7.62-4.35-11.97-3.26-11.97-7.62-2.18-6.53-14.14-3.26-5.44,3.26,6.53-4.35,1.09-4.35-4.35,4.35,5.44,5.44,10.88,3.26,6.53,7.62,11.97,1.09,7.62-5.44-4.35-3.26,2.18v18.49l-7.62,4.35-3.26-1.09-1.09,7.62,10.88,8.7,2.18,9.79v3.26h-8.7l-2.18-10.88-4.35,7.62,4.35,11.97,10.88,5.44,6.53,4.35,1.09-8.7v8.7l6.53,3.26,8.7-4.35,11.97-1.09,8.7-3.26,5.44,1.09,21.76-1.09,14.14,1.09ZM860.11,773.04l3.26,4.35,10.88,3.26,10.88-2.18v-10.88l-4.35-10.88-10.88-4.35-14.14-4.35-3.26,3.26,2.18,9.79-2.18,2.18h1.09l6.53,9.79ZM857.93,782.83l5.44-5.44-4.35-4.35-6.53-8.7,2.18,4.35-5.44-3.26-5.44-5.44-2.18,9.79,5.44,9.79,8.7,3.26,2.18-1.09v1.09ZM903.63,832.88l1.09-5.44-5.44-4.35h-3.26l-1.09,5.44,4.35,4.35h4.35Z"/>
          </g>
        </g>
      </a>
    </g>
    <g id="g250">
      <a xlink:href="http://ja.wikipedia.org/wiki/石垣市">
        <g id="a252">
          <g id="use254">
            <path id="_47207a" data-name="47207a" class="cls-10" d="M632.69,854.06l-14.14-3.26-3.26,3.26-3.26,4.35-3.26-3.26,4.35-2.18v-4.35l-2.18-8.7-10.88-4.35-2.18,2.18,6.53,4.35-3.26,3.26v10.88h-6.53l-3.26-4.35h-10.88l-5.44,11.97,8.7,8.7,4.35-6.53,7.62-3.26h7.62l5.44,9.79,5.44,2.18,1.09,9.79-1.09,4.35-1.09-3.26-15.23,14.14,6.53,6.53,10.88,3.26,2.18,4.35-2.18,3.26,10.88,4.35,13.05-2.18,5.44-6.53-2.18-4.35,5.44-1.09,11.97,6.53,6.53-3.26,3.26-5.44,4.35-30.46-4.35-10.88,3.26-6.53-3.26-7.62,3.26-9.79,13.05-7.62v-10.88l5.44-4.35,7.62-7.62-1.09-4.35v-6.53l8.7-7.62,6.53-6.53,2.18-10.88v-8.7l-10.88-3.26-3.26,6.53-5.44,11.97-8.7,9.79,4.35,11.97-3.26,2.18-4.35,16.32-1.09,2.18-8.7-8.7-2.18,2.18-7.62,9.79h-6.53l2.18,5.44-4.35,8.7v9.79l-8.7-1.09-8.7,1.09-5.44,4.35ZM615.28,848.63l2.18,3.26,1.09-1.09-2.18-4.35-1.09,2.18Z"/>
          </g>
        </g>
      </a>
      <a xlink:href="http://ja.wikipedia.org/wiki/竹富町">
        <g id="a256">
          <g id="use258">
            <path id="_47381a" data-name="47381a" class="cls-10" d="M443.39,839.92l5.44,3.26-1.09-4.35-4.35,1.09ZM410.76,948.71l13.05,4.35h5.44l9.79,3.26,14.14-1.09,7.62,3.26,7.62,5.44h8.7l2.18-7.62-2.18-5.44h3.26l7.62,3.26v-17.41l5.44-11.97,8.7,5.44v-15.23l5.44-8.7,1.09-4.35-9.79-1.09-7.62-9.79h-9.79l-3.26-8.7-6.53-3.26-3.26,5.44-4.35-4.35h-4.35l-6.53-2.18-8.7,9.79-4.35-6.53,4.35,1.09-3.26-1.09,1.09-5.44-6.53-3.26-8.7-11.97-8.7,1.09v4.35l4.35,2.18-1.09,3.26-5.44,2.18-5.44,6.53,1.09,6.53-5.44-1.09,5.44,10.88-5.44,3.26,5.44,5.44-3.26,10.88,2.18,15.23-4.35-4.35-2.18,3.26-1.09-8.7-4.35,1.09v-7.62l-4.35,2.18-2.18,5.44-5.44-10.88-3.26,1.09,6.53,16.32-4.35,2.18v-2.18l-1.09-5.44-7.62-3.26-2.18,5.44,3.26,7.62-9.79-2.18-4.35,2.18,7.62,11.97,2.18,3.26,10.88,1.09,8.7,1.09,2.18-10.88,5.44,1.09,9.79,7.62ZM395.53,896.49l3.26-1.09-2.18-2.18-6.53,3.26,3.26,5.44,2.18-5.44ZM396.61,903.02l2.18,4.35,6.53,5.44,1.09-4.35-5.44-6.53-4.35,1.09ZM534.78,913.9l-9.79-6.53-4.35,3.26,3.26,5.44-9.79,4.35,17.41,1.09,4.35,4.35,5.44-3.26-6.53-8.7ZM579.38,924.78l4.35,7.62,8.7-5.44-7.62-10.88-5.44,8.7ZM547.83,983.52l6.53-5.44,1.09-5.44-3.26-5.44-4.35,2.18-7.62-4.35-5.44,4.35,3.26,7.62,6.53,7.62,3.26-1.09ZM514.11,977l2.18-3.26-3.26-2.18-6.53,9.79,7.62-4.35ZM498.88,985.7l3.26,4.35,4.35-1.09-1.09-5.44-6.53,2.18Z"/>
          </g>
        </g>
      </a>
    </g>
    <g>
      <polyline class="cls-16" points="760.18 1019 760.18 1020 759.18 1020"/>
      <line class="cls-17" x1="757.18" y1="1020" x2="346.61" y2="1020"/>
      <polyline class="cls-16" points="345.61 1020 344.61 1020 344.61 1019"/>
      <line class="cls-15" x1="344.61" y1="1017" x2="344.61" y2="742.12"/>
      <polyline class="cls-16" points="344.61 741.12 344.61 740.12 345.61 740.12"/>
      <line class="cls-17" x1="347.61" y1="740.12" x2="758.18" y2="740.12"/>
      <polyline class="cls-16" points="759.18 740.12 760.18 740.12 760.18 741.12"/>
      <line class="cls-15" x1="760.18" y1="743.12" x2="760.18" y2="1018"/>
    </g>
    <g>
      <polyline class="cls-16" points="1064.11 870.31 1064.09 871.31 1063.09 871.29"/>
      <line class="cls-18" x1="1061.09" y1="871.26" x2="818.3" y2="866.93"/>
      <polyline class="cls-16" points="817.3 866.92 816.3 866.9 816.32 865.9"/>
      <line class="cls-14" x1="816.36" y1="863.88" x2="819.44" y2="683.34"/>
      <polyline class="cls-16" points="819.46 682.34 819.48 681.34 820.48 681.35"/>
      <line class="cls-18" x1="822.48" y1="681.39" x2="1065.26" y2="685.71"/>
      <polyline class="cls-16" points="1066.26 685.73 1067.26 685.75 1067.25 686.75"/>
      <line class="cls-14" x1="1067.21" y1="688.77" x2="1064.12" y2="869.3"/>
    </g>
  </g>
  <g id="legend">
    <rect class="cls-11" x="1592.3" y="908.97" width="27.71" height="44.58"/>
    <rect class="cls-13" x="1620.01" y="908.97" width="27.71" height="44.58"/>
    <rect class="cls-8" x="1647.71" y="908.97" width="27.71" height="44.58"/>
    <rect class="cls-9" x="1675.42" y="908.97" width="27.71" height="44.58"/>
    <rect class="cls-12" x="1703.12" y="908.97" width="27.71" height="44.58"/>
    <circle class="cls-3" cx="1606.49" cy="688.5" r="15.5"/>
    <circle class="cls-3" cx="1606.49" cy="738.18" r="12.4"/>
    <circle class="cls-3" cx="1606.49" cy="782.28" r="9.92"/>
    <circle class="cls-3" cx="1606.49" cy="821.91" r="7.94"/>
    <circle class="cls-3" cx="1606.49" cy="857.97" r="6.35"/>
    <circle class="cls-3" cx="1606.49" cy="891.18" r="5.08"/>
  </g>
  <g id="current_line">
    <line class="cls-7" x1="1265.5" y1="540.5" x2="1235.43" y2="475.46"/>
    <g>
      <path class="cls-2" d="M1212.71,612.96c.97-.51.35-.39-2.4.88l-1.86,1.11,4.25-1.99Z"/>
      <path class="cls-2" d="M1193.97,620.89c-3.19,1.57-6.84,3.45-4.65,2.71,3.11-1.66,3.93-1.92,7.27-3.74,2.75-1.27,4.85-2.1,4.42-1.8.95-.5,4.31-1.88,5.73-2.69-3.67,1.44-8.22,3.48-12.9,5.77-1.04.41-.08-.09.13-.24Z"/>
      <path class="cls-2" d="M924.3,742.01l1.75-.76c-.48.21-1.08.47-1.75.76Z"/>
      <path class="cls-2" d="M757.26,817.14c1.27-.58,1.79-.84,1.84-.89-1.17.55-2.14,1-1.84.89Z"/>
      <path class="cls-2" d="M728.64,829.74c.61-.27,1.13-.5,1.69-.74-.65.27-1.3.55-1.69.74Z"/>
      <path class="cls-2" d="M924.3,742.01l-4.49,1.94c-.28.21,2.31-.98,4.49-1.94Z"/>
      <path class="cls-2" d="M1157.05,638.19c.93-.43,1.7-.8,2.4-1.15-.76.35-1.5.7-2.27,1.05-.04.03-.07.06-.13.1Z"/>
      <path class="cls-2" d="M997.83,708.65l1.36-.61c.38-.21.74-.41,1.09-.6l-2.44,1.21Z"/>
      <path class="cls-2" d="M1054.31,683.15c-1.28.57-1.64.96-2.09,1.26.69-.4,1.61-.87,2.73-1.39,0-.05-.18-.01-.64.12Z"/>
      <path class="cls-2" d="M1144.04,643.12l1.58-.74c-.41.19-1.1.52-1.58.74Z"/>
      <path class="cls-2" d="M957.38,726.83c-.11.01-.32.08-.55.16.01.02.22-.04.55-.16Z"/>
      <path class="cls-2" d="M1354.77,342.94c-.01-.05-.03.02-.04,0,0,.36,0,.47.04,0Z"/>
      <path class="cls-2" d="M1348.45,414.5l.06-.99c-.03-.11-.06-.22-.1-.22l.04,1.22Z"/>
      <path class="cls-2" d="M676.36,853.01c.1-.04.14-.06.23-.1,1.36-.64.59-.29-.23.1Z"/>
      <path class="cls-2" d="M1046.83,723.16c-5.07,3.13,7.94-5.55.36-.78.74-.39-6.61,4.77-.36.78Z"/>
      <path class="cls-2" d="M1155.58,638.82c-.76.34-1.54.69-2.31,1.05,1.05-.48,1.76-.8,2.31-1.05Z"/>
      <path class="cls-2" d="M1047.19,722.38h0s-.78.49-.78.49c.32-.2.51-.32.78-.49Z"/>
      <path class="cls-2" d="M684.72,864.34c-.27.03-.79.13-1.33.24.05,0,.35-.04,1.33-.24Z"/>
      <path class="cls-2" d="M645.87,867.21l-2.23.97c.88-.39,1.6-.7,2.23-.97Z"/>
      <path class="cls-2" d="M734.09,851.51c1.29-.31,1.73-.39,3.47-.86-.16.03-.33.07-.54.11-.63.19-1.46.41-2.93.75Z"/>
      <path class="cls-2" d="M785.55,838.46c-.28.06-.64.13-.96.2-.51.13-1.1.29-1.63.42l2.59-.62Z"/>
      <path class="cls-2" d="M1340,417.33c1.07-.46,1.75-.73,2.28-.92-.8.23,6.17-3.29-2.28.92Z"/>
      <path class="cls-2" d="M1156.98,638.09c-.26.18-.66.39-1.4.73.55-.25,1.09-.5,1.61-.74.13-.09.15-.13-.2,0Z"/>
      <path class="cls-2" d="M735.77,849.37l8.18-2.04c-2.29.57-5.26,1.31-8.18,2.04Z"/>
      <path class="cls-2" d="M1223.86,643.61l-.73-1.79c.27.7.53,1.33.73,1.79Z"/>
      <path class="cls-2" d="M768.21,841.14c1.48-.3,3.04-.65,4.64-1.03.33-.1.72-.21.94-.29l-5.58,1.32Z"/>
      <path class="cls-2" d="M1342.3,416.4s-.02,0-.02,0c0,0,0,0,.02,0Z"/>
      <path class="cls-2" d="M1332.1,367.87c2.48,7.64,1.43,3.51,2.11,5.08,3.05,9.1,1.18,4.28,2.06,7.43,1.93,5.67,3.59,9.96,4.96,14.21.06.33.31,1.16-.06.21.85,2.32,1.92,5.54,3.06,9.02.57,1.74,1.16,3.54,1.75,5.33.3.89.59,1.78.88,2.65.22.66.45,1.32.66,1.95-.7.37-1.37.72-2.01,1.05-.82.44-1.59.85-2.31,1.23-.5.22-.76.32-.89.37,1.13-.41,1.36-.36,1.19-.16-3.23,1.61-5.91,3.13-7.21,3.57,1.98-.98,2.11-1.12,3.01-1.63l-3.35,1.75c-3.16,1.28,4.58-2.37,4.49-2.54-6.56,3.35-14.15,7.36-19.24,9.8-1.17.3,11.78-5.94,4.93-2.8l7.87-3.8c-6.16,2.61,4.77-2.33-.92,0-10.33,5.04-11.46,5.83-21.76,10.86-2.25,1.27.86-.19-1.38,1.08-3.62,1.87-6.16,3.12-8.11,4.04-1.93.95-3.21,1.68-4.41,2.26-2.38,1.2-4.29,2.14-9.4,5.28-2.61,1.7-3.49,2.58-10.96,6.68l2.38-1.7c-9.66,5.53-5.3,3.53-15.49,9.17,1.74-1.13,7.53-4.45,6.06-3.64-6.65,3.57-4.55,2.81-9.58,5.7l-1.17.38c-7.91,4.63-16.41,9.61-25.16,14.73,3.12,1.91,6.32,3.86,9.53,5.83-.66-.32-2.61-1.43-.04.25,14.13,8.59,30.01,18.6,43.5,27.12l5.3,3.02c1.2.75,2.18,1.47.86.7,5.24,3.34.35.05,2.93,1.55,3.02,1.85,3.91,2.57,1.97,1.44,3.13,1.88,7.25,4.34,11.65,6.98-.22.11-3.35,1.36-5.49,2.21-2.31.92-4.62,1.83-6.86,2.72-4.48,1.76-8.69,3.38-12.11,4.65l2.07-.88c-8.41,3.21-9.29,4.13-17.14,6.99l1.48-.62c-2.19.85-4.41,1.72-6.65,2.59-5.24,7.12-10.61,14.41-15.64,21.24-5.01,6.78-9.71,13.11-13.73,18.32-1.42,2.47-11.58,15.49-11.97,16.76-3.03,3.91-4.33,5.6-5.73,7.41-.7.91-1.42,1.85-2.4,3.12-1.04,1.38-2.36,3.13-4.19,5.55.26.68.88,2.3,1.6,4.18,1.52,3.91,2.55,5.72,4.5,10.52l-.17.2,2.81,6.46,1.12,3.59,1.84,4.5c-.7-1.81-1.42-3.87-1.25-3.62,1.44,3.52,3.11,7.84,4.4,11.31.64,1.74,1.2,3.26,1.6,4.36.39,1.1.62,1.78.61,1.84l2.54,6.27,10.68-8.64c-.26.32-2.6,2.22-4.42,3.74,7.38-6.15,1.52-.89,8.28-6.52-.96.69.41-.5.54-.66,3.52-2.61,11.34-8.81,17.1-13.44l-1.01,1c7.81-6.21,16.19-12.87,24.89-19.79-5.33-.43-10.84-.88-16.37-1.33,5.34.52,4.09.69-.28.35l-1.73-.39c-2.84-.08,4.56.47-1.25.17-5.57-.49-3.72-.59-.52-.4l-6.78-.48c-.39-.11,1.2-.01,1.62-.07-2.79-.08-11.67-1.21-15.71-1.28l-.38-.1c-14.73-1.18-21.59-1.73-33.45-2.68-.22.14-.56.37-.9.6-.08.31-4.08,2.9-7.02,5.04-7.51,4.89-15.89,10.23-24.88,16.2-6.27,4.27-1.75,1.37-4.52,3.36-.57.15-9.55,6.11-4.96,2.91-10.79,7.17-13.78,9.16-27.35,18.33,1.53-.92,3.21-1.99,2.38-1.36-2.46,1.67-5.69,3.66-5.38,3.35l.64-.45c-15.18,10.39-35.7,22.95-47.69,31.36l.67-.47-12.55,8.55c-5.84,3.83,3.41-2.43-.96.32-13.48,9.31-21.61,14.24-32.74,21.86-9.02,5.29-30.88,20.48-42.83,27.95l.75-.34c-2.96,2.12-3.72,2.37-5.97,3.82.37-.12,3.36-2.08,1.51-.77-12.16,8.13-24.74,16.42-37.44,24.72-12.64,8.26-25.37,16.58-37.9,24.77-1.56.39-3.1.77-4.63,1.15-11.22,2.81-6.2,2.28-20.41,5.56l3.95-1.26c-22.56,6.03-46.28,11.72-68.38,17.59,1.31-.39,1.33-.47,3.49-1.02-2.36.51-6.69,1.6-10.43,2.59-1.87.51-3.59.97-4.86,1.32-.63.18-1.14.33-1.5.44-.36.11-.56.18-.56.2-3.45.86-.83.07-2.98.54-4.72,1.09-11.73,3.21-14.26,3.67-.43.08,1.3-.39,2.16-.62-3.04.86-14.26,3.59-11.28,3.05-8.34,2.01-15.88,4.12-22.55,5.69-4.27,1.32-14.26,3.5-15.56,4.17.51-.48-14.65,3.43-19.87,4.92,1.74-.55-4.6,1.06-2.57.4-6,1.53-11.48,2.98-10.39,2.88-11.15,2.41-22.14,5.95-28.49,7.02-17.79,4.65-34.25,8.96-50.26,13.14.49-.47,17.71-4.53,16.94-4.7-7.32,1.95-13.14,3.51-18.92,5.05-2.89.76-5.76,1.52-8.81,2.33-1.92.49-3.95,1.01-6.19,1.58-.17.04-.38.09-.6.15-1,.22.5-.22,1.4-.5.38-.12.75-.24.92-.3-.23.07-.47.13-.69.19-.8.21-1.58.42-2.35.63.67-.31,1.34-.61,1.99-.91,3.04-1.37,6.01-2.71,8.92-4.02,4.29-1.94,8.48-3.86,12.6-5.78-.01.02-.36.2-.86.44-.5.24-1.17.56-1.81.86,2.5-1.14,5.85-2.58,5.5-2.59l-2.43,1.14c-4.09,1.6,9.76-4.91,10.16-5.22-4.07,2.32,12.61-5.56,6.08-2.01,1.64-.77,3.68-1.77,3.26-1.69,2.46-1.08,3.26-1.37.83-.15,8.94-4.12,5.69-2.83,13.82-6.5,0,.08-1.63.85-2.43,1.31,4.06-1.99,8.14-3.99,15.04-7.03-.4.23.43-.08-1.62.84,11.8-5.34,19.96-9.42,32.97-15.13-3.69,2.02,4.45-1.89,5.25-1.94l6.93-3.21-2.85,1.14c6.1-2.74,11.41-5.36,16.69-7.64l-4.49,2.15,11.41-5.2-6.51,2.82c6.11-2.91-.81-.02,7.34-3.61-1.64.77,6.1-2.75,9.35-4.03h-.02c2.98-1.43,6.05-2.92,10.59-4.89,1.21-.45-.82.71-.03.42,2.88-1.55,14.26-6.5,17.93-8.42-1.23.62-1.24.78-.81.62l2.42-1.3c2.85-1.22,3.28-1.38,2.87-1.06,8.51-3.8-2.85.89,7.3-3.51-.79.37-.4.23-2.03,1,10.17-4.49,19.53-8.93,28.87-13.04,2.86-.98-8.11,3.73-4.86,2.53,13.4-6.1,27.66-12.84,40.67-18.63l-2.43,1.06c1.64-1.17,9.75-4.18,16.25-7.31-1.6.75-2.02,1.15-1.6.92,8.92-3.95,18.15-8.29,31.58-14.48l-1.63.85c5.28-2.28,13.83-6.17,19.51-8.68,1.64-.85,4.88-2.3,2.86-1.54,17.7-7.34,33.18-15.3,48.87-21.84-1.85.84-4.38,2.07-2.9,1.41l13.16-6.03c-1.12.31-1.77.68-4.6,1.81,1.63-.85,5.32-2.6,8.59-4.07-5.89,2.78.17.23,2.77-.84-.45.15.4-.3.16-.26,7.02-2.83,1.01-.84,10.51-4.89l-.46.31c3.5-1.63,6.7-3.2,10.51-4.89,1.66-.53-3.71,1.78-3.89,2.03,5.33-2.42,10.37-5.09,15.28-7.09-2.25,1.05-5.49,2.56-7.74,3.61,5.36-2.16,5.94-2.48,9.86-4.21l-.39.17,9.08-3.97-2.33.98c6.46-3.49,13.56-6.21,22.41-10.58-8.61,4.24-1.37.82-1.94,1.33,2.32-.98,5.84-2.49,4.87-1.98,4.17-2.08,7.16-3.07,13.04-6.01.3-.05,4.55-2.04,3.67-1.44,5.5-2.54-1.36.47-.93.18,8.42-4.07,20.15-8.75,32.26-14.58,10.51-4.89,12.36-6,22.12-10.53,3.36-1.38-2.6,1.46-2.6,1.46,5.38-2.31,9.39-4.14,14.39-6.48-.99.52.08.09,1.65-.52,4.03-1.84,2.59-1.46,7.96-3.76-.88.49-2,1.13-3.91,2.09,4.72-2.23,9.38-4.42,14.27-6.73,1.36-.47-2.89,1.52-4.6,2.37,5.51-2.55,14.3-6.57,15.92-7.52l-3.58,1.53c2.01-.92,1.11-.31-.36.39-4.68,2.28-6.87,3.02-7.17,3.07l3.49-1.62c-3.78,1.23-14.06,6.41-21.13,9.57l2.82-1.61-7.14,3.5c-1.57.62-2.7.94.77-.68-5.13,2.14-4.44,2.12-8.86,3.92-.49.19-.28.08.16-.13l-4.91,2.31c.94-.5-.91.17,2.14-1.16-8.95,3.84-14.22,6.67-17.66,7.96l.73-.35c-12.27,5.65-1.1.75-10.23,5.15l-6.45,2.29-1.12.75c-1.27.57-3.8,1.68-3.37,1.39-4.67,2.27.85-.27-1.84,1.1-6.2,2.57-16.83,7.69-18.35,7.98-2.12,1.15,5.91-2.51-.58.54-2.02.48-7.52,3.46-13.18,5.82,1.63-.96,6.97-3.25,1.3-.89-3.23,1.83-10.91,4.84-15.6,7.02-.05.17-2.61,1.35-6.13,2.95-3.52,1.6-8,3.63-11.95,5.42.46-.31-14.94,6.57-22.34,9.8l.2-.14c-1.31.89-8.92,4.27-14.42,6.81.15-.25,1.12-.76,4.08-2.17l-5.19,2.34c-1.19.63-2.79,1.41-6.15,2.95l1.22-.78c-6.91,3.13-13.82,6.5-22.78,10.38-.42.4,7.3-2.7-2.06,1.66-.39.06-.81.06,1.63-1.09-.8.38-2.84,1.37-4.48,2.07l3.69-1.85c-4.08,1.76-2.06,1.09-5.3,2.53,0-.16-2.44.98-2.02.67.82-.39,2.85-1.22,4.07-1.83-3.66,1.62-8.11,3.53-9.62,4.09.35-.07.08.18-2.59,1.4-6.91,3.13-2.44.9-6.5,2.65-1.63.85-6.09,2.74-6.11,2.99-2.02.91-2.44.99-3.25,1.28-3.54,1.7-16.7,7.56-12.57,5.96l.92-.4c-.17.08-.37.17-.58.27h.03s-.03,0-.03,0c-11.64,5.49-24.42,10.87-36.02,16.2v-.08c-6.92,3.21-15.45,7.01-20.35,9.4-2.05.93-4.91,2.06-4.06,1.59-5.29,2.44-5.85,2.79-13.57,6.13,5.29-2.52-1.89.73,5.43-2.55-6.93,3.05-8.54,3.65-15.86,7.17,2.44-1.31-5.29,2.12-8.55,3.65l4.89-2.06c-3.69,1.66-6.91,3.11-10.19,4.59l1.67-1.03c-14.25,6.09-25.25,11.95-36.21,16.33-3.66,1.84,7.72-3.34,4.46-1.65-6.51,2.9-13.42,5.62-15.46,6.54-8.95,3.88-8.15,4.07-17.5,8.18,1.23-.46,2.45-.75-4.47,2.47-6.51,2.9-8.14,3.26-4.07,1.35,1.56-.71,2.32-1.02,2.27-.97,2.09-.98,4.83-2.25,2.21-1.18l-.81.46c-3.26,1.37-12.2,5.41-10.16,4.33-4.88,2.29-2.04,1.08,1.62-.52-8.39,3.64-13.03,5.87-21.64,9.65,1.38-.57,2.68-1.04,1.33-.43-12.63,5.57-5.47,2.65-13.99,6.53-4.9,2.06,1.6-1.08-6.93,2.89-5.28,2.28-1.21.28.85-.72-7.75,3.68-14.66,6.48-19.14,8.47l4.09-1.92c-2.45,1.15-4.46,2.06-6.52,2.98l2.43-.9c-1.22.53-2.34,1.02-3.15,1.38-.81.35-1.32.56-1.32.52-2.45,1.23,2.03-.59-2.85,1.78-3.26,1.37-9.78,4.51-10.99,4.8,10.18-4.5-1.22.29,7.35-3.62-1.64.77-3.66,1.68-6.1,2.75-.37.14.32-.2.98-.51-9.79,4.18-4.35,2.25-14.41,6.78,1.22-.7-2.44.82-4.07,1.59,4.05-1.82,2.03-.67-1.65,1.1-6.49,2.81-6.98,3.23-10.36,4.74l3.88-1.69c-1.25.71-4.48,2.15-8.96,4.21-.43.08,4.05-1.9,2.43-1.22-2.45,1.23-5.29,2.45-8.39,3.77-.77.33-1.56.67-2.37,1.01-.95.41-1.92.84-2.9,1.27-2.5,1.1-5.17,2.31-7.56,3.43-.23.1-.44.19-.54.23-.87.49-1.1.55-1.36.62-.25.07-.52.15-.89.51-.19.31-.47.61-.71.86.96.11,1.41.25,1.75.53,1.62-.4,3.38-.84,5.46-1.35,2-.52,4.3-1.11,7.1-1.84-.47.07-1.57.32-2.02.41-.5.1-.64.12-.35.03.39-.11,2-.57,5.48-1.55l-14.5,3.77c-.61.02-1.2.03-1.74.03.6-.02,1.32-.09,2.14-.21l8.39-2.28c-2.58.67-5.28,1.37-7.79,2.01-1.64.24-2.89.35-3.7.42,1.25-.13,2.03-.29,2.2-.33.18-.05-.11-.04-.73.04.95-.13,1.89-.26,2.84-.4,2.98-.78,6-1.58,9.13-2.4,2.32-.62,4.73-1.25,7.3-1.83l-.1.48c10.33-2.42,18.22-4.85,31.6-8.13l-4.31,1.01c1.75-.62,8.24-2.11,12.55-3.28-.37.25,2.35-.39,4.22-.77-.25-.05,9.78-2.47,10.92-3.06l6.01-1.32c10.8-2.66,12.2-3.53,22.58-6.11-3.08.95,1.65-.15-5.26,1.73,1.73-.44,3.37-.85,4.59-1.16,1.22-.31,2-.53,2.02-.59,2.04-.42,9.55-2.63,12.77-3.3,1.44-.43,1.88-.7,5.77-1.68.43-.08,0,.07,0,.07,0-.07,6.06-1.64,2.62-.94,10.78-2.26,29.79-7.59,39.17-9.56,7.55-1.95,16.64-4.3,23.49-6.07-.43.15,0,.08-1.3.39,9.49-2.26,5.71-1.89,16.51-4.47,5.56-1.16-5.68,1.57-2.23.79,1.61.09,12.97-3.36,20.29-4.92l-1.75.47c5.58-1.24,13.46-3.6,22.52-5.86,0,0-.43.15-.03.08,6.13-1.81,17.82-4.86,26.5-7.13-2.66.87-3.93,1.1-2.23.87,3.89-1.02-1.22-.01,6.55-2.04,2.56-.54,8.2-1.88,8.99-1.87l-7.34,1.87c3.83-.69,9.51-2.42,13.39-3.36l-.47.24c4.65-1.2,7.39-1.95,9.88-2.65,1.24-.35,2.42-.68,3.74-1.04,1.34-.36,2.83-.76,4.66-1.25,1.23-.82,2.74-1.82,4.56-3.03l-1.12.64c5.53-4.01,4.86-3.02,10.41-6.95l1.88-.89c3.71-2.54,12.99-8.94,19.69-13.44-3.69,2.71-11.51,8.01-16.31,11.35,3.72-2.46,12.63-8.38,14.49-9.79-1.48,1.02-3.33,2.33-4.84,3.27,4.44-3.21,10.38-7.28,17.8-12.18-1,1.35,19.41-12.67,25.03-15.85,13-8.85,26.07-17.14,41.33-27.28-5.67,3.21,4.45-2.96,3.26-2.72,3.54-2.38,4.9-3.27,5.24-3.46l10.94-6.91c2.63-1.58-3.33,2.32-2.94,2.19,7.81-5.13,3.38-2,8.6-5.31-1.15.56,2.58-1.99,7.06-4.88l-6.37,3.96c10.76-7.41,9.63-5.91,20.47-13.37l-3.39,2.42c5.59-3.8,20.78-13.75,26.1-17.71,1.03-.62,2.41-1.38-.05.29,13.49-8.86,29.75-20.15,40.34-26.89l-.96.77c2.49-1.69,4.26-3.07,7.46-5.05-.14.15-.95.76.22,0,1.31-.91,6.56-4.58,9.93-6.73l-2.77,1.99c13.21-8.57,19.98-13.59,30.95-20.94.08.15,2.71-1.47,5.98-3.54,3.25-2.09,7.15-4.61,9.75-6.28l-.15.16c1.59-1.05,3.13-2.07,4.47-2.96,3.73.29,7.24.56,10.64.82,3.51.25,6.9.5,10.28.74,6.76.48,13.46.96,20.98,1.5,3.14.37,7.59.79,12.74,1.25,4.45.38,9.49.82,14.61,1.26-2.51,1.98-5.04,3.97-7.49,5.9-3.05,2.38-5.98,4.67-8.66,6.76,2.07-1.56-.17.46-2.51,2.36-3.16,2.42-8.47,7-8.16,6.37l1.11-.88c-2.53,1.63-8.89,6.76-13.89,10.72l-.58.96c-1.66,1.22-3.42,2.56-5.26,3.97-1.54,1.2-3.15,2.45-4.8,3.72-1.26-3.16-2.55-6.42-3.82-9.63-1.43-3.55-2.83-7.04-4.13-10.29-2.6-6.5-4.79-12.06-5.86-15.32-1.43-3.48-3.2-7.75-4.63-11.23.03-.05.06-.1.09-.14.05.05.1.1.17.13,3.24-4.37,5.67-7.64,8.3-11.18,2.67-3.64,5.53-7.54,9.61-13.1l-1.54,2.35c4.62-6.26,5.33-8.27,9.57-14.06l1.53-1.55c8.04-10.93,16.4-21.82,24.12-32.79-.09.2-.26.58-1.55,2.36.63-.85,1.48-1.99,2.47-3.33,3.56-1.39,8.09-3.15,11.5-4.48,3.48-1.39,5.81-2.38,4.86-2.2.13.1,3.39-1.17,7.46-2.82,4.07-1.67,8.96-3.68,12.35-5.07l-.99.61c2.3-1.02,3.7-1.64,5.1-2.26.71-.3,1.41-.61,2.24-.96,1.08-.44,2.32-.95,3.86-1.57-.95-.58-2.37-1.43-4.09-2.48-1.73-1.1-1.44-1.09.85.39-5.74-3.68-4.62-2.63-11.6-7.07l2.69,1.51c-5.96-3.7-5.52-3.35-8.89-5.25-3.8-2.25-11.29-7.05-12.08-7.75-.86-.4-4.21-2.29-7.7-4.51-.44-.35.87.4,1.52.78-9.9-6.29-14.97-8.97-21.72-13.39-.11-.15-.54-.45-1.09-.82,7.88,4.9,13.1,8.14,13.7,8.51.1-.16-6.29-4.15-1.05-1.23-5.22-3.06-14.17-8.22-20.37-12.16-.29-.2-.58-.4-.79-.57l.66.38c-1.43-.91-2.73-1.69-3.96-2.41-1.31-.83-1.22-.79-1.53-.99.13-.07.25-.14.38-.21.28-.16.58-.33.89-.51.83-.29,7.52-4.23,10.78-6.1-.37-.03,3.9-2.45-.17-.31.52-.28-.6.38-2.76,1.63-.49.29-1.06.63-1.38.82.06-.04.13-.09.21-.14-2.05,1.19-4.73,2.73-7.77,4.49l.22-.15.43-.27c.32-.2.64-.4.97-.6.66-.4,1.34-.81,2.05-1.24,1.43-.85,3.01-1.75,4.83-2.73,1.61-1.07,3.38-2.25,4.37-2.91,4.6-2.31,13.26-7.11,14.54-7.64,9.87-5.82,23.36-13.54,29.42-17.48,2.8-1.67,3.3-1.77,4.39-2.32-1.61.97-3.55,2.08-4.41,2.64,1.4-.83,3.15-1.85,4.99-2.94.93-.53,1.87-1.1,2.83-1.63.98-.49,1.95-.98,2.89-1.46,3.75-1.9,6.94-3.54,7.57-4.01,7.41-3.54-4.02,2.28,6.07-2.78l-1.33.75c6.06-2.86,11.38-5.51,16.47-8.11,5.18-2.67,10.16-5.24,15.39-7.94-.64-1.9-1.3-3.84-1.97-5.82-.62-1.87-1.25-3.79-1.91-5.78-1.29-3.98-2.63-8.23-4.03-12.9.5,1.63.74,2.45.81,2.79-3.5-11.09-7.22-22.42-10.95-33.77-1.86-5.67-3.73-11.35-5.59-17-1.78-5.5-3.56-10.97-5.31-16.38,4.66-.56,9.26-1.11,13.8-1.66,7.82-.93,8.64-1.22,13.39-1.97h1.72s3.29-.53,3.29-.53l2.88-.48-.03,1.14c-.67,11.63-2.04,20.07-2.76,34.81l.29-1.89c-.42,5.28-1.14,16.74-1.25,15.84-.01.54.03,1.74-.2,3.8l-.13.15-.75,12.99c-.83,10.05-.35-1.61-1.46,13.07-.36,5.46-.8,15.56-.57,13.52.17-2.2.49-5.62.62-5.78l-.31,5c.28.93.36,4.79,1.5-7.44l.42-8.55.37-2.74-.52,7.18c.46-4.06.51-6.66.63-9.56.14-.68.29-1.87.45-3.56l.28-8.4c.21-1.01,0,3.78.48-1.84.14-3.94-.58,3.74-.21-2.76.46-4.07.5-2.87.72-7.67.14-.67.12.35.02,2.25.21-4.27.79-11.29.76-13.51.51-4.24,1.01-14.41,1.31-13.96.02-1.35.3-7.53.57-11.45-.05,2.78.1,1.22.33-1.62.25-3.19.62-7.83.83-10.49-.63.07-1.19.13-1.66.19-.24.02-.46.05-.66.07-.1,0-.19.02-.28.03-.05,0-.1,0-.15,0-.33.01-.42-.01-.21-.09-5.22,1.04-19.01,2.63-28.32,4.03.52-.1,1.54-.29,2.36-.37-2.07.24-3.56.41-4.82.56-1.7.19-3.08.34-4.61.5.28.91.59,1.89.93,3.01.49.56,3.11,8.38,4.66,12.55,1.74,6.26-1.55-3.64-1.18-1.62.13-.38,3.72,10.65,3.23,8.49,1.37,4.78,1.24,4.09,1.81,6.6.62.71,1.49,4.38,2.98,8.22,2.05,6.89.25,1.87,2.8,9.34,1.06,3.6-1.24-3.03-1.24-3.03ZM1243.67,481.22h0c-1.38-.84-2.55-1.56-3.3-2.02.69.42,1.64,1.01,3.3,2.02ZM1257.09,489.51c-1.63-1.01-3.67-2.27-5.82-3.61-.43-.35.12-.1,1.46.74-.76-.41,2.38,1.58,4.35,2.87ZM1242.43,472.48c-2.15,1.27-2.89,1.65-3.21,1.79,1.02-.59,2.21-1.29,3.77-2.2.06-.04.18-.13.24-.17-.19.15-.4.32-.8.58Z"/>
      <path class="cls-2" d="M1246.18,470c.31-.18.48-.29.88-.53-.45.24-.88.47-1.31.7-.25.17-.51.35-.73.5.39-.23.8-.46,1.16-.67Z"/>
      <path class="cls-2" d="M926.36,741.12l-.31.13c.26-.1.49-.2.65-.26-.21.08-.21.08-.34.13Z"/>
      <polygon class="cls-2" points="1217.31 627.31 1217.35 627.26 1216.8 626 1217.31 627.31"/>
      <path class="cls-2" d="M1005.87,706.08c.16-.05.46-.17,1.06-.42-.05,0-.51.19-1.06.42Z"/>
      <path class="cls-2" d="M1040.1,690.7l4.87-2.11c-2.11.91-3.64,1.58-4.87,2.11Z"/>
      <path class="cls-2" d="M1066.45,678.94c.32-.18.4-.25.48-.31-.02,0-.04.01-.05.02l-.43.29Z"/>
      <path class="cls-2" d="M648.26,867.68c-.35.16-.7.32-1.01.47-2.36,1.11-.75.37,1.01-.47Z"/>
      <path class="cls-2" d="M772.54,811.13c-1.31.63-2.6,1.24-3.96,1.89,2.22-.98,3.95-1.76,3.96-1.89Z"/>
      <path class="cls-2" d="M734.88,849.59s0,0-.01,0c.32-.08.6-.15.91-.23l-.9.22Z"/>
      <path class="cls-2" d="M762.79,815.63c2.23-.96,4.08-1.8,5.79-2.61-1.82.81-3.97,1.75-5.79,2.61Z"/>
      <path class="cls-2" d="M1180.52,627.64l1.27-.56s.04-.05.14-.1l-1.41.66Z"/>
      <path class="cls-2" d="M1181.92,626.97l1.4-.66c-.65.29-1.21.55-1.4.66Z"/>
      <path class="cls-2" d="M1186.26,624.93l-2.94,1.38c1.03-.46,2.29-1.03,2.94-1.38Z"/>
      <path class="cls-2" d="M1145.65,643.24l-.37.25c.21-.11.34-.2.37-.25Z"/>
      <path class="cls-2" d="M1135.08,648.03c2.53-1.12,6.4-2.71,9.9-4.34l.3-.2c-1.61.85-7.86,3.34-10.21,4.54Z"/>
      <path class="cls-2" d="M1090.51,667.08l8.89-3.94c-1.58.62-3.67,1.44.36-.39-11.28,4.82,2.38-.87-9.25,4.33Z"/>
      <path class="cls-2" d="M1062.97,679.37c4.75-2.18-.1-.08.13-.24-2.99,1.43-3.72,1.78-.13.24Z"/>
      <path class="cls-2" d="M864.24,768.93l.4-.39c-3.66,1.68,0,.08-.4.39Z"/>
      <polygon class="cls-2" points="826.66 786.95 830.29 785.45 831.92 784.52 826.66 786.95"/>
      <polygon class="cls-2" points="803.66 795.82 805.26 795.07 799.16 797.9 803.66 795.82"/>
      <path class="cls-2" d="M776.44,840.96l-1.24.07c-2.63.71-3.12,1.11,1.24-.07Z"/>
      <path class="cls-2" d="M929.2,800.6c1.5-.85,5.25-3.24,7.47-4.85-2.97,1.95-5.98,3.83-7.47,4.85Z"/>
      <polygon class="cls-2" points="1235.47 656.08 1237.91 654.04 1233.25 657.81 1235.47 656.08"/>
    </g>
    <line class="cls-7" x1="1265.5" y1="540.5" x2="1284.43" y2="618.46"/>
    <line class="cls-7" x1="1301.43" y1="437.46" x2="1311.43" y2="522.46"/>
    <polyline class="cls-7" points="925.58 802.34 750.58 519.34 1212.5 612.5"/>
  </g>
  <g id="current_circle">
    <text class="cls-19" transform="translate(112.96 120.28)"><tspan x="0" y="0">高付加価値コンテンツの創</tspan><tspan class="cls-1" x="555.38" y="0">出</tspan><tspan x="627.38" y="0">（現状）</tspan></text>
    <g>
      <circle class="cls-6" cx="1212.5" cy="612.5" r="15.5"/>
      <g>
        <path class="cls-5" d="M1226.67,612.5c.17.05.56.02.48-.11l-.67-.09.19.2Z"/>
        <path class="cls-5" d="M1227.85,611.56c-.33-.15-.9-.28-1.5-.13.64.1.38.16,1.14.28.08.13-.2.25-.44.23.17.04-.14.21.28.27.5-.19.51-.43.08-.64.14-.06.32-.02.44-.02Z"/>
        <path class="cls-5" d="M1222.02,599.13l.03.12c0-.05,0-.09-.03-.12Z"/>
        <path class="cls-5" d="M1213.61,595.76c.07-.01.11-.08.11-.14-.07.04-.13.08-.11.14Z"/>
        <path class="cls-5" d="M1212.01,595s.07.03.1.04c-.04-.06-.08-.09-.1-.04Z"/>
        <path class="cls-5" d="M1222.02,599.13l-.08-.32c-.14.17,0,.21.08.32Z"/>
        <path class="cls-5" d="M1226.06,609.97s.1.06.19.08c-.03-.03-.06-.06-.08-.09-.04,0-.07,0-.1.01Z"/>
        <path class="cls-5" d="M1225.37,601.46l.05.06c.07-.03.16-.08.25-.13l-.3.07Z"/>
        <path class="cls-5" d="M1227.28,603.99c-.02-.07-.51.19-.74.29.22-.08.34-.09.41-.06.09-.05.2-.12.33-.23Z"/>
        <path class="cls-5" d="M1228.16,608.9l.1.06s-.06-.05-.1-.06Z"/>
        <path class="cls-5" d="M1223.86,599.76c.05-.07.09-.13.11-.17-.05.05-.08.11-.11.17Z"/>
        <path class="cls-5" d="M1225.05,615.26s.06.01.1.02c-.05-.03-.09-.04-.1-.02Z"/>
        <polygon class="cls-5" points="1228.15 612.5 1228.17 612.55 1228.49 612.56 1228.15 612.5"/>
        <path class="cls-5" d="M1208.87,594.62s0,0,.02,0c.07-.08.03-.06-.02,0Z"/>
        <path class="cls-5" d="M1195.08,616.27c.42-.4.75.35,1.18-.22-.2.09-.96-.23-1.18.22Z"/>
        <path class="cls-5" d="M1226.12,609.89s-.02-.07-.02-.1c-.01.05,0,.08.02.1Z"/>
        <path class="cls-5" d="M1196.27,616.05h0s.04-.06.04-.06c-.02.02-.03.04-.05.06Z"/>
        <path class="cls-5" d="M1202.42,597.71c.07.07.13.12.2.16-.03-.05-.09-.1-.2-.16Z"/>
        <path class="cls-5" d="M1207.42,596.17l-.14-.03c.06.03.11.03.14.03Z"/>
        <path class="cls-5" d="M1200.83,600.01c-.08.01-.15-.03-.17.09.03.01.05.02.07.03-.03-.08-.02-.14.1-.12Z"/>
        <path class="cls-5" d="M1198.99,602.03s.08.02.12.03l.03-.09-.15.06Z"/>
        <path class="cls-5" d="M1222.51,620.98c.15.07.31.16.45.25-.33-.23-.23-.55-.45-.25Z"/>
        <path class="cls-5" d="M1226.37,609.91c-.14.01-.21,0-.25-.02.01.02.02.05.04.07.08,0,.16-.02.21-.05Z"/>
        <path class="cls-5" d="M1203.8,603.31l-.3.16c.11-.02.21-.08.3-.16Z"/>
        <path class="cls-5" d="M1208.85,625.19l.09-.05s-.06-.01-.09.05Z"/>
        <path class="cls-5" d="M1202.91,604.23c-.19-.09-.32-.12-.42-.12.02.04.04.07.09.12h.34Z"/>
        <path class="cls-5" d="M1222.97,621.24h0s0,0,0,0Z"/>
        <path class="cls-5" d="M1223.12,618.69c-.17.25.55.49.88.77-.02.44-.55-.13-.94-.23.06.3.52.83.38.96-.11-.06-.16-.06-.26-.18.32.55-.42.61-.03,1.31-.07-.02-.12-.06-.17-.09.32.2.61.43.81.61-.1.12.15.52-.25.25.08-.06-.07-.2-.15-.33l.05.26c-.62-.35-.03-.32-.42-.65-.03.37.14,1.03-.17,1.08-.52-.44.21-.57-.44-.75l.43-.09c-.98-.51.2-.11-.82-.69-.45.18-.07.62-.54.79.19.34.42.38.6.72-.06.97-1.53-.92-1.28.08.2.42.69,1.12.12.98l-.38-.68c-.39.2.45,1.04-.23.91-.1-.3.14-.42.03-.45-.59-.31.08.48-.11.63l-.42-.54c-.34.31-.52,1.05-.96,1.4-.06-.19-.08-.42-.29-.55-.22.29-.55.43-.91.48-.37.01-.77-.06-1.12-.15l-.04.64c-.06.01-.18-.23-.15-.35-.3-.15.1.36.05.61-.13.07-.28-.28-.24-.47-.26.58-.99,1.37-1.57.79l.06-.19c-.38-.18-.25,1.25-.66.77l.06-.11c-.81-.19-1.73.39-2.3-.56-.18.84-.73-.41-.91.73-.38-.65-.23-.84-.76-1.32-.15-.07-.39.67-.62.74l.13-.6-.43.56.04-.75-.23.11c.06.05.09.31.03.48-.39.2-.61-.61-.5-.92l-.84.25c.11-.23.25-.26.39-.38-.58.46.17-.63-.36-.21,0,.14-.16.33-.22.44-.03-.4-.36-.59-.69-.56l.24-.36c-.42-.29-1.04-.33-1.54-.64.07.27-.36.87-.56.83l.3-.58c-.32.28.03.3-.45.59-.15-.2.3-.7.51-.8l-.34.02c.1-.17.21-.21.36-.41-.33.26.03-.79-.51-.32l.11-.16c-.46-.32-.76-.37-1.15-.65-.39.4-.45.19-.88.41-.12-.41-.06-1-.38-1.27-.41-.05-.42.24-.77.34.38-.34.09-.66.51-.7-.36-.37-.5-.43-1.18-.78-.14.17-.17.3-.34.35-.14-.06.03-.36.25-.47h.06c-.52-.12-.45-.69-.31-1.21.14-.52.22-.94-.36-1.02h.06s-.73-.37-.73-.37c-.01-.29.42.03.65-.27-.52-.16-.57-.43-.56-.68,0-.26.05-.49-.3-.69.67-.36.62-.7.46-1.05-.17-.35-.36-.74.12-1.04l-.35.05c-.36-.12.19-.18.27-.29-.28.03-.31.17-.51.09-.28-.6-.08-1.26.17-1.86.14-.3.34-.59.5-.87.16-.28.33-.55.5-.81.2-.38-1.72-.72-.76-1.05l.59.35c-.26-.54-.06-.98.11-1.41.22-.41.44-.8.35-1.37.11.12.28.21.24.29.51.07.38-.57.04-.79.11-.1.32.16.53.19.33,0-.28-.74.19-.56.08.03.1.13.11.18-.12-.23.39-.41-.13-.65.42-.11.19-.68.62-.68-.35-.54.61-.23,0-.86.66.63.91.06.8-.38.14.25.33.08.53.41.17-.17.22-.44-.12-.76,1.01.51.18-1.26,1.22-.32.13-.42.31-.79.53-1.1.21-.31.42-.65.7-.87.39.79-.61.44-.11,1.25.31-.66.34-1.46,1.01-1.56.2.04.07.4.09.56.43-.6,1.14-.37,1.53-1,.02.08-.01.18-.05.26.1-.06.29.07.16-.33l-.08.13c-.35-.52.11-1.31.06-1.62.1,1.19.65.14.69,1.66.05-.09.1-.31.02-.57.13.05.19.2.15.53.33-.32.12-.7.49-.75.03.2-.03.28-.02.52.11-.41.25-.82.58-.7,0,.12.05.27-.04.28.5-.16.84-1.11,1.48-.78-.15.87.21.27.25,1.02.1-.08.21-.15.31-.22l-.12-.37c.28.03.55-.5.79-.25l-.23.3.54-.12-.28-.3c.32-.37.03-.94.42-.72-.09.07.31.02.41.49h0c.17-.21.36-.44.55-.22.02.24-.17.81-.16.97.23-.59.69-.08,1-.69-.09.14-.17.52-.17.6l.22-.47c.1.19.1.27,0,.57.37.19.09-.95.47-.44-.05.03-.05.11-.14.16.41.32,1.01-.09,1.35.32-.13.75-.42.04-.48.69.6.07,1.54-.4,2.03.06l-.07-.12c.55-.91.19.66.69.36-.1.03-.37.47-.29.37.27.37.85.2,1.59.28l-.22.18c.06.35.44.51.58.76.23-.17.33-.04.5-.41-.14.85.24.96.7,1.04.46.07.92.18.69.89-.06-.06-.31,0-.27.06l.6.29c.32-.34.16-.24.34-.58.26-.12.55-.12.66,0-.44-.02-.56.48-.69.74.1-.11.24-.17.35-.27-.44.78.76-.53.61.19l-.21.13c.2.06.56,0,.62.2-.39.37-.32,0-.68.24.17.18,1.15-.16.83.35-.18-.02-.27-.15-.46-.16-.36.56-.24.5-.22.71v-.02s-.02.51-.02.51l.09-.18c1.35-.44.58.41,1.56.38-.95,0-.47.17-1.03.42-.1.18-.2.41-.37.44.52-.04-.21.45.56.4-.17.09.07.2-.39.35.25.16.29-.19.52-.27.8.12-.43,1.15.64,1.37.5.37,1.14.29,1.59.7-.26.23-.72.03-.72.03-.22.32-.1.49.15.69-.17-.02-.31.06-.51.18.08.18.72,0,.47.31-.22,0-.57,0-.8-.06.21.18.6.35.81.57-.33.1-.53-.07-.76-.12.19.23.41.62.94.66l.18-.19c.03.1-.45.1-.56.04-.45-.18.14-.34.33-.38l.15.16c1.11-.32-.29-.68-.27-1.01h.84s-.73-.24-.73-.24c.2-.12.64-.27.8-.11.35-.34-.34-.16.05-.48.06-.04.11-.04.14-.02l-.31-.2c.18,0,.56-.18.48,0,.34-.59-.79-.58-.23-.92l.06.02c-.46-.54-.6.11-1.43-.11.44-.26.88-.52,1.31-.8l-.6.15c0-.07,0-.21.23-.27-.48-.09-.23.13-.65.14.42-.51-.56-.7.29-1.16-.47.09-.19.42-.63.25.91-.53-.33-.28-.03-.75.52-.17.39.23.69-.27-.89.25-.08-.63-.38-.77-.64.35-.55-.32-.97-.56.24-.12-.13-.88-.17-1.36l.1-.06c-.64.39-.75-.04-1.07-.16.34-.27.51-.35.77-.35-.06-.08-.13-.14-.2-.22-.23.1-.38.12-.57.04l.46-.31c-.3-.27-.98-.14-1.07-.74-.37.36-.73,1.26-1.32,1.19.18-.21.49-.57.67-.56-.06,0-.27.06-.25-.08l.47-.2c-.02-.29-.35.2-.45.06.27-.29.1-.29.33-.51.06,0,0,.22.16.16-.1-.18-.12-.52.02-.8-.14.18-.35.4-.5.34-.3-.23.21-.45.18-.75-.24.14-.26-.23-.64.23-.09-.07.07-.3.13-.45-.32.08-.79-.5-.98.14l.02.06s-.02,0-.04,0h0s0,0,0,0c-.81.09-.91-.99-1.59-1.12l.1-.17c-.43,0-.82-.26-1.24,0-.1-.05-.08-.44.06-.63-.33.01-.43.18-.7-.25.41-.22.02-.32.38-.13-.29-.29-.27-.62-.85-.26.31-.43-.06-.7-.29-.62l.14.44c-.22,0-.37-.1-.53-.21l.29-.6c-.27-.51-.75-.26-1.14-.08-.4.19-.72.3-.9-.4-.3.42.37.39.07.89-.33-.14-.55-1.14-.68-1.16-.47-.44-.6.88-1.09.58.05.24.04.87-.34,1.08-.33-.1-.37-1.02-.13-1.19.09-.02.13.06.12.14.12-.08.29-.17.16-.44l-.07.23c-.16-.25-.68-.25-.54-.64-.3.21-.13.38.07.52-.46-.36-.74-.07-1.23-.26.08.13.16.4.08.4-.72-.26-.3.47-.76.59-.29-.35.04-.87-.42-.54-.32-.23-.12-.62-.01-.82-.41.46-.89-.19-1.18-.24l.22-.23c-.13.14-.25.15-.38.17l.21.45c-.15-.06-.27-.04-.3-.24-.09.33.23.76.03,1.23-.22-.21-.49.33-.68-.26.62.1-.19-.61.29-.8-.08.09-.2.1-.36.05-.04-.06,0-.13.03-.17-.69-.42-.11.76-.68.89-.01-.36-.3-.62-.38-.52.24-.05.26.55.12.86-.43-.17-.33.3-.52.32l.25.07c.03.36-.16.36-.35.55-.11-.26.15-.26.03-.34-.06.68-.8-.39-1.04.14-.26-.16-.26-.62-.48-.71-.25.58-.65-.25-.95.3.33.37.29.26.2.82l.56-.64-.16.85c.21-.09.31-.49.47-.46-.07.44-.08.33.17.65-.56-.52-.37.64-.88.35l-.51-1.06c-.77-.23-.6.99-1.35,1.1l.3.06c.16.45-.34.28-.43.56-.2-.34-.4-.39-.62-.54.18.23-.45.3-.04.98l-.56-.23c-.6.19.16,1.26-.3,1.52-.16-.43-.53-.48-.45-.96-.14.12-.31.18-.14.39-.25-.11-.02.74-.4.57.06.18.33.49.16.6-.07-.04-.14-.14-.14-.14.13.14-.03.41.4.59-.62-.24-.87.07-1.08.38-.23.3-.4.62-.96.5-.13.4-.32.85-.5,1.16-.09-.09-.16-.11-.09-.15-.57.23.79.88.17,1.12-.69-.09-.14-.43-.44-.4-1.15-.6-.21.66-1.04.64l-.03-.12c-.53.07.12.88-.17,1.26,0,0-.09-.07-.18-.08.44.56.46,1.21.48,1.67-.43-.3-.18-.28-.7-.37,0,.21.8.23.8.64-.3.03-.64.22-1.17.1.02-.13.07-.25.1-.38-.76-.03-.14.49-.3.65l-.29-.11c-.06.62.7.82.5,1.41h.25c.69.46-.48.18.03.62l-.79-.03c.16.27.62.9.74,1.3-.57-.28-.78-.79-1.08-1.14-.04.23-.06.79.31.95-.06-.1-.24-.24-.1-.31.56.35.86.72.82,1.15-1.53-.15-.46,1.13-1.59,1.49.31.41.26.81.18,1.25-.06.44-.17.92-.04,1.4,1.12-.55.08.28,1.27-.02.11.2.12.27.05.31-.18.26-.37.53-.55.81-.3.25-.31-.14-.58-.06.04.51-.45.33-.68.76.4-.18.65,0,.56.33l.44-.55c.79.48-.8.89.05,1.37l-.44-.09c.33.27.47,1.32,1.54,1.22-.1.12-.37.34-.52.23.13.43.56.77.97,1.05.41.29.75.57.67,1.02l-.28.11c.16.09.61-.07.48.26-.11.06-.28.12-.25.19.14.01.68.04.67.31l-.38.05c.1.46.46.6.86.67.42.05.87.02,1.17.2-.65.58-.42,1.29-.26,1.62l-.1.08c.68.78,1.75.62,2.67.84-.06.55.27.93.7,1.23.43.31.9.62,1.21,1.04-.05-.2.33-.6.51-.61.11.25.78-.3.41.42l-.06-.05c-.19.78.31.81.63.93l.44-.96c.13.86.75.96,1.3.95.56-.02,1.05-.08,1.14.65.27-.2.53-.15.79-.38l-.11.56c.57.23.87.38,1.64.3l-.19.39c.44.06.66-1.6,1.02-1.61l.08.85c.7.05,1.5.71,2.16-.08,0,.12,0,.37-.12.41.34.03,1.42.41,1.13-.72.12.74.76-.03,1.06-.43l.06.56c.17-.78.13-.97.51-1.27.12.04.2.41.03.31.41.19.13-.58.61-.4l-.05.38c.36-.05.28-.22.34-.68.14-.29.67-.09.9.36-.06-.31-.02-.76.22-.69.1.17.07.3.05.37.73.15.55-.95,1.15-.62.09.16.15.23.21.27-.44.2-.81.34-.79.28.2.47.61.38.6,1.17.16-.5.28-1.5.73-1.45.04.04.08.07.13.13v.07c.1,0,.15-.07.17-.18.15.01.25.02.35-.03.25.35.52-.04.7-.13-.31-.47-.04-.53-.49-.8.05.02,0,.08-.09.16-.02.03-.04.05-.04.09v-.05c-.11.08-.25.18-.41.28,0-.33,0-.61.34-.46-.1-.36-.2-.73-.25-.91.63.54,1.3.62,1.63.96.3-.63,1.06-1.02.62-2.08.03-.21.34.1.49.18,0,.14-.1.21-.04.36.07-.43.67-.75.21-1.33.53-.04.31.65.63.16l.11.22c.81-.01.8-.7.79-1.33-.03-.65-.09-1.24.91-1.3-.13.02-.19.03-.3-.03.67-.39.93-1.11,1.17-1.8.22-.7.48-1.34,1.19-1.83.34-.31-.09-.51-.35-.84l.6.1c-.18-.2-.37-.4-.56-.6-.17-.34.24-.48.62-.68.38-.19.7-.44.27-.9l-.42.02c.12-.25-.11-.85.34-.75-.07-.04-.41-.14-.18-.21l.31.03c-.14-.24-.3-.47-.48-.69.25-.48,1.25.18,1.35-.59-.11-.3-.88-.82-1.1-.71-.02.11-.21.28-.53.28l-.15-.24c-.93-.06-1.87-.19-2.55.29l.55.37-.46.09v-.29c-.45.14-.08.26.18.4-.24.01-.41.05-.5.11.29.13.58.27.87.42-.37,0-.7-.22-.93-.02.39.2.84-.07,1.06.23-.45.12-.78.02-.45.26-.24,0-.39-.07-.48-.16.26.21.05.46.53.63-.53.08.04.61-.83.41.19.09.6.44.59.61-.95-.54-.21.56-1.27.17.87.48.15.82.53,1.36-.06-.05-.19-.14-.13-.16-.15.17-.43.12-.64.17.71.33.73.7,1.08,1.08-.8-.08-.76-.54-1.46-.77.58.25.38.67.89.83-.51-.03-.28.06-.9-.15.85.49.08.24.51.67-.57.01-.84-.39-.74.02-.33-.03-.49-.44-.49-.44ZM1218.92,624.93s0,0,0,0c.06-.04.1-.08.13-.1-.03.02-.06.05-.13.11ZM1218.33,625.23c.08-.02.17-.06.27-.11.11.16.17.36.1.38-.02-.13-.22-.16-.37-.27ZM1221.55,627.94c-.08.14-.17.07-.24-.02.05-.04.1-.1.17-.18,0-.02-.01-.04-.02-.07.04.1.08.19.1.27Z"/>
        <path class="cls-5" d="M1221.37,627.18s0-.05.02-.06c-.05-.03-.09-.05-.13-.07.02.06.04.12.05.17l.05-.04Z"/>
        <path class="cls-5" d="M1222.05,599.27v-.02s-.01.05-.03.09c0-.03.02-.04.03-.07Z"/>
        <polygon class="cls-5" points="1209.59 625.09 1209.56 625.23 1209.64 625.12 1209.59 625.09"/>
        <path class="cls-5" d="M1223.67,603.4s-.07.08-.08.13c.03-.03.05-.07.08-.13Z"/>
        <path class="cls-5" d="M1224.51,604.79l-.05.3c.05-.14.05-.23.05-.3Z"/>
        <path class="cls-5" d="M1224.89,605.99c.09-.03.16-.06.22-.09h0s-.23.09-.23.09Z"/>
        <path class="cls-5" d="M1208.61,599.74s-.03.02-.04.04c-.07.13-.01.07.04-.04Z"/>
        <path class="cls-5" d="M1214.19,597.95c-.07.09-.15.18-.22.23.1.06.18.08.22-.23Z"/>
        <path class="cls-5" d="M1203.83,603.29h0s-.02,0-.03.02l.03-.02Z"/>
        <path class="cls-5" d="M1213.7,598.16c.1.12.18.1.27.02-.08-.04-.18-.1-.27-.02Z"/>
        <path class="cls-5" d="M1226.17,611.03v.06s.05,0,.08,0l-.08-.06Z"/>
        <path class="cls-5" d="M1226.24,611.09l.07.06s0-.06-.07-.06Z"/>
        <path class="cls-5" d="M1226.46,611.27l-.15-.12s-.01.11.15.12Z"/>
        <path class="cls-5" d="M1226.15,609.42l-.2.03s.11,0,.2-.03Z"/>
        <path class="cls-5" d="M1225.98,608.96c-.02.13-.35.38-.19.51l.16-.02c-.31,0,.39-.46.02-.49Z"/>
        <path class="cls-5" d="M1227.65,606.04c.01.17.01.34.02.51.17-.16.4-.37.53-.18.38-.83-.4.3-.55-.33Z"/>
        <path class="cls-5" d="M1227.28,604.55c.2.19.28-.15.39-.2-.26-.06-.32-.06-.39.2Z"/>
        <path class="cls-5" d="M1219.34,597.18l.23-.46c-.22-.02-.08.18-.23.46Z"/>
        <path class="cls-5" d="M1216.6,598.97l.06.35.22-.42c-.09.02-.19.04-.28.07Z"/>
        <polygon class="cls-5" points="1216.38 595.15 1216.49 595.1 1216.1 595.2 1216.38 595.15"/>
        <path class="cls-5" d="M1198.9,601.33l.53.35c0-.17-.52-.66-.53-.35Z"/>
        <path class="cls-5" d="M1195.92,608.95c-.34.02-.57.21-.29.41.07-.18.34-.3.29-.41Z"/>
        <polygon class="cls-5" points="1206.28 629.36 1206.04 629.5 1206.41 629.45 1206.28 629.36"/>
      </g>
    </g>
    <g>
      <circle class="cls-4" cx="618.57" cy="880.18" r="7.94"/>
      <g>
        <path class="cls-5" d="M625.17,880.18c.17.03.56,0,.48-.05l-.66-.04.18.09Z"/>
        <path class="cls-5" d="M626.38,879.7c-.32-.07-.89-.11-1.49-.01.64.02.37.06,1.13.1.08.07-.21.13-.45.12.17.02-.14.1.28.13.51-.1.52-.23.09-.32.14-.03.32-.02.44-.02Z"/>
        <path class="cls-5" d="M623.7,872.96v.09s0-.07,0-.09Z"/>
        <path class="cls-5" d="M619.18,870.98s.06-.08.07-.14c-.04.04-.07.08-.07.14Z"/>
        <path class="cls-5" d="M618.29,870.23s.04.03.06.04c-.02-.06-.04-.09-.06-.04Z"/>
        <path class="cls-5" d="M623.7,872.96v-.25c-.12.17-.02.17,0,.25Z"/>
        <path class="cls-5" d="M624.69,879.04s.1.02.18.02c-.03-.01-.06-.02-.08-.03-.04,0-.07.01-.1.02Z"/>
        <path class="cls-5" d="M625.7,874.06l.03.03c.06-.04.14-.09.23-.15l-.26.12Z"/>
        <path class="cls-5" d="M626.8,875.44s-.49.22-.71.34c.21-.1.32-.13.38-.12.09-.05.2-.12.34-.21Z"/>
        <path class="cls-5" d="M626.86,878.27l.09.03s-.05-.02-.09-.03Z"/>
        <path class="cls-5" d="M624.9,873.08c.05-.06.1-.12.12-.16-.05.05-.09.11-.12.16Z"/>
        <path class="cls-5" d="M623.74,881.32s.06.01.1.02c-.05-.02-.09-.03-.1-.02Z"/>
        <polygon class="cls-5" points="626.65 880.18 626.68 880.2 626.99 880.21 626.65 880.18"/>
        <path class="cls-5" d="M616.45,869.72s0,0,.01,0c.04-.07.01-.06-.01,0Z"/>
        <path class="cls-5" d="M608.54,882.35c.45-.27.7.13,1.18-.23-.21.08-.92-.05-1.18.23Z"/>
        <path class="cls-5" d="M624.76,878.99s-.02-.03-.01-.05c-.01.03-.01.04.01.05Z"/>
        <path class="cls-5" d="M609.72,882.11h0s.05-.04.05-.04c-.02.01-.03.02-.05.04Z"/>
        <path class="cls-5" d="M612.75,871.64c.06.08.12.13.17.18-.03-.05-.08-.1-.17-.18Z"/>
        <path class="cls-5" d="M615.73,871.07l-.09-.05s.07.05.09.05Z"/>
        <path class="cls-5" d="M612.06,873.21c-.06,0-.12-.05-.11.04.02.02.04.03.06.04-.04-.07-.05-.11.05-.08Z"/>
        <path class="cls-5" d="M611.03,874.34s.07.03.11.05v-.06s-.11,0-.11,0Z"/>
        <path class="cls-5" d="M622.81,883.77c.13.09.28.19.42.29-.32-.25-.34-.43-.42-.29Z"/>
        <path class="cls-5" d="M625,878.98c-.14.02-.21.02-.24.01,0,.01.02.02.03.03.08-.01.16-.03.21-.04Z"/>
        <path class="cls-5" d="M615.06,876.47l-.16.03c.07.01.12,0,.16-.03Z"/>
        <path class="cls-5" d="M617.01,885.6l.05-.06s-.02,0-.05.06Z"/>
        <path class="cls-5" d="M614.7,876.85c-.17-.11-.27-.17-.35-.2.03.03.06.06.1.1l.25.09Z"/>
        <path class="cls-5" d="M623.24,884.07h0s0,0,0,0Z"/>
        <path class="cls-5" d="M622.66,882.56c-.07.09.59.42.94.66.09.26-.5-.22-.85-.38.12.18.64.63.57.67-.1-.07-.15-.08-.26-.18.41.43-.16.27.33.84-.06-.03-.11-.07-.15-.1.3.22.59.46.79.63-.04.06.26.41-.13.12.04-.03-.1-.16-.2-.27l.11.19c-.57-.41-.11-.24-.5-.57.08.24.39.76.16.72-.5-.46,0-.35-.53-.65l.3.06c-.88-.62.12-.02-.81-.7-.27,0,.12.39-.16.38.23.3.4.39.63.69.22.72-1.31-1.12-.86-.3.25.38.76,1.06.35.81l-.43-.64c-.19.05.57.95.1.66-.14-.27-.02-.3-.1-.36-.46-.42.18.41.09.48l-.4-.55c-.11.18-.04.74-.21.96-.08-.19-.14-.39-.29-.55-.05.21-.2.26-.38.22-.19-.06-.39-.2-.57-.35l.09.59s-.12-.24-.13-.36c-.16-.19.1.36.12.59-.05.05-.17-.3-.19-.48-.02.52-.3,1.19-.62.59v-.18c-.17-.21,0,1.22-.23.7l.02-.11c-.37-.23-.8.33-1.02-.58-.11.84-.29-.39-.45.77-.13-.61-.05-.81-.23-1.24-.05-.06-.25.7-.37.8l.14-.6-.27.6.12-.73-.12.13s0,.28-.06.45c-.22.24-.2-.5-.09-.8-.14.13-.3.26-.46.39.1-.23.18-.29.27-.43-.37.53.21-.61-.13-.12-.03.14-.15.34-.2.45.07-.37-.06-.45-.24-.36l.21-.37c-.14-.17-.48-.03-.68-.16-.04.21-.44.82-.56.84l.33-.56c-.27.31-.06.25-.43.6-.05-.13.37-.65.52-.8l-.22.12c.11-.16.19-.23.33-.43-.27.3.25-.63-.22-.11l.11-.16c-.18-.13-.39-.05-.56-.15-.39.41-.36.26-.73.54.01-.25.23-.68.07-.77-.3.08-.39.27-.69.44.39-.33.24-.45.59-.6-.19-.13-.26-.14-.75-.17-.16.14-.22.22-.37.3-.1,0,.11-.23.33-.35l.05-.02c-.41.06-.21-.31.03-.62.23-.31.43-.54-.1-.46h.05c-.2-.02-.4-.03-.61-.06.04-.15.39-.06.66-.25-.92,0,0-.44-.61-.51.71-.25.68-.37.56-.51-.13-.13-.3-.29.18-.43l-.35.04c-.35-.04.2-.08.28-.13-.28.02-.32.08-.51.05-.24-.25-.08-.54.15-.78.27-.24.59-.43.82-.6.13-.12-1.75-.57-.88-.58l.62.26c-.33-.29-.24-.47-.16-.65.11-.17.21-.31,0-.65.12.09.29.19.28.22.46.16.17-.22-.17-.44.07-.03.31.17.5.25.28.09-.42-.5,0-.27.07.04.11.1.14.14-.16-.17.19-.15-.29-.43.3.05-.03-.38.3-.26-.42-.46.39.02-.24-.59.66.62.68.32.47-.05.17.22.25.15.49.45.06-.07.02-.26-.3-.6.82.7-.23-.94.7.1-.06-.58.05-1.01.22-1.35.41.79-.25.24.24,1.06,0-.46-.16-1.2.19-1.14.11.08.12.38.16.53.11-.45.5-.11.58-.65.02.08.02.18.02.25.04-.04.14.1.03-.29l-.02.12c-.26-.55-.13-1.25-.19-1.56.2,1.16.35.21.55,1.7.01-.08,0-.28-.06-.55.07.07.11.22.13.54.12-.26-.02-.67.15-.69.03.2.01.28.04.51,0-.39.04-.79.21-.65,0,.12.04.27,0,.28.21-.11.34-1.06.66-.71-.06.87.1.28.13,1.02.04-.08.09-.15.14-.22l-.05-.37c.12.02.26-.52.37-.27l-.11.3.25-.13-.12-.29c.17-.38.04-.94.23-.73-.05.08.16.01.18.47h0c.1-.22.21-.46.29-.26,0,.24-.14.81-.15.97.16-.6.33-.13.55-.76-.06.15-.14.53-.15.61l.16-.48c.03.18.02.25-.06.56.16.14.16-.94.29-.48-.03.04-.04.11-.09.18.16.26.53-.2.66.12-.19.73-.23.11-.37.74.29-.04.89-.64,1.09-.33v-.1c.49-.93-.04.56.31.19-.07.05-.32.49-.26.39.08.25.46-.03.91-.13l-.18.2c-.04.27.16.3.19.47.2-.19.23-.11.44-.45-.32.72-.08.68.23.63.3-.06.64-.1.28.47-.03-.03-.24.09-.22.12l.38.05c.33-.32.19-.21.41-.5.23-.15.46-.22.52-.16-.34.09-.56.48-.73.68.1-.1.24-.18.35-.27-.54.65.74-.56.45-.02l-.2.14c.15,0,.46-.13.46,0-.41.34-.26.07-.62.32.09.08.99-.37.61.03-.15.03-.2-.03-.35,0-.44.45-.32.38-.35.5h0s-.14.3-.14.3l.12-.13c1.27-.58.39.12,1.28-.11-.86.2-.46.2-1,.46-.13.12-.26.27-.43.33.48-.13-.29.29.42.1-.18.09.03.09-.43.27.19.04.3-.16.53-.25.7-.07-.61.68.35.62.42.11,1.06-.01,1.45.16-.28.15-.71.1-.71.1-.25.19-.17.26.07.34-.17,0-.31.06-.52.14.06.08.71-.07.44.11-.22.01-.57.04-.79.04.19.07.57.12.76.21-.33.07-.52,0-.75,0,.17.09.36.26.89.26l.19-.1s-.46.07-.56.05c-.44-.06.16-.17.35-.21l.14.07c1.12-.23-.24-.33-.19-.49l.83-.08-.71-.05c.2-.08.66-.2.79-.14.38-.22-.32-.05.1-.27.07-.03.11-.03.14-.03l-.27-.08c.18-.02.56-.16.47-.05.4-.38-.7-.23-.12-.5h.05c-.37-.24-.59.15-1.35.14.46-.21.91-.43,1.36-.66l-.59.18s.03-.12.26-.2c-.44.02-.24.11-.64.19.47-.37-.4-.31.46-.74-.45.14-.26.29-.63.27.93-.49-.25-.11.12-.45.5-.2.32.07.67-.3-.85.33.04-.38-.2-.42-.63.36-.42-.1-.74-.17.22-.13.09-.57.16-.91l.1-.07c-.61.41-.62.15-.85.13.34-.28.49-.37.7-.42l-.11-.12c-.2.12-.33.17-.46.15l.44-.33c-.18-.14-.75.12-.69-.32-.36.36-.86,1.14-1.28,1.22.19-.2.51-.55.64-.59-.04.01-.22.11-.17,0l.4-.27c.06-.23-.31.24-.35.15.27-.29.14-.25.36-.47.04-.01-.05.17.08.09-.03-.12.03-.39.19-.64-.14.17-.35.4-.45.38-.17-.12.26-.41.3-.65-.21.17-.14-.13-.52.33-.05-.04.12-.26.2-.4-.25.14-.46-.25-.73.33v.05s-.02,0-.03.01h0s0,0,0,0c-.59.27-.4-.66-.83-.63l.1-.17c-.28.09-.47-.09-.78.23-.05-.02.03-.39.15-.59-.21.07-.3.26-.39-.12.28-.26.06-.3.25-.18-.13-.23-.07-.55-.47-.12.25-.45.06-.66-.09-.55l.03.39c-.13.03-.21-.04-.29-.12l.25-.62c-.1-.46-.42-.18-.67.04-.26.22-.45.38-.49-.31-.2.44.18.36-.03.88-.17-.12-.22-1.09-.3-1.11-.25-.41-.4.92-.65.64.02.24-.02.87-.23,1.08-.17-.1-.17-1.01-.03-1.19.05-.02.07.06.06.14.07-.08.17-.18.11-.44l-.05.24c-.08-.25-.38-.24-.29-.62-.17.22-.08.39.03.51-.26-.35-.42-.04-.69-.25.05.13.09.41.05.41-.4-.28-.16.46-.41.57-.17-.35,0-.86-.25-.55-.19-.23-.1-.62-.04-.82-.22.46-.52-.24-.7-.3l.12-.21c-.07.13-.14.13-.22.14l.15.46c-.09-.07-.16-.06-.19-.26-.03.32.19.77.1,1.21-.14-.22-.25.3-.41-.31.37.15-.17-.62.1-.76-.04.08-.11.09-.21.02-.03-.07-.01-.13,0-.17-.45-.47,0,.73-.33.8-.04-.36-.24-.63-.28-.54.14-.03.21.56.17.85-.28-.21-.16.25-.27.25l.15.09c.06.35-.05.33-.14.48-.1-.26.06-.22-.03-.32.06.64-.54-.49-.61-.02-.18-.19-.25-.62-.4-.74-.07.51-.46-.33-.57.13.28.4.23.29.26.79l.26-.49c0,.25.02.5.03.75.11-.05.12-.39.22-.34.03.41,0,.29.21.63-.44-.58-.12.52-.49.16l-.52-1.06c-.54-.33-.22.79-.7.74l.22.11c.2.43-.17.18-.18.41-.21-.34-.35-.41-.54-.59.17.24-.26.16.17.82l-.45-.31c-.4.04.4,1.1.11,1.18-.21-.38-.5-.5-.55-.88-.08.07-.2.08-.02.28-.21-.14.15.58-.18.37.09.15.36.46.26.51-.06-.05-.14-.14-.14-.14.13.14.07.31.44.55-1.08-.63-.48.63-1.44.18-.03.26-.08.54-.17.71-.09-.08-.16-.11-.11-.12-.45.04.86.76.37.78-.63-.2-.21-.31-.47-.36-1.13-.63-.05.41-.8.23l-.04-.08c-.47-.05.26.59.06.78,0,0-.1-.06-.18-.08.51.43.62.82.71,1.09-.45-.24-.22-.19-.72-.32.03.13.79.25.86.49-.28-.03-.57.04-1.1-.1,0-.07.03-.14.04-.21-.72-.12-.07.28-.21.35l-.3-.1c0,.37.77.56.63.87l.24.02c.72.33-.46.07.08.35l-.79-.08c.17.16.68.54.81.76-.58-.17-.83-.47-1.15-.7-.03.13,0,.45.37.55-.07-.06-.25-.14-.12-.18.59.23.89.43.86.66-1.53-.12-.42.6-1.58.82.57.44-.18.96.01,1.53,1.14-.41.06.15,1.25-.11.09.1.09.14.02.17-.21.17-.42.34-.62.53-.32.18-.29-.05-.55.03-.02.31-.47.25-.73.53.41-.16.63-.07.51.14l.48-.39c.72.19-.88.65-.13.84h-.41c.28.13.28.79,1.27.56-.11.09-.39.28-.51.23.09.56,1.43.48,1.11,1.1l-.27.13c.12.03.55-.17.37.09-.11.07-.27.14-.26.18.12-.02.57-.1.5.09l-.33.12c-.01.65,1.1.09,1.5.21-.65.59-.61,1.08-.55,1.32l-.09.08c.37.5,1.23.14,1.83.14-.31.98.67.94.89,1.64,0-.18.33-.6.44-.65.03.21.55-.41.2.31l-.03-.03c-.25.76.08.69.26.77l.42-.97c-.05.8.34.8.67.73.34-.08.63-.19.62.52.18-.22.33-.2.49-.44l-.11.56c.32.19.5.31.95.21l-.13.4c.26.05.44-1.61.63-1.63l.03.85c.39.02.87.72,1.24-.06,0,.12.01.37-.06.41.19.03.86.48.62-.66.11.75.45.01.58-.36l.08.55c.04-.74,0-.93.18-1.18.07.06.16.42.05.3.26.23,0-.55.31-.32l.02.36c.21-.01.14-.19.11-.62.04-.25.38.01.59.47-.08-.3-.13-.72.03-.62.09.17.09.3.09.36.47.24.19-.79.62-.38.08.16.14.24.18.28-.25.11-.46.17-.46.12.2.47.45.45.57,1.18.03-.44-.06-1.33.24-1.21.03.04.06.08.11.14v.06c.08.02.1-.04.09-.14.1.04.17.07.23.04.23.36.35.06.46.02-.3-.47-.13-.47-.49-.8.04.02.02.07-.03.12,0,.02-.02.04,0,.07l-.02-.05c-.05.05-.13.11-.21.17-.06-.29-.12-.54.14-.34-.14-.34-.28-.68-.35-.85.53.6,1.01.79,1.32,1.16.09-.47.56-.66,0-1.6-.02-.16.27.16.41.26.03.12-.03.15.05.28-.04-.33.35-.46-.14-1.01.4.08.39.58.52.27l.13.19c.64.17.5-.37.33-.83-.16-.49-.35-.89.48-.73-.1-.01-.15-.02-.26-.08.49-.13.58-.57.66-.96.08-.41.19-.75.81-.94.28-.14-.16-.32-.46-.55l.59.14c-.2-.14-.4-.28-.61-.42-.43-.4,1.6-.19.71-.8l-.41-.02c.1-.13-.17-.47.29-.39-.07-.03-.41-.1-.19-.13l.31.03c-.16-.14-.33-.27-.51-.4.24-.25,1.25.14,1.33-.29-.11-.18-.9-.46-1.11-.4-.02.06-.2.15-.52.14l-.16-.13c-.93-.03-1.88-.08-2.54.12l.56.17-.45.02-.02-.12c-.43.05-.05.11.2.18-.24,0-.41,0-.5.03.29.07.59.14.88.23-.37-.02-.71-.14-.92-.06.4.11.82.02,1.07.17-.43.03-.77-.04-.43.09-.24-.02-.39-.06-.49-.11.27.11.09.2.57.33-.52-.02.09.29-.77.1.2.06.64.28.66.36-.99-.38-.12.24-1.2-.11.89.36.3.41.74.75-.07-.04-.2-.11-.15-.1-.1.06-.38-.03-.56-.05.72.31.82.52,1.22.8-.74-.22-.8-.46-1.48-.73.58.26.49.44.98.64-.46-.13-.24-.03-.83-.29.86.47.12.15.61.5-.49-.13-.81-.43-.62-.17-.29-.11-.53-.37-.53-.37ZM621.52,885.89s0,0,0,0c.02-.03.04-.05.05-.06,0,.01-.02.03-.05.07ZM621.25,886.03s.09-.01.13-.04c.09.17.17.35.14.36-.04-.12-.16-.19-.27-.32ZM623.8,889.1c-.03.11-.1.03-.17-.07.03-.03.05-.07.08-.13,0-.02-.02-.04-.03-.06.05.1.09.19.12.26Z"/>
        <path class="cls-5" d="M623.53,888.39s0-.04,0-.05c-.04-.03-.07-.06-.1-.09l.07.16.03-.03Z"/>
        <path class="cls-5" d="M623.7,873.07v-.02s-.01.04-.03.08c.01-.03.02-.04.03-.06Z"/>
        <polygon class="cls-5" points="617.36 885.41 617.33 885.54 617.38 885.43 617.36 885.41"/>
        <path class="cls-5" d="M623.87,875.86s-.07.07-.1.11c.03-.02.06-.06.1-.11Z"/>
        <path class="cls-5" d="M624.22,876.56l-.11.2c.07-.1.1-.16.11-.2Z"/>
        <path class="cls-5" d="M624.27,877.19c.09-.04.16-.07.22-.1h0s-.22.1-.22.1Z"/>
        <path class="cls-5" d="M616.88,874.65s-.01.01-.01.03c-.01.12,0,.07.01-.03Z"/>
        <path class="cls-5" d="M619.39,873.14c-.04.1-.08.19-.12.25.04.05.08.07.12-.25Z"/>
        <polygon class="cls-5" points="615.08 876.47 615.07 876.46 615.06 876.47 615.08 876.47"/>
        <path class="cls-5" d="M619.14,873.37c.04.11.08.09.13.02-.04-.04-.08-.1-.13-.02Z"/>
        <path class="cls-5" d="M624.72,879.52l-.02.03s.07,0,.09,0l-.07-.02Z"/>
        <path class="cls-5" d="M624.79,879.54l.07.02s0-.02-.07-.02Z"/>
        <path class="cls-5" d="M625,879.61l-.14-.05s-.02.05.14.05Z"/>
        <path class="cls-5" d="M624.85,878.76l-.2.04s.11-.02.2-.04Z"/>
        <path class="cls-5" d="M624.73,878.56c-.03.07-.39.23-.25.27l.16-.03c-.3.04.43-.27.09-.24Z"/>
        <path class="cls-5" d="M626.76,876.69l-.06.3c.19-.12.44-.29.53-.19.48-.56-.42.24-.47-.11Z"/>
        <path class="cls-5" d="M626.69,875.81c.15.08.28-.15.39-.2-.22,0-.27.02-.39.2Z"/>
        <path class="cls-5" d="M622.33,871.76l.22-.46c-.14.02-.08.18-.22.46Z"/>
        <path class="cls-5" d="M620.48,873.89l-.02.32.18-.43c-.05.03-.1.07-.16.11Z"/>
        <polygon class="cls-5" points="620.8 870.21 620.87 870.15 620.63 870.28 620.8 870.21"/>
        <path class="cls-5" d="M610.81,873.81l.51.37c-.04-.13-.57-.6-.51-.37Z"/>
        <path class="cls-5" d="M609.38,878.21c-.32-.02-.54.07-.25.21.06-.09.31-.14.25-.21Z"/>
        <polygon class="cls-5" points="614.96 889.95 614.79 890.11 615.03 890.01 614.96 889.95"/>
      </g>
    </g>
    <g>
      <circle class="cls-6" cx="1265.5" cy="540.5" r="15.5"/>
      <g>
        <path class="cls-5" d="M1279.67,540.5c.17.05.56.02.48-.11l-.67-.09.19.2Z"/>
        <path class="cls-5" d="M1280.85,539.56c-.33-.15-.9-.28-1.5-.13.64.1.38.16,1.14.28.08.13-.2.25-.44.23.17.04-.14.21.28.27.5-.19.51-.43.08-.64.14-.06.32-.02.44-.02Z"/>
        <path class="cls-5" d="M1275.02,527.13l.03.12c0-.05,0-.09-.03-.12Z"/>
        <path class="cls-5" d="M1266.61,523.76c.07-.01.11-.08.11-.14-.07.04-.13.08-.11.14Z"/>
        <path class="cls-5" d="M1265.01,523s.07.03.1.04c-.04-.06-.08-.09-.1-.04Z"/>
        <path class="cls-5" d="M1275.02,527.13l-.08-.32c-.14.17,0,.21.08.32Z"/>
        <path class="cls-5" d="M1279.06,537.97s.1.06.19.08c-.03-.03-.06-.06-.08-.09-.04,0-.07,0-.1.01Z"/>
        <path class="cls-5" d="M1278.37,529.46l.05.06c.07-.03.16-.08.25-.13l-.3.07Z"/>
        <path class="cls-5" d="M1280.28,531.99c-.02-.07-.51.19-.74.29.22-.08.34-.09.41-.06.09-.05.2-.12.33-.23Z"/>
        <path class="cls-5" d="M1281.16,536.9l.1.06s-.06-.05-.1-.06Z"/>
        <path class="cls-5" d="M1276.86,527.76c.05-.07.09-.13.11-.17-.05.05-.08.11-.11.17Z"/>
        <path class="cls-5" d="M1278.05,543.26s.06.01.1.02c-.05-.03-.09-.04-.1-.02Z"/>
        <polygon class="cls-5" points="1281.15 540.5 1281.17 540.55 1281.49 540.56 1281.15 540.5"/>
        <path class="cls-5" d="M1261.87,522.62s0,0,.02,0c.07-.08.03-.06-.02,0Z"/>
        <path class="cls-5" d="M1248.08,544.27c.42-.4.75.35,1.18-.22-.2.09-.96-.23-1.18.22Z"/>
        <path class="cls-5" d="M1279.12,537.89s-.02-.07-.02-.1c-.01.05,0,.08.02.1Z"/>
        <path class="cls-5" d="M1249.27,544.05h0s.04-.06.04-.06c-.02.02-.03.04-.05.06Z"/>
        <path class="cls-5" d="M1255.42,525.71c.07.07.13.12.2.16-.03-.05-.09-.1-.2-.16Z"/>
        <path class="cls-5" d="M1260.42,524.17l-.14-.03c.06.03.11.03.14.03Z"/>
        <path class="cls-5" d="M1253.83,528.01c-.08.01-.15-.03-.17.09.03.01.05.02.07.03-.03-.08-.02-.13.1-.12Z"/>
        <path class="cls-5" d="M1251.99,530.03s.08.02.12.03l.03-.09-.15.06Z"/>
        <path class="cls-5" d="M1275.51,548.98c.15.07.31.16.45.25-.33-.23-.23-.55-.45-.25Z"/>
        <path class="cls-5" d="M1279.37,537.91c-.14.01-.21,0-.25-.02.01.02.02.05.04.07.08,0,.16-.02.21-.05Z"/>
        <path class="cls-5" d="M1256.8,531.31l-.3.16c.11-.02.21-.08.3-.16Z"/>
        <path class="cls-5" d="M1261.85,553.19l.09-.05s-.06-.01-.09.05Z"/>
        <path class="cls-5" d="M1255.91,532.23c-.19-.09-.32-.12-.42-.12.02.04.04.07.09.12h.34Z"/>
        <path class="cls-5" d="M1275.97,549.24h0s0,0,0,0Z"/>
        <path class="cls-5" d="M1276.12,546.69c-.17.25.55.49.88.77-.02.44-.55-.13-.94-.23.06.3.52.83.38.96-.11-.06-.16-.06-.26-.18.32.55-.42.61-.03,1.31-.07-.02-.12-.06-.17-.09.32.2.61.43.81.61-.1.12.15.52-.25.25.08-.06-.07-.2-.15-.33l.05.26c-.62-.35-.03-.32-.42-.65-.03.37.14,1.03-.17,1.08-.52-.44.21-.57-.44-.75l.43-.09c-.98-.51.2-.11-.82-.69-.45.18-.07.62-.54.79.19.34.42.38.6.72-.06.97-1.53-.92-1.28.08.2.42.69,1.12.12.98l-.38-.68c-.39.2.45,1.04-.23.91-.1-.3.14-.42.03-.45-.59-.31.08.48-.11.63l-.42-.54c-.34.31-.52,1.05-.96,1.4-.06-.19-.08-.42-.29-.55-.22.29-.55.43-.91.48-.37.01-.77-.06-1.12-.15l-.04.64c-.06.01-.18-.23-.15-.35-.3-.15.1.36.05.61-.13.07-.28-.28-.24-.47-.26.58-.99,1.37-1.57.79l.06-.19c-.38-.18-.25,1.25-.66.77l.06-.11c-.81-.19-1.73.39-2.3-.56-.18.84-.73-.41-.91.73-.38-.65-.23-.84-.76-1.32-.15-.07-.39.67-.62.74l.13-.6-.43.56.04-.75-.23.11c.06.05.09.31.03.48-.39.2-.61-.61-.5-.92l-.84.25c.11-.23.25-.26.39-.38-.58.46.17-.63-.36-.21,0,.14-.16.33-.22.44-.03-.4-.36-.59-.69-.56l.24-.36c-.42-.29-1.04-.33-1.54-.64.07.27-.36.87-.56.83l.3-.58c-.32.28.03.3-.45.59-.15-.2.3-.7.51-.8l-.34.02c.1-.17.21-.21.36-.41-.33.26.03-.79-.51-.32l.11-.16c-.46-.32-.76-.37-1.15-.65-.39.4-.45.19-.88.41-.12-.41-.06-1-.38-1.27-.41-.05-.42.24-.77.34.38-.34.09-.66.51-.7-.36-.37-.5-.43-1.18-.78-.14.17-.17.3-.34.35-.14-.06.03-.36.25-.47h.06c-.52-.12-.45-.69-.31-1.21.14-.52.22-.94-.36-1.02h.06s-.73-.37-.73-.37c-.01-.29.42.03.65-.27-.52-.16-.57-.43-.56-.68,0-.26.05-.49-.3-.69.67-.36.62-.7.46-1.05-.17-.35-.36-.74.12-1.04l-.35.05c-.36-.12.19-.18.27-.29-.28.03-.31.17-.51.09-.28-.6-.08-1.26.17-1.86.14-.3.34-.59.5-.87.16-.28.33-.55.5-.81.2-.38-1.72-.72-.76-1.05l.59.35c-.26-.54-.06-.98.11-1.41.22-.41.44-.8.35-1.37.11.12.28.21.24.29.51.07.38-.57.04-.79.11-.1.32.16.53.19.33,0-.28-.74.18-.56.08.03.1.13.11.18-.12-.23.39-.41-.13-.65.42-.11.19-.68.62-.68-.35-.54.61-.23,0-.86.66.63.91.06.8-.38.14.25.33.08.53.41.17-.17.22-.44-.12-.76,1.01.51.18-1.26,1.22-.32.13-.42.31-.79.53-1.1.21-.31.42-.65.7-.87.39.79-.61.44-.11,1.25.31-.66.34-1.46,1.01-1.56.2.04.07.4.09.56.43-.6,1.14-.37,1.53-1,.02.08-.01.18-.05.26.1-.06.29.07.16-.33l-.08.13c-.35-.52.11-1.31.06-1.62.1,1.19.65.14.69,1.66.05-.09.1-.31.02-.57.13.05.19.2.15.53.33-.32.12-.7.49-.75.03.2-.03.28-.02.52.11-.41.25-.82.58-.7,0,.12.05.27-.04.28.5-.16.84-1.11,1.48-.78-.15.87.21.27.25,1.02.1-.08.21-.15.31-.22l-.12-.37c.28.03.55-.5.79-.25l-.23.3.54-.12-.28-.3c.32-.37.03-.94.42-.72-.09.07.31.02.41.49h0c.17-.21.36-.44.55-.22.02.24-.17.81-.16.97.23-.59.69-.08,1-.69-.09.14-.17.52-.17.6l.22-.47c.1.19.1.27,0,.57.37.19.09-.95.47-.44-.05.03-.05.11-.14.16.41.32,1.01-.09,1.35.32-.13.75-.42.04-.48.69.6.07,1.54-.4,2.03.06l-.07-.12c.55-.91.19.66.69.36-.1.03-.37.47-.29.37.27.37.85.2,1.59.28l-.22.18c.06.35.44.51.58.76.23-.17.33-.04.5-.41-.14.85.24.96.7,1.04.46.07.92.18.69.89-.06-.06-.31,0-.27.06l.6.29c.32-.34.16-.24.34-.58.26-.12.55-.12.66,0-.44-.02-.56.48-.69.74.1-.11.24-.17.35-.27-.44.78.76-.53.61.19l-.21.13c.2.06.56,0,.62.2-.39.37-.32,0-.68.24.17.18,1.15-.16.83.35-.18-.02-.27-.15-.46-.16-.36.56-.24.5-.22.71v-.02s-.02.51-.02.51l.09-.18c1.35-.44.58.41,1.56.38-.95,0-.47.17-1.03.42-.1.18-.2.41-.37.44.52-.04-.21.45.56.4-.17.09.07.2-.39.35.25.16.29-.19.52-.27.8.12-.43,1.15.64,1.37.5.37,1.14.29,1.59.7-.26.23-.72.03-.72.03-.22.32-.1.49.15.69-.17-.02-.31.06-.51.18.08.18.72,0,.47.31-.22,0-.57,0-.8-.06.21.18.6.35.81.57-.33.1-.53-.07-.76-.12.19.23.41.62.94.66l.18-.19c.03.1-.45.1-.56.04-.45-.18.14-.34.33-.38l.15.16c1.11-.32-.29-.68-.27-1.01h.84s-.73-.24-.73-.24c.2-.12.64-.27.8-.11.35-.34-.34-.16.05-.48.06-.04.11-.04.14-.02l-.31-.2c.18,0,.56-.18.48,0,.34-.59-.79-.58-.23-.92l.06.02c-.46-.54-.6.11-1.43-.11.44-.26.88-.52,1.31-.8l-.6.15c0-.07,0-.21.23-.27-.48-.09-.23.13-.65.14.42-.51-.56-.7.29-1.16-.47.09-.19.42-.63.25.91-.53-.33-.28-.03-.75.52-.17.39.23.69-.27-.89.25-.08-.63-.38-.77-.64.35-.55-.32-.97-.56.24-.12-.13-.88-.17-1.36l.1-.06c-.64.39-.75-.04-1.07-.16.34-.27.51-.35.77-.35-.06-.08-.13-.14-.2-.22-.23.1-.38.12-.57.04l.46-.31c-.3-.27-.98-.14-1.07-.74-.37.36-.73,1.26-1.32,1.19.18-.21.49-.57.67-.56-.06,0-.27.06-.25-.08l.47-.2c-.02-.29-.35.2-.45.06.27-.29.1-.29.33-.51.06,0,0,.22.16.16-.1-.18-.12-.52.02-.8-.14.18-.35.4-.5.34-.3-.23.21-.45.18-.75-.24.14-.26-.23-.64.23-.09-.07.07-.3.13-.45-.32.08-.79-.5-.98.14l.02.06s-.02,0-.04,0h0s0,0,0,0c-.81.09-.91-.99-1.59-1.12l.1-.17c-.43,0-.82-.26-1.24,0-.1-.05-.08-.44.06-.63-.33.01-.43.18-.7-.25.41-.22.02-.32.38-.13-.29-.29-.27-.62-.85-.26.31-.43-.06-.7-.29-.62l.14.44c-.22,0-.37-.1-.53-.21l.29-.6c-.27-.51-.75-.26-1.14-.08-.4.19-.72.3-.9-.4-.3.42.37.39.07.89-.33-.14-.55-1.14-.68-1.16-.47-.44-.6.88-1.09.58.05.24.04.87-.34,1.08-.33-.1-.37-1.02-.13-1.19.09-.02.13.06.12.14.12-.08.29-.17.16-.44l-.07.23c-.16-.25-.68-.25-.54-.64-.3.21-.13.38.07.52-.46-.36-.74-.07-1.23-.26.08.13.16.4.08.4-.72-.26-.3.47-.76.59-.29-.35.04-.87-.42-.54-.32-.23-.12-.62-.01-.82-.41.46-.89-.19-1.18-.24l.22-.23c-.13.14-.25.15-.38.17l.21.45c-.15-.06-.27-.04-.3-.24-.09.33.23.76.03,1.23-.22-.21-.49.33-.68-.26.62.1-.19-.61.29-.8-.08.09-.2.1-.36.05-.04-.06,0-.13.03-.17-.69-.42-.11.76-.68.89-.01-.36-.3-.62-.38-.52.24-.05.26.55.12.86-.43-.17-.33.3-.52.32l.25.07c.03.36-.16.36-.35.55-.11-.26.15-.26.03-.34-.06.68-.8-.39-1.04.14-.26-.16-.26-.62-.48-.71-.25.58-.65-.25-.95.3.33.37.29.26.2.82l.56-.64-.16.85c.21-.09.31-.49.47-.46-.07.44-.08.33.17.65-.56-.52-.37.64-.88.35l-.51-1.06c-.77-.23-.6.99-1.35,1.1l.3.06c.16.45-.34.28-.43.56-.2-.34-.4-.39-.62-.54.18.23-.45.3-.04.98l-.56-.23c-.6.19.16,1.26-.3,1.52-.16-.43-.53-.48-.45-.96-.14.12-.31.18-.14.39-.25-.11-.02.74-.4.57.06.18.33.49.16.6-.07-.04-.14-.14-.14-.14.13.14-.03.41.4.59-.62-.24-.87.07-1.08.38-.23.3-.4.62-.96.5-.13.4-.32.85-.5,1.16-.09-.09-.16-.11-.09-.15-.57.23.79.88.17,1.12-.69-.09-.14-.43-.44-.4-1.15-.6-.21.66-1.04.64l-.03-.12c-.53.07.12.88-.17,1.26,0,0-.09-.07-.18-.08.44.56.46,1.21.48,1.67-.43-.3-.18-.28-.7-.37,0,.21.8.23.8.64-.3.03-.64.22-1.17.1.02-.13.07-.25.1-.38-.76-.03-.14.49-.3.65l-.29-.11c-.06.62.7.82.5,1.41h.25c.69.46-.48.18.03.62l-.79-.03c.16.27.62.9.74,1.3-.57-.28-.78-.79-1.08-1.14-.04.23-.06.79.31.95-.06-.1-.24-.24-.1-.31.56.35.86.72.82,1.15-1.53-.15-.46,1.13-1.59,1.49.31.41.26.81.18,1.25-.06.44-.17.92-.04,1.4,1.12-.55.08.28,1.27-.02.11.2.12.27.05.31-.18.26-.37.53-.55.81-.3.25-.31-.14-.58-.06.04.51-.45.33-.68.76.4-.18.65,0,.56.33l.44-.55c.79.48-.8.89.05,1.37l-.44-.09c.33.27.47,1.32,1.54,1.22-.1.12-.37.34-.52.23.13.43.56.77.97,1.05.41.29.75.57.67,1.02l-.28.11c.16.09.61-.07.48.26-.11.06-.28.12-.25.19.14.01.68.04.67.31l-.38.05c.1.46.46.6.86.67.42.05.87.02,1.17.2-.65.58-.42,1.29-.26,1.62l-.1.08c.68.78,1.75.62,2.67.84-.06.55.27.93.7,1.23.43.31.9.62,1.21,1.04-.05-.2.33-.6.51-.61.11.25.78-.3.41.42l-.06-.05c-.19.78.31.81.63.93l.44-.96c.13.86.75.96,1.3.95.56-.02,1.05-.08,1.14.65.27-.2.53-.15.79-.38l-.11.56c.57.23.87.38,1.64.3l-.19.39c.44.06.66-1.6,1.02-1.61l.08.85c.7.05,1.5.71,2.16-.08,0,.12,0,.37-.12.41.34.03,1.42.41,1.13-.72.12.74.76-.03,1.06-.43l.06.56c.17-.78.13-.97.51-1.27.12.04.2.41.03.31.41.19.13-.58.61-.4l-.05.38c.36-.05.28-.22.34-.68.14-.29.67-.09.9.36-.06-.31-.02-.76.22-.69.1.17.07.3.05.37.73.15.55-.95,1.15-.62.09.16.15.23.21.27-.44.2-.81.34-.79.28.2.47.61.38.6,1.17.16-.5.28-1.5.73-1.45.04.04.08.07.13.13v.07c.1,0,.15-.07.17-.18.15.01.25.02.35-.03.25.35.52-.04.7-.13-.31-.47-.04-.53-.49-.8.05.02,0,.08-.09.16-.02.03-.04.05-.04.09v-.05c-.11.08-.25.18-.41.28,0-.33,0-.61.34-.46-.1-.36-.2-.73-.25-.91.63.54,1.3.62,1.63.96.3-.63,1.06-1.02.62-2.08.03-.21.34.1.49.18,0,.14-.1.21-.04.36.07-.43.67-.75.21-1.33.53-.04.31.65.63.16l.11.22c.81-.01.8-.7.79-1.33-.03-.65-.09-1.24.91-1.3-.13.02-.19.03-.3-.03.67-.39.93-1.11,1.17-1.8.22-.7.48-1.34,1.19-1.83.34-.31-.09-.51-.35-.84l.6.1c-.18-.2-.37-.4-.56-.6-.17-.34.24-.48.62-.68.38-.19.7-.44.27-.9l-.42.02c.12-.25-.11-.85.34-.75-.07-.04-.41-.14-.18-.21l.31.03c-.14-.24-.3-.47-.48-.69.25-.48,1.25.18,1.35-.59-.11-.3-.88-.82-1.1-.71-.02.11-.21.28-.53.28l-.15-.24c-.93-.06-1.87-.19-2.55.29l.55.37-.46.09v-.29c-.45.14-.08.26.18.4-.24.01-.41.05-.5.11.29.13.58.27.87.42-.37,0-.7-.22-.93-.02.39.2.84-.07,1.06.23-.45.12-.78.02-.45.26-.24,0-.39-.07-.48-.16.26.21.05.46.53.63-.53.08.04.61-.83.41.19.09.6.44.59.61-.95-.54-.21.56-1.27.17.87.48.15.82.53,1.36-.06-.05-.19-.14-.13-.16-.15.17-.43.12-.64.17.71.33.73.7,1.08,1.08-.8-.08-.76-.54-1.46-.77.58.25.38.67.89.83-.51-.03-.28.06-.9-.15.85.49.08.24.51.67-.57.01-.84-.39-.74.02-.33-.03-.49-.44-.49-.44ZM1271.92,552.93s0,0,0,0c.06-.04.1-.08.13-.1-.03.02-.06.05-.13.11ZM1271.33,553.23c.08-.02.17-.06.27-.11.11.16.17.36.1.38-.02-.13-.22-.16-.37-.27ZM1274.55,555.94c-.08.14-.17.07-.24-.02.05-.04.1-.1.17-.18,0-.02-.01-.04-.02-.07.04.1.08.19.1.27Z"/>
        <path class="cls-5" d="M1274.37,555.18s0-.05.02-.06c-.05-.03-.09-.05-.13-.07.02.06.04.12.05.17l.05-.04Z"/>
        <path class="cls-5" d="M1275.05,527.27v-.02s-.01.05-.03.09c0-.03.02-.04.03-.07Z"/>
        <polygon class="cls-5" points="1262.59 553.09 1262.56 553.23 1262.64 553.12 1262.59 553.09"/>
        <path class="cls-5" d="M1276.67,531.4s-.07.08-.08.13c.03-.03.05-.07.08-.13Z"/>
        <path class="cls-5" d="M1277.51,532.79l-.05.3c.05-.14.05-.23.05-.3Z"/>
        <path class="cls-5" d="M1277.89,533.99c.09-.03.16-.06.22-.09h0s-.23.09-.23.09Z"/>
        <path class="cls-5" d="M1261.61,527.74s-.03.02-.04.04c-.07.13-.01.07.04-.04Z"/>
        <path class="cls-5" d="M1267.19,525.95c-.07.09-.15.18-.22.23.1.06.18.08.22-.23Z"/>
        <path class="cls-5" d="M1256.83,531.29h0s-.02,0-.03.02l.03-.02Z"/>
        <path class="cls-5" d="M1266.7,526.16c.1.12.18.1.27.02-.08-.04-.18-.1-.27-.02Z"/>
        <path class="cls-5" d="M1279.17,539.03v.06s.05,0,.08,0l-.08-.06Z"/>
        <path class="cls-5" d="M1279.24,539.09l.07.06s0-.06-.07-.06Z"/>
        <path class="cls-5" d="M1279.46,539.27l-.15-.12s-.01.11.15.12Z"/>
        <path class="cls-5" d="M1279.15,537.42l-.2.03s.11,0,.2-.03Z"/>
        <path class="cls-5" d="M1278.98,536.96c-.02.13-.35.38-.19.51l.16-.02c-.31,0,.39-.46.02-.49Z"/>
        <path class="cls-5" d="M1280.65,534.04c.01.17.01.34.02.51.17-.16.4-.37.53-.18.38-.83-.4.3-.55-.33Z"/>
        <path class="cls-5" d="M1280.28,532.55c.2.19.28-.15.39-.2-.26-.06-.32-.06-.39.2Z"/>
        <path class="cls-5" d="M1272.34,525.18l.23-.46c-.22-.02-.08.18-.23.46Z"/>
        <path class="cls-5" d="M1269.6,526.97l.06.35.22-.42c-.09.02-.19.04-.28.07Z"/>
        <polygon class="cls-5" points="1269.38 523.15 1269.49 523.1 1269.1 523.2 1269.38 523.15"/>
        <path class="cls-5" d="M1251.9,529.33l.53.35c0-.17-.52-.66-.53-.35Z"/>
        <path class="cls-5" d="M1248.92,536.95c-.34.02-.57.21-.29.41.07-.18.34-.3.29-.41Z"/>
        <polygon class="cls-5" points="1259.28 557.36 1259.04 557.5 1259.41 557.45 1259.28 557.36"/>
      </g>
    </g>
    <circle class="cls-8" cx="1319.43" cy="325.14" r="12.4"/>
    <circle class="cls-8" cx="1348.43" cy="414.14" r="12.4"/>
    <circle class="cls-13" cx="1355.43" cy="320.46" r="9.92"/>
    <circle class="cls-13" cx="1301.43" cy="437.46" r="9.92"/>
    <circle class="cls-13" cx="1235.43" cy="475.46" r="9.92"/>
    <circle class="cls-13" cx="1231.43" cy="660.46" r="9.92"/>
    <circle class="cls-11" cx="1311.43" cy="522.46" r="6.35"/>
    <circle class="cls-11" cx="1284.43" cy="618.46" r="6.35"/>
    <circle class="cls-9" cx="925.58" cy="802.34" r="9.92"/>
    <circle class="cls-9" cx="750.58" cy="519.34" r="9.92"/>
  </g>
</svg>