<?xml version="1.0" encoding="UTF-8"?>
<svg id="fund" xmlns="http://www.w3.org/2000/svg" viewBox="0 0 1920 1082">
  <defs>
    <style>
      .cls-1 {
        font-family: 'UDKakugo_LargePr6N-M-90ms-RKSJ-H', 'FOT-UDKakugo_Large Pr6N';
      }

      .cls-1, .cls-2, .cls-3 {
        font-size: 24px;
      }

      .cls-4, .cls-5, .cls-6, .cls-7, .cls-8, .cls-9, .cls-10, .cls-11 {
        stroke-miterlimit: 10;
      }

      .cls-4, .cls-5, .cls-6, .cls-11 {
        fill: #fff;
      }

      .cls-4, .cls-5, .cls-10 {
        stroke: #e63485;
      }

      .cls-5, .cls-11 {
        stroke-width: 3px;
      }

      .cls-12 {
        fill: #231815;
      }

      .cls-12, .cls-13, .cls-14, .cls-15 {
        stroke-width: 0px;
      }

      .cls-2 {
        font-family: KozGoPr6N-Regular-90ms-RKSJ-H, 'Kozuka Gothic Pr6N';
      }

      .cls-6 {
        stroke: #c8c9ca;
      }

      .cls-6, .cls-8, .cls-9, .cls-10 {
        stroke-width: 6px;
      }

      .cls-16 {
        letter-spacing: .25em;
      }

      .cls-17 {
        font-size: 48px;
      }

      .cls-17, .cls-3, .cls-18 {
        font-family: BIZ-UDPGothic, 'BIZ UDPGothic';
      }

      .cls-7 {
        stroke-dasharray: 0 0 2 2;
      }

      .cls-7, .cls-8, .cls-9, .cls-11 {
        stroke: #3ab5e9;
      }

      .cls-7, .cls-8, .cls-10 {
        fill: none;
      }

      .cls-9 {
        fill: #a7ffff;
      }

      .cls-14 {
        fill: #225699;
      }

      .cls-15 {
        fill: #d7ffff;
      }

      .cls-18 {
        font-size: 36px;
      }
    </style>
  </defs>
  <rect class="cls-9" x="841.27" y="298.85" width="440.78" height="297.67" rx="2.83" ry="2.83"/>
  <line class="cls-6" x1="255.15" y1="804.01" x2="1200.61" y2="804.01"/>
  <circle class="cls-5" cx="334.75" cy="804.01" r="11.12"/>
  <circle class="cls-11" cx="1067.81" cy="804.01" r="11.12"/>
  <rect class="cls-10" x="241.45" y="403.93" width="192.59" height="192.59" rx="2.83" ry="2.83"/>
  <g>
    <rect class="cls-15" x="841.27" y="317.5" width="398.23" height="279.02" rx="2.83" ry="2.83"/>
    <rect class="cls-7" x="841.27" y="317.5" width="398.23" height="279.02" rx="2.83" ry="2.83"/>
  </g>
  <text class="cls-1" transform="translate(362.28 653.42)"><tspan x="0" y="0">消費単価</tspan></text>
  <text class="cls-1" transform="translate(190 374.32)"><tspan x="0" y="0">観光客数</tspan></text>
  <text class="cls-1" transform="translate(1228.6 653.42)"><tspan x="0" y="0">消費単価</tspan></text>
  <text class="cls-1" transform="translate(795.34 261.25)"><tspan x="0" y="0">観光客数</tspan></text>
  <rect class="cls-4" x="841.27" y="403.93" width="192.59" height="192.59" rx="2.83" ry="2.83"/>
  <rect class="cls-8" x="841.13" y="298.99" width="440.78" height="297.67" rx="2.83" ry="2.83"/>
  <text class="cls-18" transform="translate(1598.5 336.15)"><tspan x="0" y="0">沖縄</tspan><tspan x="-52.56" y="48">美ら海基金</tspan></text>
  <text class="cls-3" transform="translate(1517.17 506.12)"><tspan x="0" y="0">沖縄の海の環境保</tspan><tspan class="cls-16" x="192" y="0">全</tspan><tspan x="222" y="0">・</tspan><tspan x="24.8" y="36">沖</tspan><tspan class="cls-16" x="48.8" y="36">縄</tspan><tspan x="78.8" y="36">is</tspan><tspan class="cls-16" x="100.63" y="36">m</tspan><tspan x="129.19" y="36">維持 等</tspan></text>
  <text class="cls-18" transform="translate(1491.2 687.31)"><tspan x="0" y="0">BLUER OCEAN </tspan><tspan x="46.69" y="48">OKINAWA</tspan></text>
  <g>
    <path class="cls-13" d="M1620.63,441.95c.9,1.39,2.98,4.31,4.96,6.9l9.11,14.05,4.8-7.93c2.62-3.45,6.08-8.59,8.22-12.12,2-3.3,2.92-6.4,2.05-6.93-.87-.53-3.19,1.72-5.19,5.03-2.16,3.56-5.11,9.01-6.95,12.92l-3,4.95-7.56-11.66c-1.49-2.7-3.13-5.49-3.98-6.79-1.87-2.88-3.94-4.87-4.62-4.43-.68.44.29,3.13,2.16,6.02Z"/>
    <path class="cls-13" d="M1620.63,422.48c.9,1.39,2.98,4.31,4.96,6.9l9.11,14.05,4.8-7.93c2.62-3.45,6.08-8.59,8.22-12.12,2-3.3,2.92-6.4,2.05-6.93-.87-.53-3.19,1.72-5.19,5.03-2.16,3.56-5.11,9.01-6.95,12.92l-3,4.95-7.56-11.66c-1.49-2.7-3.13-5.49-3.98-6.79-1.87-2.88-3.94-4.87-4.62-4.43-.68.44.29,3.13,2.16,6.02Z"/>
  </g>
  <g>
    <path class="cls-13" d="M1620.63,595.74c.9,1.39,2.98,4.31,4.96,6.9l9.11,14.05,4.8-7.93c2.62-3.45,6.08-8.59,8.22-12.12,2-3.3,2.92-6.4,2.05-6.93-.87-.53-3.19,1.72-5.19,5.03-2.16,3.56-5.11,9.01-6.95,12.92l-3,4.95-7.56-11.66c-1.49-2.7-3.13-5.49-3.98-6.79-1.87-2.88-3.94-4.87-4.62-4.43-.68.44.29,3.13,2.16,6.02Z"/>
    <path class="cls-13" d="M1620.63,576.27c.9,1.39,2.98,4.31,4.96,6.9l9.11,14.05,4.8-7.93c2.62-3.45,6.08-8.59,8.22-12.12,2-3.3,2.92-6.4,2.05-6.93-.87-.53-3.19,1.72-5.19,5.03-2.16,3.56-5.11,9.01-6.95,12.92l-3,4.95-7.56-11.66c-1.49-2.7-3.13-5.49-3.98-6.79-1.87-2.88-3.94-4.87-4.62-4.43-.68.44.29,3.13,2.16,6.02Z"/>
  </g>
  <text class="cls-17" transform="translate(112.96 120.28)"><tspan x="0" y="0">Bluer Ocea</tspan><tspan class="cls-16" x="293.46" y="0">n</tspan><tspan x="339.07" y="0">サイクル</tspan></text>
  <text class="cls-2" transform="translate(1301 331.06)"><tspan x="0" y="0">宿泊税・入島税</tspan></text>
  <g>
    <path class="cls-12" d="M1610.53,161.23c-.04.27-.08.56-.11.91-.27,2.95-.45,6.59-.38,9.65.05,2.23.1,4.83.16,7.8.03,2.36.85,4.95.84,7.79-.02,2.39-.08,5.1.05,7.9.08,2.47-.46,5.11-.59,7.64-.13,2.27-.27,4.57-1.6,6.1-1.52,1.82-4.07,2.98-6.46,3.35-1.57.22-3.08.11-4.48-.09-1.41-.19-2.8-.39-4.07-.37-3.23.06-6,.4-8.77.46-2.77.06-5.53.2-8.76.26-2.56.04-5.4.56-8.77.6-2.58.03-5.48-.16-8.78-.13-3.24.02-6.08-.64-8.6-.62-3.33.02-6.11.25-8.6.25-3.2,0-5.89-.22-8.59-.23-2.69-.01-5.4.91-8.6.9-2.48,0-5.26-.66-8.59-.66-2.52.04-5.36.08-8.6.12-2.69,0-5.2-.09-7.62-.07-2.61.02-5.11.35-7.61.38-2.5.04-5,.07-7.61.11-2.41.03-4.92.31-7.61.34-2.38.03-4.91-.67-7.63-.64-2.37.03-4.89.21-7.61.24-2.38.02-4.92-.2-7.63-.18-2.65.02-5.17.33-7.57.35-2.68.01-5.2.31-7.57.31-2.71,0-5.23-.31-7.57-.31-2.78,0-5.29-.14-7.56-.14-2.9,0-5.03-.21-7.19-.21-1.65,0-4.06.14-6.28.28-2.16.14-4.13.27-4.99.33-1.88.07-3,3.26.12,3.56.3.04,1.13.06,1.97.08.87,0,1.88.02,2.93.03,2.1,0,4.34,0,5.91,0,2.16-.01,4.66.36,7.54.33,2.26-.03,4.76-.48,7.53-.51,2.32-.04,4.82-.07,7.54-.12,2.35-.02,4.86.33,7.54.31,2.38-.03,4.89-.06,7.54-.1,2.79-.01,5.3.38,7.59.36,2.82-.02,5.3-.47,7.58-.5,2.76-.03,5.21-.31,7.58-.35,2.53-.04,4.98.34,7.59.3,2.32-.04,4.79.17,7.58.13,2.27-.03,4.76-.24,7.58-.27,2.3-.02,4.8-.7,7.58-.72,2.8-.02,5.3.09,7.58.08,2.84-.02,5.33.3,7.59.28,2.81-.01,5.26-.02,7.58-.03,2.58-.02,5-.45,7.58-.46,2.32-.01,4.76.13,7.57.11,2.25-.02,4.74.12,7.58.1,2.28-.02,4.79-.44,7.58-.46,3.25-.02,6.08.4,8.6.38,3.33-.03,6.12.38,8.61.36,3.2-.03,5.9-.56,8.59-.59,2.7-.01,5.39-.02,8.6-.03,1.26-.02,2.53.1,4.02.17,1.48.09,3.1.1,4.88-.18,1.35-.21,2.76-.75,4.17-1.57,1.41-.8,2.79-1.93,3.99-3.34,2.01-2.44,2.76-5.41,2.92-7.98.15-2.89-.17-5.5-.23-7.95-.1-2.8.65-5.28.7-7.75.03-2.87.06-5.48.08-7.85,0-2.99-.46-5.6-.48-7.85-.03-3.05-.26-7.77-.38-9.63-.03-.51-.04-.68-.05-.82-.18-2.31-3.21-1.73-3.46.04Z"/>
    <path class="cls-12" d="M1507.41,100.91c.25,0,.51-.01,1.94-.04,2.6-.06,10.1-.31,22.71-.52,13.33-.21,13.54-.59,26.87-.73,13.32-.09,13.01.13,26.31.33,2.21.04,4.17.07,6.09.11,1.92.03,3.78.05,5.77.13.99.04,2.05.04,3.07.14.52.04,1.06.08,1.61.13l.42.03c.13.02.22.05.33.07.21.06.44.06.64.15,1.7.51,3.39,2.3,4.64,5.08,1.22,2.69,1.79,5.41,2.23,7.77.41,2.38.61,4.47.74,6.25.24,3.57.21,5.91.23,7.23,0,.82,0,.98,0,1.12,0,2.21.9,3.48,1.88,3.59.97.11,2.04-1.02,2.15-3.62,0-.17.01-.34.01-1.14.07-1.56.01-3.97-.32-7.63-.18-1.83-.44-3.97-.9-6.48-.5-2.5-1.09-5.38-2.51-8.6-.7-1.56-1.51-2.92-2.46-4.06-.97-1.13-2.07-2.02-3.25-2.64-.29-.15-.61-.26-.9-.38-.3-.12-.59-.23-.9-.28-.3-.06-.6-.13-.89-.19-.29-.06-.5-.05-.75-.07-.96-.07-1.88-.13-2.8-.2-3.59-.1-7.25-.16-13.93-.21-13.36-.08-13.8-.09-27.14.01-13.35.15-13.03.26-26.37.47-12.62.21-19.94-.01-22.67.11-1.42.04-1.7.05-1.96.06-4.85.24-4.49,4.13.11,4.02Z"/>
    <path class="cls-12" d="M1378.56,214.19c-.59,0-1.3.02-2.11.03-1.29,0-2.75.01-4.41.02-3.3,0-7.35-.03-12.17-.21-4.81-.19-10.43-.46-16.74-1.25-1.56-.24-3.2-.43-4.83-.78-.81-.17-1.67-.29-2.47-.53-.41-.11-.82-.21-1.23-.32-.41-.11-.86-.21-1.17-.35-1.41-.49-2.67-1.35-3.7-2.59-1.04-1.23-1.84-2.81-2.44-4.57-1.18-3.56-1.48-7.07-1.64-10.16-.15-3.12-.09-5.91,0-8.46.2-5.1.56-9.23.86-13.4.15-2.08.3-4.17.39-6.42.04-1.12.06-2.32.05-3.51,0-1.18-.02-2.41-.02-3.7-.02-5.16-.02-11.33.26-19.48.27-8.15.75-14.19,1.35-19.13.16-1.23.3-2.41.5-3.51.18-1.11.35-2.17.58-3.17.11-.5.21-1,.32-1.49.12-.48.27-.94.4-1.4.14-.45.24-.94.42-1.35l.5-1.24c1.23-2.89,4.78-4.49,9.43-5.45,4.71-.95,10.72-1.3,18.83-1.22,10.81.13,19.32.71,29.29.86,9.94.15,21.23.14,37.63.13,32.38-.07,49.01-.11,56.27-.13,4.52-.05,5.04-3.86-.07-4.03-.32,0-.66-.02-1.01-.03-.56,0-1.15,0-1.77,0-1.29,0-2.71,0-4.29.01-3.15.03-6.92.07-11.45.11-9.06.1-21.17.23-37.54.23-15.45-.02-23.91-.03-32.6-.04-4.35-.04-8.72-.07-14.08-.27-5.36-.17-11.69-.48-19.93-.57-8.24-.06-14.57.28-19.9,1.37-2.66.58-5.09,1.31-7.28,2.56-1.09.62-2.12,1.36-2.98,2.33-.23.22-.43.48-.62.74-.19.26-.4.51-.55.8-.15.28-.34.57-.46.85l-.32.81c-.2.54-.46,1.09-.61,1.63-.15.54-.3,1.08-.45,1.62-.33,1.09-.48,2.19-.74,3.32-.22,1.13-.38,2.29-.58,3.5-.15,1.2-.31,2.46-.48,3.77-.58,5.25-.98,11.49-1.24,19.71-.25,8.22-.25,14.34-.25,19.39.01,2.56.02,4.72-.12,6.82-.12,2.1-.28,4.08-.44,6.07-.32,3.98-.68,7.99-.9,13.09-.1,2.55-.16,5.38,0,8.63.19,3.24.46,6.95,1.86,11.11.72,2.07,1.72,4.06,3.15,5.73,1.42,1.68,3.31,2.95,5.29,3.61,1.88.59,3.63,1.02,5.37,1.34,1.73.38,3.4.57,5.02.83,6.48.85,12.1,1.18,16.95,1.43,4.84.24,8.9.31,12.25.35,1.67.02,3.17.02,4.49,0,.44,0,.85-.01,1.24-.02.35-.01.68-.02.99-.03,4.88-.22,4.48-4.11-.08-4.03Z"/>
    <path class="cls-12" d="M1492.96,99.46c0-.05,0-.1,0-.15.02-.18.03-.43.08-.6.22-.8.89-1.45,1.7-1.63.47-.1.81-.09,1.27,0,.05.01.1.02.15.04.18.07.4.15.57.25.59.35.98.89,1.19,1.53.01.04.02.08.03.12.04.2.08.44.08.64,0,.38-.07.65-.21.97-.07.16-.08.21-.15.32-.16.25-.34.44-.57.62-.4.31-.87.48-1.38.47-.1,0-.2,0-.31-.02h-.1c-.38.01-.73-.08-1.06-.27,0,0-.02-.01-.02-.02-.37-.19-.7-.52-.89-.84-.09-.15-.15-.32-.2-.5-.02-.06-.05-.11-.07-.18-.09-.23-.11-.51-.13-.76Z"/>
    <path class="cls-12" d="M1609.96,140.46c0-.05,0-.1,0-.15.02-.18.03-.43.08-.6.22-.8.89-1.45,1.7-1.63.47-.1.81-.09,1.27,0,.05.01.1.02.15.04.18.07.4.15.57.25.59.35.98.89,1.19,1.53.01.04.02.08.03.12.04.2.08.44.08.64,0,.38-.07.65-.21.97-.07.16-.08.21-.15.32-.16.25-.34.44-.57.62-.4.31-.87.48-1.38.47-.1,0-.2,0-.31-.02h-.1c-.38.01-.73-.08-1.06-.27,0,0-.02-.01-.02-.02-.37-.19-.7-.52-.89-.84-.09-.15-.15-.32-.2-.5-.02-.06-.05-.11-.07-.18-.09-.23-.11-.51-.13-.76Z"/>
    <path class="cls-12" d="M1609.96,150.8c0-.05,0-.1,0-.15.02-.18.03-.43.08-.6.22-.8.89-1.45,1.7-1.63.47-.1.81-.09,1.27,0,.05.01.1.02.15.04.18.07.4.15.57.25.59.35.98.89,1.19,1.53.01.04.02.08.03.12.04.2.08.44.08.64,0,.38-.07.65-.21.97-.07.16-.08.21-.15.32-.16.25-.34.44-.57.62-.4.31-.87.48-1.38.47-.1,0-.2,0-.31-.02h-.1c-.38.01-.73-.08-1.06-.27,0,0-.02-.01-.02-.02-.37-.19-.7-.52-.89-.84-.09-.15-.15-.32-.2-.5-.02-.06-.05-.11-.07-.18-.09-.23-.11-.51-.13-.76Z"/>
    <path class="cls-12" d="M1386.92,237.73c.19-.19.45-.35,1.58-1.44.13-.16.39-.47.77-.94.38-.47.92-1.06,1.45-1.92,1.21-1.75.82-2,1.78-3.84.75-1.91,1.04-1.76,1.73-3.72.25-.65.34-1.18.4-1.81.08-.62.17-1.32.3-2.34.15-.98.26-1.73.34-2.28.1-.56.18-.92.19-1.12.02-.89.02-1.06.02-1.21,0-2.42-1.15-3.68-2.12-3.62-1,.06-1.8,1.24-1.91,3.64,0,.15-.02.31-.04,1.05-.09.21-.1.53-.11,1.01,0,.49,0,1.15-.17,2.01-.13.84-.17,1.3-.2,1.79-.03.48-.01,1-.29,1.85-.48,1.74-.6,1.76-1.26,3.42-.83,1.57-.64,1.63-1.66,3.1-.44.73-.99,1.13-1.37,1.45-.39.31-.66.5-.76.66-.93.89-1.14,1.03-1.31,1.2-.76.8-1.36,1.37-1.59,2.02-.25.63-.23,1.21.04,1.62.27.42.79.66,1.52.62.72-.06,1.73-.32,2.65-1.21Z"/>
  </g>
  <g>
    <path class="cls-13" d="M1351.88,121.01c.46,0,.87.15,1.24.46.49.4.73.91.73,1.53,0,.38-.11.74-.33,1.06-.39.61-.95.91-1.67.91-.32,0-.62-.08-.91-.23-.23-.12-.42-.27-.58-.47-.32-.38-.48-.81-.48-1.3,0-.68.28-1.22.85-1.62.34-.23.72-.35,1.14-.35Z"/>
    <path class="cls-13" d="M1367.02,130.18c1.54-.74,2.92-1.9,4.16-3.47l1.19.66c-1.25,1.63-2.69,2.94-4.33,3.91l-1.01-1.1ZM1368.68,124.84h14.95v1.17h-7.56v5.55h-1.42v-5.55h-7.37v-9.8h1.41v8.63ZM1381,115v8.43h-10.27v-8.43h10.27ZM1372.11,116.08v1.39h7.48v-1.39h-7.48ZM1372.11,118.48v1.4h7.48v-1.4h-7.48ZM1372.11,120.91v1.49h7.48v-1.49h-7.48ZM1382.17,130.92c-1.23-1.34-2.63-2.53-4.19-3.57l1.08-.81c1.41.88,2.83,2.01,4.26,3.38l-1.15.99Z"/>
    <path class="cls-13" d="M1393.73,121.61v3.12h5.91v1.22h-5.91v3.59h7.63v1.26h-16.58v-1.26h7.52v-3.59h-5.77v-1.22h5.77v-3.12h-4.05v-.87c-.87.61-1.84,1.2-2.92,1.76l-.91-1.16c1.59-.73,2.94-1.56,4.07-2.49,1.41-1.15,2.63-2.62,3.67-4.4h1.53c1.21,1.56,2.46,2.85,3.77,3.88,1.19.93,2.62,1.78,4.29,2.57l-.84,1.22c-1.08-.56-2.06-1.13-2.92-1.71v1.21h-4.26ZM1397.95,120.37c-1.89-1.3-3.54-2.87-4.96-4.7-1.06,1.79-2.47,3.36-4.24,4.7h9.19Z"/>
    <path class="cls-13" d="M1406.26,118.71v12.84h-1.39v-9.97c-.48.88-1.08,1.79-1.78,2.72l-.64-1.36c1-1.41,1.84-2.94,2.52-4.6.46-1.12.91-2.46,1.34-4.03l1.35.38c-.42,1.42-.89,2.76-1.41,4.01ZM1414.27,119.48c.85,1.93,1.8,3.56,2.85,4.89.77.97,1.65,1.87,2.64,2.7l-.79,1.36c-2.37-2.19-4.1-4.69-5.17-7.51v5.84h2.68v1.26h-2.68v3.52h-1.37v-3.52h-2.49v-1.26h2.49v-5.7c-1.1,3.14-2.73,5.7-4.9,7.67l-.92-1.22c2.21-1.72,3.99-4.39,5.34-8.03h-4.78v-1.26h5.26v-3.78h1.37v3.78h5.55v1.26h-5.07Z"/>
    <path class="cls-13" d="M1421.13,116.92c5.03-.06,9.94-.21,14.72-.42l.1,1.28c-1.97.07-3.55.38-4.75.94-1.46.68-2.54,1.66-3.24,2.94-.5.91-.76,1.9-.76,2.96,0,1.35.51,2.37,1.53,3.06.94.63,2.44,1.1,4.52,1.39l-.31,1.41c-2.67-.38-4.53-1.05-5.59-2.01-1.07-.98-1.61-2.29-1.61-3.91,0-.8.17-1.6.51-2.41.81-1.92,2.33-3.34,4.55-4.25l-.84.04c-2.46.09-5.11.2-7.95.33l-.8.04-.07-1.36ZM1433.67,123.83c-.36-.96-.88-1.92-1.55-2.88l1.06-.41c.67.94,1.2,1.89,1.58,2.85l-1.1.45ZM1435.87,122.98c-.39-1.04-.91-2-1.55-2.9l1.05-.4c.63.83,1.15,1.77,1.56,2.82l-1.06.47Z"/>
    <path class="cls-13" d="M1447.75,129.05c1.4-.36,2.54-.91,3.42-1.66,1.18-1,1.77-2.47,1.77-4.4,0-1.27-.3-2.39-.91-3.36-.83-1.34-2.2-2.14-4.11-2.43-.4,3.86-1.22,6.98-2.45,9.37-.52,1.01-1.03,1.74-1.53,2.19-.53.47-1.09.71-1.67.71-.78,0-1.48-.38-2.11-1.14-.34-.4-.62-.91-.83-1.53-.3-.84-.46-1.75-.46-2.73,0-1.68.47-3.21,1.42-4.59.93-1.37,2.13-2.35,3.59-2.93,1-.39,2.07-.59,3.22-.59,1.78,0,3.31.45,4.6,1.34,1.11.78,1.9,1.82,2.36,3.11.28.79.42,1.63.42,2.53,0,3.83-1.99,6.28-5.96,7.35l-.76-1.24ZM1446.58,117.16c-1.37.08-2.53.49-3.49,1.22-1.46,1.11-2.35,2.54-2.66,4.3-.08.45-.12.9-.12,1.34,0,1.38.3,2.46.91,3.24.35.45.71.68,1.09.68.43,0,.86-.32,1.28-.96.7-1.05,1.32-2.46,1.88-4.25.47-1.5.84-3.36,1.12-5.57Z"/>
    <path class="cls-13" d="M1460.64,122.79c1.11,1.03,2.69,1.54,4.75,1.54h7.98c-.23.33-.4.71-.51,1.13h-3.16v.94h3.59v1.15h-3.59v2.65c0,.5-.13.86-.39,1.07-.23.19-.62.28-1.18.28-.8,0-1.65-.04-2.54-.13l-.31-1.26c1.02.12,1.84.18,2.47.18.23,0,.38-.04.45-.13.05-.07.07-.19.07-.35v-2.3h-12.06v-1.15h12.06v-.94h-2.86c-2.3,0-4.1-.63-5.4-1.88-.81.83-1.72,1.59-2.72,2.29l-.74-1.13c.93-.52,1.84-1.15,2.73-1.88v-2.43h-2.66v-1.19h4.02v3.55ZM1459.7,117.58c-.87-.86-1.72-1.57-2.56-2.14l.87-.91c.92.56,1.79,1.24,2.61,2.04l-.92,1ZM1462.8,130.68c-.98-.82-2.02-1.56-3.12-2.23l.92-.86c1.17.65,2.21,1.36,3.13,2.13l-.93.97ZM1465.82,116.79h-4.77v-1.03h2.89c-.23-.34-.48-.67-.76-.99l1.26-.4c.27.36.55.82.85,1.39h3.08s.06-.11.12-.23c.21-.38.4-.77.55-1.18l1.39.33c-.21.38-.44.74-.68,1.08h3.12v1.03h-5.57c-.13.29-.27.55-.4.77h4.47v5.99h-8.92v-5.99h3.04l.04-.1c.11-.24.21-.47.28-.68ZM1463.77,118.44v.83h6.28v-.83h-6.28ZM1463.77,120.1v.84h6.28v-.84h-6.28ZM1463.77,121.79v.91h6.28v-.91h-6.28Z"/>
    <path class="cls-13" d="M1483.61,115.36v1.13c0,3.47.68,6.27,2.03,8.41,1.24,1.96,3.12,3.63,5.63,5.02l-.99,1.27c-2.51-1.38-4.5-3.3-5.97-5.78-.65-1.1-1.14-2.43-1.46-4-.37,1.85-.96,3.45-1.76,4.81-1.24,2.09-3.14,3.8-5.7,5.12l-.99-1.22c3.11-1.46,5.25-3.6,6.42-6.42.77-1.88,1.25-4.21,1.42-6.99h-4.58v-1.34h5.94Z"/>
    <path class="cls-13" d="M1501.75,129.05c1.4-.36,2.54-.91,3.42-1.66,1.18-1,1.77-2.47,1.77-4.4,0-1.27-.3-2.39-.91-3.36-.83-1.34-2.2-2.14-4.11-2.43-.4,3.86-1.22,6.98-2.45,9.37-.52,1.01-1.03,1.74-1.53,2.19-.53.47-1.09.71-1.67.71-.78,0-1.48-.38-2.11-1.14-.34-.4-.62-.91-.83-1.53-.3-.84-.46-1.75-.46-2.73,0-1.68.47-3.21,1.42-4.59.93-1.37,2.13-2.35,3.59-2.93,1-.39,2.07-.59,3.22-.59,1.78,0,3.31.45,4.6,1.34,1.11.78,1.9,1.82,2.36,3.11.28.79.42,1.63.42,2.53,0,3.83-1.99,6.28-5.96,7.35l-.76-1.24ZM1500.58,117.16c-1.37.08-2.53.49-3.49,1.22-1.46,1.11-2.35,2.54-2.66,4.3-.08.45-.12.9-.12,1.34,0,1.38.3,2.46.91,3.24.35.45.71.68,1.09.68.43,0,.86-.32,1.28-.96.7-1.05,1.32-2.46,1.88-4.25.47-1.5.84-3.36,1.12-5.57Z"/>
    <path class="cls-13" d="M1510.15,117.78h6.08v1.19h-6.08v-1.19ZM1515.81,125.65v4.95h-3.86v.96h-1.24v-5.91h5.1ZM1510.93,115.19h4.64v1.13h-4.64v-1.13ZM1510.93,120.42h4.66v1.13h-4.66v-1.13ZM1510.93,123h4.66v1.12h-4.66v-1.12ZM1511.95,126.8v2.65h2.6v-2.65h-2.6ZM1524.3,127.41c.53-.56,1-1.09,1.42-1.6l.96.71c-.69.8-1.32,1.48-1.9,2.04.23.47.5.87.8,1.2.15.16.27.25.34.25.21,0,.35-.62.45-1.85l1.04.66c-.13,1.83-.52,2.74-1.17,2.74-.27,0-.62-.17-1.04-.51-.48-.39-.93-.93-1.34-1.64-.86.74-1.71,1.35-2.55,1.83l-.79-.94c.93-.49,1.86-1.14,2.8-1.95-.3-.73-.53-1.65-.7-2.78h-2.53v1.22l.23-.04c.59-.11,1.19-.23,1.8-.37l.06.99c-.44.12-1.14.28-2.09.49v2.52c0,.42-.09.72-.28.91-.19.18-.54.27-1.03.27-.56,0-1.1-.04-1.62-.11l-.22-1.17c.6.1,1.11.15,1.55.15.19,0,.3-.07.33-.2.02-.06.03-.15.03-.25v-1.86c-1.01.18-1.84.32-2.5.41l-.3-1.15c.87-.09,1.8-.21,2.8-.38v-1.42h-2.8v-1.08h2.8v-.98c-.54.09-1.16.18-1.87.25l-.45-.88c1.68-.2,3.17-.5,4.46-.91l.72.89c-.52.15-1.05.28-1.62.4v1.21h2.4c-.08-.79-.13-1.6-.15-2.45h1.24c.03.78.08,1.6.17,2.45h3.52v1.08h-3.38c.12.72.25,1.34.41,1.85ZM1519.11,115.96c-.26-.5-.5-.9-.71-1.19l1.17-.36c.33.49.62,1,.85,1.55h2.25c.04-.06.08-.13.12-.22.21-.38.42-.83.62-1.36l1.37.33c-.21.38-.46.8-.76,1.26h2.74v1.06h-4.55v1.17h3.95v1.03h-3.95v1.24h5.01v1.06h-11.13v-1.06h4.86v-1.24h-3.71v-1.03h3.71v-1.17h-4.41v-1.06h2.57ZM1525.54,124.34c-.36-.69-.78-1.29-1.27-1.81l.98-.53c.48.49.92,1.08,1.32,1.77l-1.03.57Z"/>
    <path class="cls-13" d="M1528.15,117.78h6.15v1.19h-6.15v-1.19ZM1533.82,125.65v4.95h-3.84v.96h-1.27v-5.91h5.12ZM1528.95,115.19h4.67v1.13h-4.67v-1.13ZM1528.95,120.42h4.68v1.13h-4.68v-1.13ZM1528.95,123h4.68v1.12h-4.68v-1.12ZM1529.98,126.8v2.65h2.58v-2.65h-2.58ZM1542.17,118.91v1.1h-5.16v-1c-.8.81-1.66,1.51-2.58,2.08l-.79-1.1c2.13-1.17,3.79-3.02,4.98-5.55h1.51c1.25,2.12,3.04,3.87,5.38,5.24l-.72,1.2c-1-.63-1.87-1.29-2.63-1.98ZM1544.41,121.8v8.54c0,.73-.37,1.1-1.11,1.1-.39,0-.77-.03-1.14-.09l-.25-1.27c.36.07.67.11.94.11.18,0,.29-.05.33-.16.01-.05.02-.11.02-.18v-3.28h-1.75v4.55h-1.13v-4.55h-1.62v4.55h-1.12v-4.55h-1.6v4.99h-1.22v-9.76h9.66ZM1535.97,122.96v2.44h1.6v-2.44h-1.6ZM1537.17,118.84h4.93c-1.1-1.03-2-2.08-2.7-3.17-.61,1.2-1.35,2.26-2.23,3.17ZM1538.68,122.96v2.44h1.62v-2.44h-1.62ZM1543.18,125.41v-2.44h-1.75v2.44h1.75Z"/>
    <path class="cls-13" d="M1351.88,152.51c.46,0,.87.15,1.24.46.49.4.73.91.73,1.53,0,.38-.11.74-.33,1.06-.39.61-.95.91-1.67.91-.32,0-.62-.08-.91-.23-.23-.12-.42-.27-.58-.47-.32-.38-.48-.81-.48-1.3,0-.68.28-1.22.85-1.62.34-.23.72-.35,1.14-.35Z"/>
    <path class="cls-13" d="M1370.21,150.4v12.65h-1.35v-9.76c-.53.93-1.11,1.82-1.75,2.67l-.72-1.35c1.07-1.38,1.95-2.99,2.65-4.83.42-1.1.81-2.39,1.18-3.87l1.36.36c-.4,1.46-.86,2.84-1.36,4.13ZM1376.58,150.97v-1.78h-5.2v-1.19h5.2v-2.05h1.34v2.05h5.54v1.19h-5.54v1.78h4.66v5.26h-4.68c-.08,1.28-.35,2.35-.81,3.23,1.08.62,2.24,1.12,3.45,1.49.84.26,1.87.5,3.1.71l-.71,1.34c-2.77-.69-4.95-1.52-6.55-2.51-.97,1.12-2.56,2-4.77,2.64l-.76-1.17c2.03-.43,3.5-1.17,4.42-2.21-.83-.6-1.74-1.4-2.72-2.38l.98-.76c.87.88,1.68,1.59,2.43,2.12.37-.78.58-1.61.64-2.5h-4.61v-5.26h4.59ZM1376.58,152.1h-3.27v2.99h3.27v-2.99ZM1377.91,152.1v2.99h3.34v-2.99h-3.34Z"/>
    <path class="cls-13" d="M1388.53,159.3c.63.65,1.34,1.12,2.12,1.41,1.12.41,2.43.62,3.93.62h7.22c-.17.39-.32.81-.45,1.26h-6.77c-1.97,0-3.51-.27-4.61-.81-.74-.36-1.41-.86-2.01-1.5-.88,1.12-1.78,2.04-2.7,2.78l-.76-1.27c.94-.68,1.83-1.42,2.66-2.21v-4.67h-2.61v-1.24h3.98v5.64ZM1387.78,150.29c-.85-1.22-1.72-2.26-2.61-3.1l1-.84c.97.86,1.85,1.85,2.65,2.97l-1.05.98ZM1395.78,151.69v2.07h5.1v1.12h-5.1v4.34c0,.47-.11.8-.32.99-.2.19-.56.28-1.08.28-.56,0-1.15-.04-1.76-.11l-.27-1.28c.68.1,1.24.15,1.67.15.23,0,.36-.05.4-.15.02-.05.04-.12.04-.21v-4.02h-5v-1.12h5v-2.07h-2.58v-.88c-.61.49-1.34.99-2.2,1.49l-.84-1.01c1.18-.6,2.19-1.3,3.02-2.1.9-.86,1.71-1.94,2.43-3.24h1.37c1.32,2.03,3.27,3.71,5.83,5.05l-.79,1.1c-.81-.46-1.55-.93-2.21-1.41v.99h-2.72ZM1389.1,158.8c.98-.83,1.75-1.87,2.3-3.13l1.13.52c-.64,1.44-1.46,2.6-2.44,3.48l-.99-.87ZM1398.34,150.57c-1.35-1.04-2.46-2.19-3.33-3.44-.71,1.26-1.66,2.41-2.84,3.44h6.17ZM1399.85,159.72c-.86-1.28-1.75-2.41-2.68-3.38l1.03-.74c1.09,1.07,2,2.14,2.72,3.23l-1.06.89Z"/>
    <path class="cls-13" d="M1412.11,160.55c1.4-.36,2.54-.91,3.42-1.66,1.18-1,1.77-2.47,1.77-4.4,0-1.27-.3-2.39-.91-3.36-.83-1.34-2.2-2.14-4.11-2.43-.4,3.86-1.22,6.98-2.45,9.37-.52,1.01-1.03,1.74-1.53,2.19-.53.47-1.09.71-1.67.71-.78,0-1.48-.38-2.11-1.14-.34-.4-.62-.91-.83-1.53-.3-.84-.46-1.75-.46-2.73,0-1.68.47-3.21,1.42-4.59.93-1.37,2.13-2.35,3.59-2.93,1-.39,2.07-.59,3.22-.59,1.78,0,3.31.45,4.6,1.34,1.11.78,1.9,1.82,2.36,3.11.28.79.42,1.63.42,2.53,0,3.83-1.99,6.28-5.96,7.35l-.76-1.24ZM1410.94,148.66c-1.37.08-2.53.49-3.49,1.22-1.46,1.11-2.35,2.54-2.66,4.3-.08.45-.12.9-.12,1.34,0,1.38.3,2.46.91,3.24.35.45.71.68,1.09.68.43,0,.86-.32,1.28-.96.7-1.05,1.32-2.46,1.88-4.25.47-1.5.84-3.36,1.12-5.57Z"/>
    <path class="cls-13" d="M1427.48,146.77v12.09h-4.74v1.71h-1.39v-13.81h6.13ZM1422.75,148v4.09h3.38v-4.09h-3.38ZM1422.75,153.25v4.38h3.38v-4.38h-3.38ZM1430.55,156.62c-.08,1.31-.31,2.43-.7,3.38-.45,1.08-1.25,2.1-2.41,3.08l-1.04-1.03c.83-.64,1.44-1.34,1.85-2.1.63-1.17.95-2.74.95-4.71v-8.53h7.4v14.65c0,.47-.1.83-.29,1.06-.24.3-.7.45-1.37.45-.5,0-1.32-.04-2.46-.12l-.25-1.41c.93.13,1.71.2,2.35.2.32,0,.51-.09.57-.26.04-.1.05-.25.05-.44v-4.22h-4.65ZM1430.6,151.02h4.61v-3.08h-4.61v3.08ZM1430.6,155.43h4.61v-3.23h-4.61v3.23Z"/>
    <path class="cls-13" d="M1441.07,153.09h3.16v8.02h-2.98v1.49h-1.26v-7.15c-.32.58-.66,1.12-1.03,1.63l-.64-1.34c1.28-1.83,2.19-4.28,2.75-7.34l.03-.13h-2.36v-1.24h5.91v1.24h-2.3c-.02.09-.04.22-.07.4-.2,1.34-.6,2.81-1.2,4.4ZM1441.25,154.28v5.63h1.81v-5.63h-1.81ZM1450.47,151.96c.35-.75.63-1.49.84-2.23l1.35.31c-.28.69-.56,1.3-.83,1.82l-.05.11h3.3v1.13h-3.5v1.82h2.9v1.1h-2.9v1.79h2.9v1.08h-2.9v1.95h3.88v1.15h-7.82v1.06h-1.26v-8.75c-.46.53-.88.96-1.27,1.31l-.76-1.05c1.54-1.41,2.76-3.2,3.66-5.38h-1.78v1.74h-1.26v-2.89h3.46c.19-.61.38-1.31.54-2.11l1.37.17c-.2.81-.38,1.46-.54,1.94h5.45v2.87h-1.27v-1.72h-4.6c-.39.98-.85,1.9-1.37,2.77h2.43ZM1450.33,153.09h-2.68v1.82h2.68v-1.82ZM1450.33,156.01h-2.68v1.79h2.68v-1.79ZM1450.33,158.89h-2.68v1.95h2.68v-1.95Z"/>
    <path class="cls-13" d="M1461.15,150.49v12.39h-1.44v-9.97c-.82,1.2-1.65,2.23-2.49,3.09l-.72-1.35c2.16-2.29,3.84-5.15,5.04-8.6l1.4.4c-.5,1.35-1.1,2.7-1.79,4.04ZM1466.17,152.35c2.13-.9,3.97-1.9,5.5-3l1.1,1.06c-2.21,1.45-4.41,2.55-6.6,3.3v6.48c0,.4.19.64.58.72.36.07.95.11,1.78.11,1.34,0,2.21-.05,2.61-.15.33-.08.53-.32.6-.73.12-.69.2-1.64.23-2.85l1.48.51c-.05,1.39-.14,2.41-.27,3.07-.15.7-.53,1.15-1.14,1.34-.55.17-1.58.25-3.08.25-1.76,0-2.88-.08-3.35-.25-.56-.21-.84-.73-.84-1.55v-14.24h1.42v5.93Z"/>
    <path class="cls-13" d="M1489.51,163.05c-1.07-.97-1.95-2.15-2.64-3.54-.84-1.72-1.27-3.39-1.27-5.02,0-1.85.53-3.72,1.59-5.63.64-1.15,1.42-2.12,2.31-2.91h1.32c-.79.9-1.42,1.73-1.9,2.5-1.22,1.95-1.83,3.97-1.83,6.06,0,1.98.54,3.89,1.63,5.73.51.87,1.21,1.8,2.09,2.81h-1.32Z"/>
    <path class="cls-13" d="M1507.4,146.96v15.82h-1.46v-1.32h-9.72v1.32h-1.46v-15.82h12.64ZM1496.22,148.22v3.09h9.72v-3.09h-9.72ZM1496.22,152.55v3.07h9.72v-3.07h-9.72ZM1496.22,156.86v3.33h9.72v-3.33h-9.72Z"/>
    <path class="cls-13" d="M1525.68,150.25h-5.1c-.43,1.17-1,2.24-1.71,3.19l-.96-.85v7.84h-5.27v1.31h-1.37v-12.87h2.13c.3-.87.54-1.83.72-2.88l1.48.25c-.28.97-.57,1.85-.9,2.63h3.22v3.59l.1-.13c1.05-1.55,1.8-3.66,2.24-6.32l1.37.25c-.21,1.16-.42,2.07-.62,2.73h6.07c-.05,6.52-.25,10.57-.61,12.17-.15.68-.42,1.14-.81,1.38-.33.21-.87.31-1.6.31-.69,0-1.49-.05-2.42-.14l-.27-1.42c1.05.14,1.93.21,2.62.21.49,0,.81-.12.95-.36.11-.2.23-.99.36-2.36.18-2.01.3-4.53.37-7.56l.02-.97ZM1512.64,150.07v3.8h3.92v-3.8h-3.92ZM1512.64,154.98v4.22h3.92v-4.22h-3.92ZM1522.56,158.01c-.8-1.75-1.7-3.26-2.7-4.54l1.06-.84c1.11,1.42,2.04,2.92,2.8,4.5l-1.17.88Z"/>
    <path class="cls-13" d="M1531.54,154.77c-.64,1.78-1.45,3.33-2.41,4.65l-.76-1.33c1.38-1.8,2.38-3.75,3.01-5.84h-2.79v-1.24h2.95v-2.92c-.83.19-1.57.33-2.23.43l-.55-1.08c2.17-.33,4.05-.81,5.63-1.43l.83,1c-.69.26-1.44.51-2.25.73l-.09.03v3.24h2.37v1.24h-2.37v1.38c.94.67,1.8,1.43,2.58,2.26l-.84,1.15c-.57-.77-1.15-1.44-1.73-2v8h-1.34v-8.27ZM1537.95,155.76h-1.93v-5.98h4.85c.64-1.3,1.17-2.59,1.59-3.87l1.35.5c-.6,1.41-1.15,2.53-1.65,3.37h2.37v5.98h-2.49v5.04c0,.28.07.44.22.49.12.05.47.07,1.03.07.43,0,.69-.05.8-.14.19-.16.3-.99.33-2.48l1.26.48c-.04.99-.1,1.73-.18,2.21-.11.64-.47,1.03-1.11,1.17-.31.07-.81.11-1.49.11-.9,0-1.49-.11-1.78-.33-.26-.19-.39-.53-.39-1.02v-5.62h-1.49v.47c0,2.15-.5,3.79-1.5,4.92-.57.65-1.47,1.27-2.68,1.85l-.91-1.07c.81-.34,1.46-.69,1.92-1.05.9-.71,1.47-1.67,1.71-2.88.11-.52.16-1.11.16-1.78v-.45ZM1537.91,149.57c-.43-1.24-.88-2.23-1.34-2.97l1.13-.56c.57.9,1.06,1.88,1.48,2.95l-1.27.58ZM1543.18,154.57v-3.59h-5.83v3.59h5.83Z"/>
    <path class="cls-13" d="M1551.15,150.49v12.39h-1.44v-9.97c-.82,1.2-1.65,2.23-2.49,3.09l-.72-1.35c2.16-2.29,3.84-5.15,5.04-8.6l1.4.4c-.5,1.35-1.1,2.7-1.79,4.04ZM1556.17,152.35c2.13-.9,3.97-1.9,5.5-3l1.1,1.06c-2.21,1.45-4.41,2.55-6.6,3.3v6.48c0,.4.19.64.58.72.36.07.95.11,1.78.11,1.34,0,2.21-.05,2.61-.15.33-.08.53-.32.6-.73.12-.69.2-1.64.23-2.85l1.48.51c-.05,1.39-.14,2.41-.27,3.07-.15.7-.53,1.15-1.14,1.34-.55.17-1.58.25-3.08.25-1.76,0-2.88-.08-3.35-.25-.56-.21-.84-.73-.84-1.55v-14.24h1.42v5.93Z"/>
    <path class="cls-13" d="M1565.34,163.05c.79-.9,1.42-1.74,1.9-2.5,1.22-1.94,1.83-3.95,1.83-6.04s-.54-3.91-1.63-5.75c-.51-.86-1.21-1.79-2.09-2.81h1.32c1.07.97,1.95,2.15,2.64,3.54.84,1.72,1.27,3.39,1.27,5.01,0,1.85-.53,3.72-1.6,5.63-.64,1.15-1.41,2.13-2.3,2.92h-1.32Z"/>
    <path class="cls-13" d="M1351.88,184.01c.46,0,.87.15,1.24.46.49.4.73.91.73,1.53,0,.38-.11.74-.33,1.06-.39.61-.95.91-1.67.91-.32,0-.62-.08-.91-.23-.23-.12-.42-.27-.58-.47-.32-.38-.48-.81-.48-1.3,0-.68.28-1.22.85-1.62.34-.23.72-.35,1.14-.35Z"/>
    <path class="cls-13" d="M1371,185.79c1.11,1.03,2.69,1.54,4.75,1.54h7.98c-.23.33-.4.71-.51,1.13h-3.16v.94h3.59v1.15h-3.59v2.65c0,.5-.13.86-.39,1.07-.23.19-.62.28-1.18.28-.8,0-1.65-.04-2.54-.13l-.31-1.26c1.02.12,1.84.18,2.47.18.23,0,.38-.04.45-.13.05-.07.07-.19.07-.35v-2.3h-12.06v-1.15h12.06v-.94h-2.86c-2.3,0-4.1-.63-5.4-1.88-.81.83-1.72,1.59-2.72,2.29l-.74-1.13c.93-.52,1.84-1.15,2.73-1.88v-2.43h-2.66v-1.19h4.02v3.55ZM1370.06,180.58c-.87-.86-1.72-1.57-2.56-2.14l.87-.91c.92.56,1.79,1.24,2.61,2.04l-.92,1ZM1373.16,193.68c-.98-.82-2.02-1.56-3.12-2.23l.92-.86c1.17.65,2.21,1.36,3.13,2.13l-.93.97ZM1376.18,179.79h-4.77v-1.03h2.89c-.23-.34-.48-.67-.76-.99l1.26-.4c.27.36.55.82.85,1.39h3.08s.06-.11.12-.23c.21-.38.4-.77.55-1.18l1.39.33c-.21.38-.44.74-.68,1.08h3.12v1.03h-5.57c-.13.29-.27.55-.4.77h4.47v5.99h-8.92v-5.99h3.04l.04-.1c.11-.24.21-.47.28-.68ZM1374.13,181.44v.83h6.28v-.83h-6.28ZM1374.13,183.1v.84h6.28v-.84h-6.28ZM1374.13,184.79v.91h6.28v-.91h-6.28Z"/>
    <path class="cls-13" d="M1393.97,178.36v1.13c0,3.47.68,6.27,2.03,8.41,1.24,1.96,3.12,3.63,5.63,5.02l-.99,1.27c-2.51-1.38-4.5-3.3-5.97-5.78-.65-1.1-1.14-2.43-1.46-4-.37,1.85-.96,3.45-1.76,4.81-1.24,2.09-3.14,3.8-5.7,5.12l-.99-1.22c3.11-1.46,5.25-3.6,6.42-6.42.77-1.88,1.25-4.21,1.42-6.99h-4.58v-1.34h5.94Z"/>
    <path class="cls-13" d="M1403.48,179.87h12.19v12.46h-12.51v-1.32h11.03v-9.85h-10.71v-1.29Z"/>
    <path class="cls-13" d="M1420.29,179.59h10.28l.88.81c-.88,2.26-2.05,4.38-3.49,6.35,1.97,1.55,3.81,3.27,5.52,5.17l-1.08,1.19c-1.61-1.85-3.36-3.62-5.27-5.31-1.96,2.35-4.35,4.14-7.18,5.38l-.83-1.27c2.82-1.15,5.18-2.87,7.07-5.15,1.62-1.96,2.79-3.93,3.5-5.89h-9.4v-1.27Z"/>
    <path class="cls-13" d="M1437.55,178.24h1.48v5c3.69,1.14,6.56,2.24,8.62,3.3l-.74,1.34c-2.33-1.19-4.95-2.26-7.88-3.23v9h-1.48v-15.41Z"/>
    <path class="cls-13" d="M1458.55,192.05c1.4-.36,2.54-.91,3.42-1.66,1.18-1,1.77-2.47,1.77-4.4,0-1.27-.3-2.39-.91-3.36-.83-1.34-2.2-2.14-4.11-2.43-.4,3.86-1.22,6.98-2.45,9.37-.52,1.01-1.03,1.74-1.53,2.19-.53.47-1.09.71-1.67.71-.78,0-1.48-.38-2.11-1.14-.34-.4-.62-.91-.83-1.53-.3-.84-.46-1.75-.46-2.73,0-1.68.47-3.21,1.42-4.59.93-1.37,2.13-2.35,3.59-2.93,1-.39,2.07-.59,3.22-.59,1.78,0,3.31.45,4.6,1.34,1.11.78,1.9,1.82,2.36,3.11.28.79.42,1.63.42,2.53,0,3.83-1.99,6.28-5.96,7.35l-.76-1.24ZM1457.38,180.16c-1.37.08-2.53.49-3.49,1.22-1.46,1.11-2.35,2.54-2.66,4.3-.08.45-.12.9-.12,1.34,0,1.38.3,2.46.91,3.24.35.45.71.68,1.09.68.43,0,.86-.32,1.28-.96.7-1.05,1.32-2.46,1.88-4.25.47-1.5.84-3.36,1.12-5.57Z"/>
    <path class="cls-13" d="M1476.79,181.41h5.09v9.55h-12.73v-8.78c-.42.26-.88.53-1.39.79l-.84-1.02c2.25-1.1,4.02-2.55,5.31-4.37l.89.65h5.26l.77.72c-.74.91-1.53,1.73-2.36,2.45ZM1467.16,193.45c2.01-.57,3.76-1.37,5.26-2.42l1.12.91c-1.61,1.17-3.39,2.06-5.35,2.68l-1.02-1.17ZM1475.09,181.41c.8-.71,1.45-1.39,1.96-2.04h-4.54c-.64.71-1.39,1.39-2.25,2.04h4.83ZM1470.58,182.51v1.71h9.86v-1.71h-9.86ZM1470.58,185.26v1.69h9.86v-1.69h-9.86ZM1470.58,188.01v1.85h9.86v-1.85h-9.86ZM1482.72,194.6c-1.45-.88-3.26-1.75-5.41-2.63l.95-.96c2.04.75,3.88,1.56,5.51,2.43l-1.05,1.15Z"/>
    <path class="cls-13" d="M1487.64,180.92v-3.47h1.39v3.47h1.98v1.27h-1.98v3.42c.71-.25,1.36-.48,1.92-.7l.17,1.23c-.78.32-1.48.59-2.09.81v6.2c0,.52-.12.88-.37,1.08-.22.19-.6.28-1.12.28-.59,0-1.17-.05-1.75-.14l-.24-1.39c.62.11,1.16.17,1.64.17.22,0,.35-.06.4-.17.04-.08.05-.18.05-.32v-5.22c-.74.25-1.52.5-2.34.73l-.41-1.33c1.19-.32,2.04-.57,2.56-.73.08-.02.14-.04.19-.06v-3.86h-2.59v-1.27h2.59ZM1490.16,192.53h11.92v1.24h-11.92v-1.24ZM1500.38,178.49v11.7h-8.28v-11.7h8.28ZM1493.47,179.72v3.9h5.5v-3.9h-5.5ZM1493.47,184.82v4.13h5.5v-4.13h-5.5Z"/>
    <path class="cls-13" d="M1506.45,182.12v-1.46h-3.28v-1.19h3.28v-2.03h1.24v2.03h3.21v1.19h-3.21v1.46h2.83v6.43h-2.83v1.55h3.45v1.19h-3.45v3.26h-1.24v-3.26h-3.51v-1.19h3.51v-1.55h-2.72v-6.43h2.72ZM1506.45,183.26h-1.58v1.49h1.58v-1.49ZM1506.45,185.8h-1.58v1.64h1.58v-1.64ZM1507.68,183.26v1.49h1.68v-1.49h-1.68ZM1507.68,185.8v1.64h1.68v-1.64h-1.68ZM1514.8,188.3v-2.58h1.29v2.58h3.33v1.2h-3.33v3.21h3.96v1.2h-9.27v-1.2h4.02v-3.21h-3.18v-1.2h3.18ZM1515.56,184.13c-1.14.97-2.46,1.79-3.96,2.44l-.79-1.05c1.45-.57,2.72-1.32,3.8-2.24-1.2-1.12-2.09-2.38-2.68-3.75h-.74v-1.2h7.38l.77.72c-.79,1.63-1.75,3.04-2.87,4.22,1.16.84,2.41,1.5,3.76,1.99l-.7,1.15c-1.5-.6-2.82-1.36-3.97-2.28ZM1513.18,179.53c.54,1.03,1.31,2,2.3,2.93.85-.88,1.55-1.86,2.11-2.93h-4.41Z"/>
    <path class="cls-13" d="M1523.37,185.85c-.9-1.12-1.75-2.02-2.56-2.72l.98-.93c.86.7,1.72,1.57,2.59,2.61l-1.01,1.04ZM1521.12,193.44c.97-1.56,1.87-3.57,2.68-6.03l1.13.77c-.67,2.24-1.54,4.32-2.63,6.26l-1.19-1ZM1524.09,181.33c-.74-1.01-1.58-1.92-2.52-2.73l.99-.88c.89.71,1.73,1.58,2.53,2.59l-1,1.02ZM1533.95,189.09l-.04-.16c-.42-1.79-.74-4.07-.96-6.84l-.04-.39h-5.7v4.25c0,2.04-.11,3.67-.33,4.88-.24,1.34-.71,2.55-1.41,3.64l-1.08-.95c.62-1.02,1.03-2.19,1.24-3.51.17-1.07.25-2.41.25-4.03v-5.48h6.94v-.35c-.05-.79-.08-1.69-.1-2.71h1.31c.04,1.35.08,2.37.12,3.06h3.75v1.2h-3.67c.12,2.13.33,3.96.61,5.5l.03.11c.55-1.12,1.07-2.49,1.56-4.12l1.15.58c-.61,1.87-1.38,3.66-2.31,5.37.33,1.29.69,2.29,1.1,2.98.15.25.25.37.32.37.06,0,.12-.13.18-.38.12-.55.22-1.29.29-2.22l1.12.76c-.13,1.4-.33,2.42-.58,3.07-.2.49-.47.74-.8.74-.36,0-.76-.31-1.21-.92-.48-.66-.92-1.61-1.32-2.87-1.05,1.56-2.16,2.81-3.33,3.74l-.93-.93c1.45-1.1,2.72-2.55,3.83-4.38ZM1527.74,183.44h4.68v1.13h-4.68v-1.13ZM1532.29,186.07v4.59h-4.41v-4.59h4.41ZM1529.11,187.17v2.37h1.93v-2.37h-1.93ZM1536.17,180.38c-.5-.97-.99-1.73-1.48-2.3l.99-.56c.57.6,1.09,1.35,1.56,2.23l-1.08.63Z"/>
    <path class="cls-13" d="M1548.16,187.76c1.05,1.08,2.26,1.99,3.65,2.72,1.12.6,2.57,1.17,4.34,1.72l-.86,1.24c-1.8-.68-3.27-1.36-4.39-2.05-1.01-.62-1.9-1.31-2.67-2.08l-.06-.06v5.29h-1.35v-5.12c-1.68,1.8-4,3.24-6.97,4.31l-.9-1.17c3.46-1.03,6.08-2.61,7.87-4.73v-1.3h-4.73v3.83h-1.37v-4.93h6.1v-1.42h-7.83v-1.15h7.83v-.91h1.35v.91h7.92v1.15h-7.92v1.42h6.37v3.45c0,.43-.14.73-.41.91-.19.12-.51.18-.97.18-.76,0-1.33-.03-1.72-.09l-.26-1.12c.49.08,1,.12,1.55.12.22,0,.35-.04.4-.12.04-.06.05-.17.05-.31v-1.92h-5v1.22ZM1544.51,180.06c.3.53.58,1.08.83,1.65l-1.34.42c-.33-.85-.64-1.54-.94-2.07h-1.12c-.53.81-1.1,1.5-1.71,2.06l-1.06-.85c1.11-.91,1.95-2.19,2.54-3.83l1.41.22c-.18.46-.36.88-.54,1.27h4.61v1.13h-2.67ZM1551.88,180.06c.36.53.68,1.05.95,1.56l-1.32.47c-.35-.77-.71-1.44-1.08-2.03h-1.18c-.42.72-.88,1.33-1.37,1.84l-1.01-.77c.88-.94,1.57-2.17,2.05-3.71l1.39.22c-.17.5-.33.93-.49,1.29h5.82v1.13h-3.75Z"/>
  </g>
  <g>
    <g>
      <path class="cls-14" d="M1265.61,347.05c-.13.17-.06.56.3.49l.26-.66-.56.18Z"/>
      <path class="cls-14" d="M1268.04,348.28c.42-.32.91-.88.64-1.49-.42.64-.52.37-.97,1.13-.36.08-.63-.21-.57-.46-.13.17-.56-.15-.76.27.47.51,1.07.53,1.69.11.13.15,0,.32-.03.44Z"/>
      <path class="cls-14" d="M1303.34,349.31l-.23-.08c.06.04.14.07.23.08Z"/>
      <path class="cls-14" d="M1325.2,349.67c-.17.02-.24.08-.24.14.15-.04.28-.08.24-.14Z"/>
      <path class="cls-14" d="M1328.94,350.4c-.08-.02-.15-.03-.22-.04.08.06.17.09.22.04Z"/>
      <path class="cls-14" d="M1303.34,349.31l.58.21c.04-.22-.3-.16-.58-.21Z"/>
      <path class="cls-14" d="M1272.91,346.68c-.12.03-.22.09-.32.17.1-.03.2-.05.3-.07,0-.04.01-.07.02-.1Z"/>
      <path class="cls-14" d="M1293.7,349.85h-.18c-.05.08-.1.17-.15.27l.33-.27Z"/>
      <path class="cls-14" d="M1286.3,349.95c.17.02.23-.54.29-.78-.09.23-.22.34-.36.39,0,.11.02.23.08.4Z"/>
      <path class="cls-14" d="M1274.57,348.96l-.21.08c.05-.02.15-.05.21-.08Z"/>
      <path class="cls-14" d="M1298.99,349.97c.01.08.04.16.07.2,0-.07-.03-.14-.07-.2Z"/>
      <path class="cls-14" d="M1505.91,345.74s0,.07,0,.1c.04-.06.06-.1,0-.1Z"/>
      <path class="cls-14" d="M1514.48,348.53l-.12.03c-.01.11-.03.21-.03.32l.14-.35Z"/>
      <path class="cls-14" d="M1335.77,351.12s-.02,0-.03-.01c-.18.06-.08.05.03.01Z"/>
      <path class="cls-14" d="M1398.49,350.71c-.71-.5,1.16-.65.09-1.2.1.22-.97.88-.09,1.2Z"/>
      <path class="cls-14" d="M1273.1,346.76c.1,0,.2-.01.3,0-.14-.02-.23-.02-.3,0Z"/>
      <path class="cls-14" d="M1398.58,349.51h0s-.11-.06-.11-.06c.05.02.07.04.11.06Z"/>
      <path class="cls-14" d="M1351.51,350.79c-.03-.1-.09-.17-.16-.25,0,.06.04.13.16.25Z"/>
      <path class="cls-14" d="M1339.78,349.99l.29.08c-.12-.05-.21-.07-.29-.08Z"/>
      <path class="cls-14" d="M1357.6,349.99c.16.04.21.12.43.05-.02-.03-.04-.05-.07-.07-.08.08-.18.11-.36.02Z"/>
      <path class="cls-14" d="M1363.94,349.99s-.08-.08-.12-.11c-.06.01-.14.02-.2.03l.32.08Z"/>
      <path class="cls-14" d="M1486.64,346.01c.14.16.23.33.29.51-.1-.4.83-.54-.29-.51Z"/>
      <path class="cls-14" d="M1272.91,347c.04-.14.09-.21.19-.24-.07,0-.14.02-.21.03-.02.08-.02.16.02.21Z"/>
      <path class="cls-14" d="M1357.86,345.56l1.01.08c-.28-.05-.65-.08-1.01-.08Z"/>
      <path class="cls-14" d="M1441.17,346.09l.23-.07c-.09-.01-.17,0-.23.07Z"/>
      <path class="cls-14" d="M1361.85,345.56c.18.2.37.31.57.39.04-.04.09-.08.12-.15l-.68-.24Z"/>
      <path class="cls-14" d="M1486.94,346.53s0,0,0,0c0,0,0,0,0,0Z"/>
      <path class="cls-14" d="M1493.57,345.19c-.96-.02-.45.72-.65,1.15-1.15.21-.53-.54-.92-.92-.72.2-1.26.87-1.8.84-.04-.12-.14-.17-.02-.32-.76.59-2.24.03-3.13.77-.07-.07-.1-.13-.12-.18.14.37.16.75.14,1.01-.43.01-.8.47-.96-.02.26.01.29-.18.41-.33l-.45.21c-.41-.69.62-.24.62-.75-.88.23-1.9.8-2.58.6-.14-.68,1.57-.23.68-.83l1.04.26c-.8-1.07.63.07-.1-1.07-1.37-.2-1.53.35-2.9.15-.31.38.1.56-.21.94-1.94.68-1.53-1.71-2.96-.8-.37.45-.51,1.31-1.53.86l.35-.77c-1.33-.08-.76,1.1-2.15.59.25-.3,1.04-.25.84-.35-.9-.61-.64.44-1.33.44l-.14-.68c-1.41.11-2.97.6-4.54.72.09-.2.35-.41-.01-.62-1.97.34-4.21-.08-6.12-.49l-.73.59c-.17,0-.31-.27-.13-.38-.74-.22-.04.37-.4.6-.42.04-.56-.34-.29-.51-1.31.5-3.73,1.07-5.11.44l.27-.17c-1.07-.24-1.21,1.2-2.21.66l.19-.1c-2.33-.25-4.91.28-6.69-.6-.34.85-2.31-.38-2.46.8-1.33-.58-.95-.79-2.83-1.19-.5-.05-.75.74-1.37.86l-.02-.62-.84.65-.45-.74-.58.16c.23.04.49.28.46.45-.91.28-2.21-.43-2.23-.75l-2.15.52c.05-.25.41-.33.69-.49-1.15.63-.21-.65-1.26-.07.14.14-.08.37-.1.49-.52-.37-1.71-.38-2.6-.22l.17-.43c-1.59-.11-3.36.2-5.14.2.64.2.49.93-.03,1.01l-.21-.65c-.34.4.55.25-.15.74-.67-.08-.45-.74-.07-.95l-.81.23c-.05-.19.14-.3.19-.55-.33.4-1.4-.65-1.88.05l-.05-.19c-1.79,0-2.6.22-4.05.25-.03.56-.6.44-1.03.89-1.07-.18-2.26-.62-3.54-.57-.91.28-.26.48-.67.81-.07-.51-1.35-.46-.69-.83-1.55.08-1.98.1-3.93.52.21.21.45.3.33.48-.35.08-.81-.21-.76-.46l.09-.05c-2.2.77-5.07-1.49-6.81-.43l.1-.05-1.81.56c-.83-.09.5-.39-.12-.7-1.96.85-3.09-.12-4.7.45-1.25-1.51-4.42.11-6.11-.86l.1.36c-.43.35-.53-.2-.85-.29.05.28.47.32.2.51-3.68.43-7.6-.52-11.38-.84-1.38-.1-.78,1.84-2.53.99l.49-.66c-2.79.79-5.7-.03-8.43.65.16-.15.17-.35.43-.35-.58-.48-2.13-.02-2.14.37-.43-.04-.1-.35-.36-.55-.58-.28-1.45.61-1.76.14-.05-.08.16-.16.27-.19-.38.23-1.76-.06-1.39.49-1.02-.26-1.96.25-2.78-.08-.53.62-1.75-.3-1.92.58.07-.9-1.8-.73-2.44-.3.22-.27-.56-.28-.31-.66-.74.01-1.42.18-1.29.65-1.36-1.08-2.74.87-3.5-.52-2.2.49-4.23.82-6.2,1.03.07-.9,2.18-.09,2.1-1.04-1.87.37-2.95,1.15-4.81.93-.48-.12.27-.39.44-.55-1.87.37-3.62-.08-5.28.41,0-.08.18-.18.35-.24-.33.03-.76-.13-.73.28l.32-.11c.52.6-1.3,1.24-1.36,1.56.56-1.18-1.65-.3-.76-1.78-.22.08-.49.27-.44.55-.32-.08-.42-.24-.1-.55-1.18.22-.76.66-1.82.65,0-.2.22-.28.33-.51-.54.39-1.08.77-1.98.61.05-.12-.05-.28.22-.27-1.55.06-2.64,1.03-4.33.66.5-.86-.58-.28-.67-1.03l-.91.22.37.36c-.8-.01-1.5.53-2.19.29l.59-.31-1.5.14.85.28c-.81.38.09.94-.98.74.22-.08-.8,0-1.22-.45,0,0,0,0,0,0-.4.24-.8.49-1.39.3-.15-.24.12-.83.02-.98-.39.62-1.87.17-2.36.84.16-.16.17-.55.12-.63l-.33.51c-.37-.16-.42-.24-.36-.55-1.11-.09.35.95-.97.54.1-.04.05-.12.27-.19-1.33-.21-2.56.32-3.78.07-.36-.75,1.07-.18.65-.82-1.76.14-3.64.9-5.34.72l.32.08c-.24,1.06-1.27-.52-2.13-.02.21-.08.28-.59.22-.47-1.17-.17-2.38.26-4.15.59l.22-.27c-.69-.24-1.81-.14-2.55-.26-.22.27-.64.23-.39.62-2.29-1.55-4.36.83-6.39-.46.24,0,.58-.24.39-.24l-1.73.25c.14.46.23.28.59.64-.22.27-.71.49-1.13.49.78-.31,0-.74-.34-1,.06.14-.06.3-.03.44-.9-.82-.15.93-1.38.38l.07-.24c-.46.12-.89.44-1.38.38-.21-.53.49-.25.52-.69-.7.03-1.38,1.01-2.01.48.3-.15.72-.15,1.02-.3-.69-.63-.77-.47-1.28-.57h.05s-1.18-.27-1.18-.27l.3.17c-.87,1.39-1.78.25-2.96,1.17,1.14-.86.19-.5.28-1.11-.3-.17-.76-.36-.63-.53-.56.49-.93-.38-1.71.33-.04-.19-.6-.02-.47-.51-.72.15.17.34.11.58-1.12.67-2.62-.81-4.23.11-1.38.38-1.64,1.03-2.92,1.36-.43-.31.35-.71.35-.71-.7-.29-1.23-.23-1.88-.01.13-.17,0-.31-.2-.53-.53.05-.35.71-1.05.42.12-.22.27-.57.53-.78-.62.18-1.24.54-1.88.72-.17-.34.39-.52.62-.74-.72.15-1.88.31-2.1.85l.47.19c-.26.03-.14-.46.06-.56.62-.42.9.19.93.38l-.46.12c.47,1.14,1.85-.18,2.77-.12l-.39.83.95-.69c.2.22.34.68-.12.81.66.41.59-.3,1.16.16.06.07.03.11-.02.14l.65-.25c-.13.17.11.59-.29.47,1.16.48,1.87-.62,2.31,0l-.1.05c1.61-.28.16-.61,1.37-1.33l.81,1.51.16-.61c.17.02.5.07.43.31.62-.42-.11-.27.25-.66.8.56,2.21-.26,2.39.71.29-.46-.77-.36.09-.68.24,1.05.99-.18,1.72.3-.22.54-.92.25-.19.74.44-.91,1.42.2,2.04.02.03-.73,1.34-.3,2.38-.54-.07.24,1.95.4,2.91.66l-.03.12c.19-.73,1.18-.6,1.9-.75-.03.44-.16.61-.55.81h.68c.16-.24.37-.36.81-.45l-.17.55c.91-.03,1.82-.65,2.99-.28.07-.51-.93-1.43.31-1.77.05.28.09.75-.23.86.11-.04.38-.23.59-.11l-.49.47c.53.2.28-.39.7-.35,0,.4.31.28.25.6-.11.04-.37-.16-.53,0,.48.07,1.06.31,1.25.6-.04-.22,0-.53.35-.58.91-.03.31.47.84.68.22-.27.8.01.81-.58.27,0,.31.28.42.44.47-.26,2.19-.07,1.66-.7l-.12-.04s.05-.01.08-.03h0,0c1.54-.59,3.19.33,4.71.08v.2c.91-.23,2.02-.13,2.67-.56.27,0,.64.36.52.6.7-.15.77-.37,1.78-.04-.7.34.24.31-.72.25.9.17,1.11.49,2.08-.05-.33.51.68.64,1.11.49l-.63-.36c.48-.07.91-.03,1.33.01l-.23.67c1.85.81,3.33-1.38,4.74-.02.49-.47-1-.33-.57-.87.85.09,1.74,1.04,2,1.05,1.17.37,1.09-.97,2.31-.72-.16-.24-.3-.87.61-1.09.85.09,1.05,1,.51,1.19-.2.02-.3-.06-.29-.14-.28.09-.64.19-.3.45l.11-.24c.42.24,1.59.22,1.32.61.64-.23.28-.39-.2-.51,1.09.34,1.71.01,2.83.24-.18-.13-.34-.41-.17-.41,1.65.29.73-.45,1.84-.55.63.36-.23.86.9.56.69.25.15.63-.13.82,1.02-.46,1.91.3,2.5.38l-.54.19c.32-.11.59-.11.86-.11l-.31-.48c.32.08.58.09.58.28.33-.31-.25-.79.4-1.21.42.24,1.29-.26,1.43.37-1.33-.21.15.63-.98.73.22-.08.48-.07.8.01.05.07-.04.13-.13.17,1.27.56.58-.71,1.9-.7-.17.35.31.67.52.6-.53,0-.25-.59.23-.86.84.28.92-.21,1.36-.17l-.5-.13c.17-.35.59-.31,1.18-.42.05.28-.53.19-.32.31.65-.62,1.48.65,2.39.23.42.24.04.67.41.83,1.02-.46,1.11.49,2.18.11-.31-.48-.36-.36.39-.83l-1.77.34,1.13-.69c-.53,0-1.12.3-1.44.22.54-.39.48-.27.23-.67.73.72,1.45-.42,2.29.07l-.03,1.18c1.27.53,2.25-.61,3.9-.31l-.53-.21c.22-.47,1.02-.07,1.55-.26-.05.4.28.54.51.78-.03-.29,1.2.03,1.35-.76l.73.52c1.33.21,1.52-1.12,2.79-.99-.38.43.2.71-.66,1.02.43,0,.81.08.82-.2.25.25,1.18-.53,1.57-.16.18-.17.24-.59.72-.55.05.08,0,.2,0,.2,0-.2.75-.27.33-.7,1.31,1.23,3.67-.09,4.81.97.93-.13,2.05-.26,2.9-.29-.05.12,0,.2-.16.16,1.17.37.72-1.13,2.04-.72.68.64-.7.35-.28.59.18,1.3,1.6-.18,2.49.58l-.22.08c.68.44,1.66-.49,2.78-.4,0,0-.05.11,0,.2.76-.66,2.2-.88,3.28-1.07-.33.51-.49.27-.28.79.48-.07-.14-.83.82-.97.31.28,1,.52,1.1,1.07l-.9.03c.46.71,1.17-.02,1.65.1l-.06.31c1.39-.1,1.41-.89,2.9-.83l-.15-.24c.81-.78.68.44,1.49-.14l.25.79c.54-.19,1.88-.76,2.85-.91-.55.59-1.67.88-2.37,1.23.53,0,1.81-.06,2.09-.45-.21.08-.49.27-.7.15.65-.62,1.51-.93,2.57-.91-.19,1.53,2.77.39,3.54,1.57,1.88-.57,3.72.24,5.91.15-.78-1.19.64-.03.5-1.26.51-.08.7-.06.75.02l1.54.73c.37.36-.48.27-.44.54,1.12.09.47.52,1.21.84-.15-.44.39-.63,1.02-.46l-.9-.56c1.56-.65,1.35,1.03,2.92.38l-.5.38c.81-.23,2.97,0,3.77-.97.14.14.33.48-.02.56,1.93.15,4.29-1.05,5.79-.44l-.15.3c.36-.09.63-.56,1.08-.26-.02.12-.14.3.02.32.19-.1.96-.52,1.43-.35l-.41.34c1.88.39,2.88-.82,4.46-1.02,0,.88,1.47,1.17,2.21,1.31l-.03.12c2.19.11,3.72-.73,5.74-1.08,1.26.96,4.26.4,6.28.94-.31-.16.05-.69.41-.77.47.18,1.31-.61,1.24.2l-.17-.02c.36.79,1.33.58,2.09.6l.13-1.06c1.99,1.54,5.22-.56,6.31.81.48-.26,1.08-.26,1.55-.52l-.03.57c1.33.14,2,.22,3.64.08l-.34.4c.93.04,1.17-1.63,2.03-1.67l.26.85c1.62-.01,3.26.73,4.86-.04-.03.12-.07.37-.34.4.76.02,2.95.57,2.67-.59.02.76,1.67.07,2.55-.26l-.14.56c.74-.71.76-.91,1.79-1.1.24.07.21.45-.11.3.81.29.63-.53,1.62-.23l-.37.36c.84.04.77-.15,1.23-.56.53-.22,1.59.14,1.71.64.11-.31.57-.72,1.07-.57.07.19-.11.31-.2.37,1.4.38,2.08-.65,3.05-.1.02.18.08.28.16.33-1.11-.01-2.01-.04-1.93-.08,0,.51.9.6.18,1.31.72-.39,1.96-1.23,2.83-.99.04.05.08.1.12.18l-.09.06c.2.05.38,0,.55-.08.28.08.46.15.73.15.1.43,1.03.23,1.48.25-.04-.56.55-.47,0-.94.07.04-.08.07-.38.09-.07.02-.15.02-.19.06,0-.02.02-.03.03-.05-.29.02-.68.03-1.11.04.35-.29.72-.53,1.22-.21.23-.36.48-.73.63-.91.61.78,1.8,1.21,1.96,1.69,1.37-.32,3.22-.21,4.08-1.26.39-.14.45.3.59.47-.22.11-.49.09-.61.24.78-.27,2.31-.11,2.49-.84.98.33-.55.68.8.56l-.18.23c2.65,1.18,4.31-1.88,7.25-.37-.2-.09-.31-.14-.35-.26,3.35.67,6.9-.63,10.21.43.94.21,1.04-.26,1.62-.62l.2.6.98-.7c1.39-.51,2.41,1.48,4.17.52l-.23-.41c.63.08,2-.24,1.9.23.06-.07.21-.42.45-.21l.02.32,1.55-.54c1.2.23-.19,1.25,1.57,1.32.65-.12,1.86-.92,1.61-1.13-.26-.02-.67-.2-.69-.51l.6-.16c.11-.93.57-1.88-.9-2.54l-1.02.57-.33-.45.86-.03c-.49-.43-.8-.05-1.14.21-.08-.24-.23-.41-.43-.5l-1,.89c-.12-.36.45-.72-.22-.92-.47.41.45.82-.33,1.09-.49-.42-.35-.77-.92-.41-.08-.24.04-.39.27-.5-.51.29-1.35.12-1.62.62-.51-.52-1.72.14-1.67-.75-.16.21-.9.69-1.37.73.86-1.06-1.76-.06-1.53-1.19-.63.95-2.29.42-3.41.95.06-.08.19-.23.29-.18-.63-.08-.82-.36-1.22-.54-.08.78-1.07.96-1.6,1.45-.78-.76.47-.92.23-1.65.04.64-1.35.63-1.08,1.16-.59-.47-.51-.23-.82-.88-.1.98-.55.17-1.04.77-.86-.48-.22-.92-1.16-.62-.45-.3.39-.65.39-.65ZM1471.16,346.88h0c.19-.02.36-.04.46-.04-.1,0-.23.02-.46.04ZM1469.28,346.89c.23.02.51.03.82.02.07.19,0,.39-.19.38.1-.13-.34-.24-.62-.41ZM1473.26,350.79c-.3.08-.4-.03-.44-.15.14,0,.31-.03.52-.07,0-.02.03-.04.04-.07-.03.11-.06.21-.12.28Z"/>
      <path class="cls-14" d="M1473.8,350.05s.07-.04.12-.04c-.06-.05-.12-.09-.18-.13-.04.06-.07.12-.11.18.05,0,.11,0,.16,0Z"/>
      <path class="cls-14" d="M1303.07,349.22h.04s-.06-.03-.08-.07c.03.03.03.04.04.07Z"/>
      <polygon class="cls-14" points="1443.27 345.82 1443.27 345.96 1443.44 345.84 1443.27 345.82"/>
      <path class="cls-14" d="M1292.69,347.29s-.06-.1-.14-.14c0,.04.06.09.14.14Z"/>
      <path class="cls-14" d="M1288.21,347.16l-.63-.2c.27.11.47.17.63.2Z"/>
      <path class="cls-14" d="M1284.77,346.88c-.04.1-.06.17-.07.24,0,0,0,0,0,0l.06-.25Z"/>
      <path class="cls-14" d="M1339.55,346.22s.09-.01.13-.03c.31-.11.1-.07-.13.03Z"/>
      <path class="cls-14" d="M1323.24,347.54c.17-.1.34-.2.52-.27-.29-.04-.52-.05-.52.27Z"/>
      <path class="cls-14" d="M1357.75,345.55s0,0,0,0c.04,0,.07,0,.11,0h-.11Z"/>
      <path class="cls-14" d="M1324.53,347.28c-.29-.11-.53-.09-.76,0,.24.04.52.1.76,0Z"/>
      <path class="cls-14" d="M1269.84,346.63l-.17-.02s0,.07-.02.09l.19-.07Z"/>
      <path class="cls-14" d="M1269.65,346.7l-.18.07c.08,0,.16,0,.18-.07Z"/>
      <path class="cls-14" d="M1269.08,346.9l.39-.14c-.13,0-.3-.02-.39.14Z"/>
      <path class="cls-14" d="M1274.4,346.89l.05-.2s-.05.11-.05.2Z"/>
      <path class="cls-14" d="M1275.78,346.83c-.33-.05-.83-.43-1.29-.31l-.04.16c.22-.3,1.02.49,1.33.15Z"/>
      <path class="cls-14" d="M1281.57,349.35l-1.16-.16c.2.22.47.51-.06.56,1.46.65-.3-.49,1.22-.4Z"/>
      <path class="cls-14" d="M1285.17,349.67c-.62.1,0,.32-.03.44.4-.2.49-.25.03-.44Z"/>
      <path class="cls-14" d="M1311.19,349.67l-.06.51c.48-.07,0-.2.06-.51Z"/>
      <polygon class="cls-14" points="1316.17 347.02 1315.7 346.71 1315.48 347.17 1316.17 347.02"/>
      <polygon class="cls-14" points="1319.11 350.67 1318.9 350.74 1319.7 350.56 1319.11 350.67"/>
      <path class="cls-14" d="M1362.81,350.49l-.15-.63c-.33.11-.39.82.15.63Z"/>
      <path class="cls-14" d="M1381.68,349.84c.21.32.74.52,1.06.21-.42-.04-.85-.29-1.06-.21Z"/>
      <polygon class="cls-14" points="1438.27 350.87 1437.89 351.08 1438.6 350.91 1438.27 350.87"/>
    </g>
    <g>
      <path class="cls-14" d="M1477.07,365.51c.02.18.2.53.29.4l-.17-.65-.12.24Z"/>
      <path class="cls-14" d="M1478.37,366.29c.02-.36-.04-.95-.37-1.47.11.65-.03.42.11,1.18-.09.12-.3-.11-.37-.34.02.17-.25-.05-.15.36.36.4.57.34.61-.14.1.11.13.29.16.41Z"/>
      <path class="cls-14" d="M1490.72,362.19l-.11-.04s.07.04.11.04Z"/>
      <path class="cls-14" d="M1498.27,359.4c-.05.04-.05.11-.03.17.04-.06.06-.12.03-.17Z"/>
      <path class="cls-14" d="M1499.81,359.53s-.06,0-.09,0c.05.04.09.06.09,0Z"/>
      <path class="cls-14" d="M1490.72,362.19l.28.11c-.07-.2-.16-.1-.28-.11Z"/>
      <path class="cls-14" d="M1479.4,364.13s-.04.12-.04.21c.02-.04.05-.08.07-.11-.01-.03-.02-.06-.03-.1Z"/>
      <path class="cls-14" d="M1487.67,364.07l-.06.03c.01.08.03.17.05.27v-.3Z"/>
      <path class="cls-14" d="M1485.2,365.22c.07,0-.13-.53-.21-.76.06.23.06.35.03.41.04.1.1.21.18.36Z"/>
      <path class="cls-14" d="M1480.85,365.99l-.04.1s.03-.06.04-.1Z"/>
      <path class="cls-14" d="M1489.51,363.42c.04.08.07.14.1.18-.03-.07-.06-.12-.1-.18Z"/>
      <path class="cls-14" d="M1479.47,334.77s.03-.06.04-.09c-.04.05-.06.08-.04.09Z"/>
      <polygon class="cls-14" points="1477.65 330.98 1477.7 330.97 1477.83 330.68 1477.65 330.98"/>
      <path class="cls-14" d="M1502.41,359.22s0,0-.01,0c-.04.08,0,.06.01,0Z"/>
      <path class="cls-14" d="M1520.77,346.85c-.22.18-.67.17-1.07.18-.41,0-.78.04-.99.26.29-.12,2-.11,2.07-.43Z"/>
      <path class="cls-14" d="M1479.49,364.17s.06-.04.1-.05c-.05,0-.08.02-.1.05Z"/>
      <path class="cls-14" d="M1518.71,347.28h0s-.04.04-.04.04c.02-.02.03-.03.05-.04Z"/>
      <path class="cls-14" d="M1507.61,356.65c-.05-.09-.1-.15-.15-.2.02.05.06.11.15.2Z"/>
      <path class="cls-14" d="M1503.32,357.6l.13.03c-.06-.03-.1-.03-.13-.03Z"/>
      <path class="cls-14" d="M1509.36,355.05c.07.02.12.08.16-.02-.02-.02-.03-.04-.05-.05,0,.08-.02.13-.11.07Z"/>
      <path class="cls-14" d="M1511.5,354.14s-.06-.06-.08-.09l-.06.06.14.03Z"/>
      <path class="cls-14" d="M1486.09,337.28c.01-.17.05-.34.1-.51-.12.38-.49.38-.1.51Z"/>
      <path class="cls-14" d="M1479.52,364.42c-.04-.14-.05-.21-.03-.25-.02.02-.04.04-.06.06.03.08.06.15.09.19Z"/>
      <path class="cls-14" d="M1507.72,350.93l.37-.07c-.12,0-.25.02-.37.07Z"/>
      <path class="cls-14" d="M1501.52,343.71l-.1.03s.06.02.1-.03Z"/>
      <path class="cls-14" d="M1509.07,350.36c.14.16.25.24.34.28,0-.05,0-.09-.02-.15l-.33-.13Z"/>
      <path class="cls-14" d="M1486.19,336.77h0s0,0,0,0Z"/>
      <path class="cls-14" d="M1483.43,337.05c.32.15.43-.6.67-.96.47-.03-.03.58-.05.98.32-.08.77-.62.94-.52-.03.12-.02.17-.12.3.48-.43.77.29,1.36-.26,0,.07-.02.13-.03.19.1-.36.23-.71.35-.95.15.05.45-.32.32.15-.08-.05-.17.13-.27.25l.23-.13c-.13.7-.3.13-.5.61.39-.08.96-.46,1.11-.19-.22.65-.62-.01-.55.67l-.25-.39c-.15,1.1-.19-.16-.38,1,.39.38.65-.1,1.04.28.25-.3.18-.53.43-.83.92-.35-.15,1.79.69,1.16.3-.36.68-1.13.85-.57l-.42.66c.42.26.69-.91.96-.23-.2.24-.45.08-.42.2.07.69.39-.31.62-.21l-.22.65c.52.1,1.24-.13,1.82-.02-.11.17-.28.33-.24.58.8-.03,1.39.68,1.88,1.32l.47-.44c.05.03,0,.29-.1.37.16.31.16-.34.37-.5.16.02.06.39-.1.51.64-.27,1.68-.45,1.9.32l-.16.12c.27.37.88-.93,1-.29l-.11.07c.69.57,1.77.44,2.03,1.51.44-.73.63.68,1.14-.39.22.73.01.87.49,1.5.15.12.54-.57.8-.6l-.23.57.54-.48-.14.74.26-.06c-.06-.07-.06-.33.02-.48.42-.13.58.71.47,1.01l.93-.17c-.11.22-.27.25-.43.35.63-.42-.18.63.4.25,0-.15.17-.33.23-.44.03.42.43.59.79.57l-.22.37c.5.33,1.22.29,1.82.56-.14-.27.2-.93.4-.92l-.18.63c.27-.32-.09-.3.34-.66.2.16-.14.75-.35.89l.36-.09c-.06.19-.16.25-.28.47.27-.33.22.8.66.22l-.06.19c.6.26.96.17,1.47.35.23-.51.37-.32.7-.67.29.32.52.9.98,1.04.42-.13.28-.4.54-.65-.18.48.28.62-.09.86.56.14.71.19,1.53.09.01-.22-.04-.34.07-.49.15-.03.19.31.08.53l-.05.04c.62-.16.59.24.5.57-.08.33-.36.54.23.21l-.06.03c.23-.1.5-.19.8-.26,0,.1-.51.2-.81.42.58-.22.68-.14.65-.08-.01.07-.14.13.43.05-1.19.32-1.17.3-.91.3.23,0,.72.03-.36.09l.82-.04c.84-.02-.44.04-.63.04.57-.02.64-.02,1.21-.05.23.02.38.04.45.07-.15.07-.72.12-1.24.12-.53,0-1-.06-1.2-.12-.11-.06,2.7.86,1.3.52-.27-.12-.56-.24-.85-.36.48.23.3.29.19.32-.14.03-.21.02-.17.37-.06-.14-.16-.31-.14-.32-.15-.2-.16-.2-.14-.1-.08.14-.15.41-.07.59-.16.02-.17-.31-.34-.46-.31-.18-.25.77-.54.38-.05-.06,0-.17.02-.22-.04.27-.62.2-.28.66-.45-.1-.57.51-.97.32.06.65-.71-.02-.43.81-.33-.84-.89-.42-.95.07-.03-.28-.3-.18-.36-.57-.25.12-.41.37-.18.78-.88-.8-.59,1.19-1.39.03-.55.76-1.11,1.36-1.7,1.83-.33-.84.7-.4.31-1.26-.49.61-.55,1.48-1.27,1.54-.21-.04-.06-.4-.06-.56-.49.61-1.26.44-1.63,1.13-.03-.08,0-.19.02-.28-.1.07-.31-.01-.14.36l.07-.15c.41.47.04,1.33.15,1.63-.27-1.16-.67-.04-.95-1.53-.04.1-.06.32.06.57-.14-.03-.24-.16-.25-.49-.31.37,0,.72-.36.86-.08-.18-.03-.28-.09-.52-.03.43-.06.87-.43.84-.03-.12-.12-.25-.03-.28-.5.28-.49,1.33-1.21,1.22-.17-.87-.31-.18-.63-.85l-.22.34.27.28c-.28.1-.3.7-.63.58l.08-.37-.45.34.4.14c-.12.47.4.86-.04.82.04-.1-.27.11-.59-.24h0c-.04.27-.08.56-.35.48-.15-.2-.28-.78-.38-.91.11.63-.57.43-.47,1.11,0-.17-.15-.53-.2-.6l.09.51c-.19-.1-.24-.16-.34-.46-.41.07.49.82-.12.63.02-.05-.03-.12.02-.22-.53,0-.74.66-1.25.61-.41-.64.29-.32-.1-.85-.54.38-.88,1.35-1.53,1.43l.14.03c.33,1.01-.63-.3-.73.28.04-.1-.14-.58-.11-.47-.46,0-.7.58-1.17,1.14l-.03-.28c-.33-.13-.67.13-.97.12.03.28-.13.3.11.63-1.38-1.1-1.15,1.39-2.34.49.08-.04.1-.3.04-.27l-.49.48c.23.41.19.23.45.5.03.28-.05.55-.19.61.14-.39-.29-.68-.51-.87.07.12.1.28.16.41-.63-.63.31.88-.32.54l-.07-.23c-.11.18-.13.54-.32.54-.28-.46.07-.3-.09-.71-.22.13-.07,1.13-.49.73.04-.18.19-.24.23-.42-.48-.48-.44-.32-.65-.34h.02s-.51-.09-.51-.09l.17.11c.25,1.41-.5.49-.55,1.5.05-.96-.13-.49-.34-1.06-.17-.11-.4-.22-.42-.4,0,.53-.46-.22-.45.55-.09-.17-.21.07-.36-.4-.19.24.19.29.26.52-.12.77-1.2-.37-1.39.7-.32.54-.15,1.19-.46,1.67-.27-.23-.16-.71-.16-.71-.35-.16-.51-.04-.64.26-.02-.18-.12-.29-.28-.46-.16.12.16.7-.19.54-.04-.22-.13-.56-.13-.8-.14.25-.21.68-.36.93-.19-.29-.07-.53-.08-.77-.19.24-.52.55-.38,1.08l.23.11c-.08.06-.23-.41-.2-.52.05-.48.38.04.46.22l-.11.18c.61.99.55-.43.89-.5l.19.82.05-.77c.15.17.38.58.27.76.38.28.08-.36.45-.02.05.06.06.1.05.14l.12-.32c.03.18.27.53.08.47.58.28.39-.84.79-.33v.06c.42-.49-.2-.59-.07-1.42l.86,1.27-.18-.59c.06,0,.19,0,.27.23.05-.47-.14-.23-.17-.64.49.4.65-.56,1.09.31-.08-.47-.4-.22-.24-.64.49.93.26-.31.7.03.13.53-.21.37.22.7-.21-.9.56-.02.7-.27-.27-.67.34-.47.59-.84.07.23.82.09,1.24.19l.04.12c-.22-.7.17-.72.35-.96.16.41.19.59.13.82l.23-.1c-.04-.24-.01-.38.1-.52l.16.53c.29-.16.37-.86.9-.69-.18-.48-.87-1.18-.59-1.67.12.25.32.68.26.83.02-.05.04-.27.16-.19v.5c.27.11-.04-.4.12-.42.15.37.22.21.32.51-.02.05-.19-.1-.18.07.19,0,.48.13.66.38-.1-.2-.21-.49-.11-.59.3-.16.29.39.55.5-.03-.28.27-.1.05-.65.09-.04.21.21.31.34.06-.31.71-.38.29-.89l-.06-.02s.01-.02.02-.03h0s0,0,0,0c.29-.76,1.21-.15,1.63-.6l.08.18c.22-.34.63-.41.69-.9.09-.04.36.24.41.47.18-.24.12-.45.58-.3-.1.42.2.25-.14.34.37.03.56.29.68-.35.09.51.48.49.56.29l-.36-.24c.13-.14.3-.16.46-.18l.18.65c.94.48.59-1.75,1.6-.7-.02-.5-.47-.16-.53-.72.32-.04.99.71,1.09.68.54.17-.01-1.05.5-.99-.15-.2-.44-.76-.22-1.09.32-.04.74.77.63,1.02-.06.05-.12,0-.15-.08-.06.12-.14.26.07.45l-.06-.23c.24.16.62-.03.68.37.13-.3-.06-.4-.27-.44.5.16.58-.23,1.05-.18-.11-.09-.28-.33-.21-.35.67.03.07-.52.41-.77.36.24.26.83.52.39.33.13.29.56.28.78.17-.57.77,0,1,0l-.11.25c.06-.15.16-.19.25-.22l-.29-.39c.14.03.23,0,.31.18-.01-.33-.39-.69-.34-1.18.24.16.33-.42.63.14-.53,0,.3.56-.04.82.04-.1.13-.14.27-.1.04.06.04.13.02.17.65.34-.08-.74.37-.91.08.35.37.58.41.48-.18.07-.32-.51-.26-.83.39.13.23-.32.39-.35l-.22-.05c-.08-.35.08-.37.24-.56.12.25-.11.25.01.33-.02-.67.75.38.9-.13.24.16.27.61.46.71.17-.57.56.29.78-.21-.29-.4-.26-.28-.19-.82l-.47.56.11-.8c-.18.07-.26.44-.4.41.03-.44.06-.32-.18-.65.53.55.33-.59.8-.27l.45,1.09c.63.3.53-.88,1.2-.84l-.26-.11c-.11-.46.32-.21.42-.46.14.37.31.46.48.65-.12-.27.42-.15.16-.9l.45.37c.53,0,.08-1.25.56-1.31.04.45.34.62.17,1.03.15-.06.3-.05.2-.3.18.19.19-.66.47-.37,0-.19-.15-.57.03-.61.05.07.08.18.08.18-.08-.18.15-.35-.16-.69.92.95,1.21-.61,2.01.2.26-.26.59-.53.87-.68.03.12.08.18,0,.17.54.17-.2-1.15.41-.96.48.49-.1.42.13.58.29.58.39.49.54.31.22-.21.39-.48.83-.26l-.07.11c.3.11.48-.09.61-.33.14-.24.24-.51.55-.59,0,0,.07.1.16.15-.15-.66.22-1.05.44-1.34.45.36.09.25.78.52.14-.14-.99-.48-.79-.72.45.11,1.06.12,1.85.38l-.41.21c1.14.29.57-.27.96-.3l.41.17c.62-.37-.61-.71.15-.96l-.47-.06c-1.02-.42,1.07.02.38-.31l1.58.19c-.07-.18-.6-.57-.57-.75,1.06.19,1.12.49,1.42.74.29-.12.86-.43.15-.55.06.06.33.15-.03.17-.95-.27-1.3-.45-.85-.63,2.27.13,2.55-.15,3.37-.37-.13-.12-.07-.24.77-.33-1.21-.21-1.54-.41-1.84-.66-.28-.25-.53-.55-1.26-.81-1.73.56-.42-.14-2.5.31-.37-.07-.41-.11-.3-.15.17-.19.31-.4.4-.62.34-.24.68,0,1.08-.13-.52-.32.51-.35.5-.7-.54.25-1.13.2-1.3-.05-.06.18-.14.35-.24.51-.89-.02-.71-.23-.59-.45.13-.22.2-.47-.65-.48l.75-.1c-.75-.07-1.99-.85-3.2-.3.03-.14.17-.45.45-.42-.54-.31-1.37-.38-2.03-.43-.16-.01-.35-.04-.45-.04-.1,0-.19,0-.27-.03-.17-.04-.3-.14-.36-.33l.17-.25c-.16.03-.43.43-.47.09.06-.11.17-.25.12-.29-.1.07-.53.35-.62.12l.27-.25c-.48-.63-1.3.34-1.91.3.34-.81-.05-1.29-.24-1.52l.06-.11c-.7-.41-1.54.14-2.36.17-.05-1.06-1.29-.98-1.76-1.76.04.19-.28.62-.44.65-.09-.23-.68.37-.34-.36l.05.04c.19-.78-.22-.73-.47-.86l-.45.95c-.08-1.7-1.99-.23-1.82-1.65-.27.17-.47.09-.73.26l.23-.52c-.39-.32-.59-.48-1.2-.6l.27-.32c-.3-.17-1.03,1.34-1.34,1.24l.24-.82c-.55-.22-.82-1.14-1.66-.66.06-.11.17-.33.27-.32-.25-.13-.78-.95-1.13.16.29-.7-.54-.31-.96-.13l.26-.49c-.53.55-.61.73-1.04.76-.05-.1.1-.44.16-.26-.16-.39-.42.4-.64-.02l.26-.28c-.27-.16-.32.03-.64.34-.27.13-.48-.36-.33-.84-.16.27-.47.58-.58.38.05-.18.16-.27.21-.31-.33-.55-.96.3-1.07-.34.07-.17.08-.27.07-.33.37.17.66.33.62.35.2-.47-.07-.68.45-1.24-.4.25-1.14.85-1.34.5,0-.05.01-.1.03-.18l.05-.04c-.05-.08-.13-.06-.22,0-.06-.12-.1-.2-.19-.25.13-.41-.26-.36-.4-.44-.21.52-.37.36-.36.86,0-.05.05-.05.16-.03.03,0,.06,0,.09-.03l-.03.04c.11.03.24.07.39.12-.23.21-.45.38-.5.02-.22.3-.45.61-.57.75.1-.81-.14-1.37,0-1.84-.59.09-1.17-.27-1.88.58-.18.07-.03-.34-.02-.52.12-.07.2-.01.3-.13-.37.14-.82-.23-1.17.42-.2-.45.45-.55-.05-.63l.15-.18c-.44-1.47-2.19,1.12-2.6-.7.03.11.05.17.02.29-.87-1.09-2.58-.41-3.29-1.86-.23-.33-.45.09-.79.34l.17-.59-.6.5c-.67.27-.24-1.71-1.21-1.07l-.08.41c-.18-.16-.77-.07-.55-.48-.05.06-.23.36-.24.13l.12-.29-.74.28c-.32-.38.55-1.13-.02-1.44-.27.02-.99.58-.99.81.08.05.15.28.03.57l-.27.07c-.4.84-.93,1.65-.68,2.46l.57-.38-.06.46-.3-.1c0,.46.25.16.47-.03-.07.23-.08.41-.05.52l.69-.68c-.1.35-.43.6-.28.88.32-.31.17-.82.53-.96,0,.46-.18.76.15.51-.07.23-.17.36-.28.42.28-.19.5.08.79-.34-.03.55.64.12.28.93.14-.17.57-.51.75-.48-.7.85.57.31.05,1.32.58-.78.94-.06,1.53-.38-.05.06-.15.18-.17.12.18.16.13.45.2.68.33-.71.74-.73,1.1-1.1-.03.81-.52.78-.72,1.48.23-.59.7-.39.82-.92.02.52.08.28-.07.92.42-.89.25-.07.65-.56.1.57-.28.88.15.74.03.34-.38.54-.38.54ZM1491.67,338.69s0,.01,0,.01c-.07-.02-.13-.03-.17-.04.04,0,.09.01.17.03ZM1492.31,338.96c-.07-.05-.16-.1-.27-.14.05-.19.16-.36.22-.33-.09.1.02.27.05.46ZM1492.48,334.8c.13-.03.12.09.09.2-.05-.01-.11-.02-.2-.01-.01.02-.03.04-.04.06.05-.09.1-.18.15-.24Z"/>
      <path class="cls-14" d="M1492.01,335.4s-.04.02-.06.02c0,.05,0,.1.01.14l.1-.15h-.06Z"/>
      <path class="cls-14" d="M1490.6,362.15h.02s-.04-.03-.06-.06c.02.02.03.04.04.06Z"/>
      <polygon class="cls-14" points="1500.7 343.67 1500.75 343.54 1500.65 343.63 1500.7 343.67"/>
      <path class="cls-14" d="M1486.33,361.85s-.06-.08-.1-.11c.02.03.06.07.1.11Z"/>
      <path class="cls-14" d="M1484.77,362.38l-.29-.09c.14.07.23.09.29.09Z"/>
      <path class="cls-14" d="M1483.49,362.62c.02.1.05.17.07.23h0s-.07-.23-.07-.23Z"/>
      <path class="cls-14" d="M1501.78,354.17s.03-.02.04-.04c.06-.15,0-.08-.04.04Z"/>
      <path class="cls-14" d="M1496.77,357.71c.02-.12.04-.24.07-.32-.11,0-.2.02-.07.32Z"/>
      <polygon class="cls-14" points="1507.68 350.94 1507.68 350.95 1507.72 350.93 1507.68 350.94"/>
      <path class="cls-14" d="M1497.11,357.29c-.14-.06-.21,0-.26.1.1,0,.21.01.26-.1Z"/>
      <path class="cls-14" d="M1478.34,364.52h-.07s.02.07.03.09l.04-.09Z"/>
      <path class="cls-14" d="M1478.3,364.61l-.04.09s.05-.03.04-.09Z"/>
      <path class="cls-14" d="M1478.19,364.88l.08-.19s-.11.03-.08.19Z"/>
      <path class="cls-14" d="M1479.98,364.1l-.06-.2s.03.11.06.2Z"/>
      <path class="cls-14" d="M1480.43,363.85c-.13,0-.45-.28-.56-.1l.05.16c-.04-.31.54.3.51-.06Z"/>
      <path class="cls-14" d="M1483.37,365.34l-.46.02c.15.17.36.4.2.53.75.39-.29-.4.26-.54Z"/>
      <path class="cls-14" d="M1484.71,365.12c-.17.18.13.29.16.41.06-.24.07-.3-.16-.41Z"/>
      <path class="cls-14" d="M1493.52,361.4l.18.48c.13-.14-.08-.18-.18-.48Z"/>
      <polygon class="cls-14" points="1494.18 358.25 1493.89 358.02 1494 358.49 1494.18 358.25"/>
      <polygon class="cls-14" points="1496.59 361.18 1496.55 361.28 1496.75 361 1496.59 361.18"/>
      <path class="cls-14" d="M1511.32,354.76l-.29-.56c-.07.15.19.81.29.56Z"/>
      <path class="cls-14" d="M1519.36,350.66c.63.08,1.28.02.9-.15-.3.08-.93.08-.9.15Z"/>
      <polygon class="cls-14" points="1504.36 339.73 1504.57 339.59 1504.26 339.65 1504.36 339.73"/>
    </g>
  </g>
</svg>