<?xml version="1.0" encoding="UTF-8"?>
<svg id="okinawa" xmlns="http://www.w3.org/2000/svg" xmlns:xlink="http://www.w3.org/1999/xlink" viewBox="0 0 1920 1082">
  <defs>
    <style>
      .cls-1 {
        fill: #81b29a;
        stroke: #81b29a;
        stroke-miterlimit: 10;
      }

      .cls-2 {
        stroke-dasharray: 0 0 1.97 1.97;
      }

      .cls-2, .cls-3, .cls-4, .cls-5, .cls-6 {
        fill: none;
        stroke: gray;
        stroke-linejoin: round;
        stroke-width: .5px;
      }

      .cls-3 {
        stroke-dasharray: 0 0 2 2;
      }

      .cls-5 {
        stroke-dasharray: 0 0 2.01 2.01;
      }

      .cls-6 {
        stroke-dasharray: 0 0 2 2;
      }
    </style>
  </defs>
  <g id="g50">
    <a xlink:href="http://ja.wikipedia.org/wiki/那覇市">
      <g id="a52">
        <g id="use54">
          <path id="_47201" data-name="47201" class="cls-1" d="M1157.88,629.34l-.81-3.24,1.62-4.85-13.75.81-6.47-3.24h-.81l-.81-.81h-1.62l-.81-.81h-2.43l1.62,2.43-1.62,4.05,4.05-4.05,1.62,7.28-8.09,2.43,4.85,4.85-8.9-4.85-5.66,8.09,3.24,8.9,9.71-1.62,4.85-3.24v-4.05l4.85,1.62,4.85,1.62,10.52-11.33Z"/>
        </g>
      </g>
    </a>
    <a xlink:href="http://ja.wikipedia.org/wiki/宜野湾市">
      <g id="a56">
        <g id="use58">
          <path id="_47205" data-name="47205" class="cls-1" d="M1173.25,605.88l4.05-5.66-3.24-4.05-8.09.81-7.28,4.05.81,1.62-4.05-.81-1.62,4.05,1.62,2.43.81,5.66,4.05-1.62,4.05,2.43,6.47-.81,2.43-8.09Z"/>
        </g>
      </g>
    </a>
    <a xlink:href="http://ja.wikipedia.org/wiki/浦添市">
      <g id="a60">
        <g id="use62">
          <path id="_47208" data-name="47208" class="cls-1" d="M1164.35,614.78l-4.05-2.43-4.05,1.62-.81-5.66-1.62-2.43h-7.28l-5.66,8.09-3.24-.81v2.43l.81,3.24,6.47,3.24,13.75-.81,5.66-6.47ZM1134.42,617.2l1.62-1.62-4.05,1.62h2.43Z"/>
        </g>
      </g>
    </a>
    <a xlink:href="http://ja.wikipedia.org/wiki/名護市">
      <g id="a64">
        <g id="use66">
          <path id="_47209" data-name="47209" class="cls-1" d="M1265.49,433.54l-8.09,1.62-2.43,6.47,4.05,3.24,2.43.81,1.62-3.24,7.28,4.85v-4.85l-4.85-8.9ZM1303.51,486.94h6.47v-5.66l4.85-.81-4.85-6.47-4.05-4.05-4.05.81-8.09-7.28.81-3.24-4.85-5.66-1.62-6.47-10.52,4.05h-7.28l-3.24,3.24-7.28-1.62-1.62-4.05-4.85-2.43-4.05,4.05-1.62-1.62-1.62,2.43-2.43-1.62h-1.62l-4.85,4.05-9.71-1.62-8.09,8.09.81,3.24-.81.81,5.66,1.62,4.05-3.24,15.37,8.09h5.66l1.62,5.66-3.24,7.28-4.85,8.09-4.05-2.43-4.05,4.85-3.24-3.24-1.62,4.85,4.85,8.9,5.66-.81,3.24-4.85h3.24v-3.24l4.85,4.85,4.05,4.05,3.24,1.62,1.62-4.05,5.66,1.62,3.24-2.43,7.28-1.62-5.66-10.52-1.62-3.24,3.24-.81.81,3.24,8.09-2.43,3.24,2.43,8.09,5.66-.81-3.24,3.24.81.81-2.43,6.47-3.24Z"/>
        </g>
      </g>
    </a>
    <a xlink:href="http://ja.wikipedia.org/wiki/糸満市">
      <g id="a68">
        <g id="use70">
          <path id="_47210" data-name="47210" class="cls-1" d="M1156.26,680.31l-4.85-3.24-4.05-9.71,2.43-7.28h-4.85l-2.43-2.43,4.05-5.66-.81-2.43-12.95,7.28-8.09,3.24,1.62,8.09v-4.05l6.47.81-2.43,1.62,1.62,4.05h-2.43l-1.62,15.37,5.66,2.43,3.24,1.62,5.66-4.85,10.52-1.62,3.24-3.24Z"/>
        </g>
      </g>
    </a>
    <a xlink:href="http://ja.wikipedia.org/wiki/沖縄市">
      <g id="a72">
        <g id="use74">
          <path id="_47211" data-name="47211" class="cls-1" d="M1180.53,585.65l4.05-2.43,1.62,8.9,7.28.81v-4.05l4.85-.81,1.62-1.62-4.85-3.24,3.24-3.24-8.09-10.52,5.66-8.9-4.05-5.66-2.43,2.43-3.24-4.85-2.43,3.24-6.47-12.14v-.81l-.81,2.43v12.14l-2.43,8.9,2.43,8.09-3.24,1.62-1.62,1.62,3.24,8.09-.81,1.62h2.43l2.43.81,1.62-2.43ZM1203.19,583.22l-4.85-3.24-2.43,1.62,7.28,1.62Z"/>
        </g>
      </g>
    </a>
    <a xlink:href="http://ja.wikipedia.org/wiki/豊見城市">
      <g id="a76">
        <g id="use78">
          <path id="_47212" data-name="47212" class="cls-1" d="M1148.98,645.52h.81l-2.43-4.85-4.85-1.62-4.85-1.62v4.05l-4.85,3.24-9.71,1.62-1.62.81h4.85l-1.62,1.62,8.09,8.09,12.95-7.28,3.24-4.05Z"/>
        </g>
      </g>
    </a>
    <a xlink:href="http://ja.wikipedia.org/wiki/うるま市">
      <g id="a80">
        <g id="use82">
          <path id="_47213" data-name="47213" class="cls-1" d="M1209.66,557.33l-7.28-4.85-3.24-2.43,2.43-.81-4.85-1.62-4.85-5.66,1.62-3.24,4.05,1.62.81-1.62-.81-1.62-2.43-5.66h-.81l-5.66,1.62-11.33,9.71v.81l6.47,12.14,2.43-3.24,3.24,4.85,2.43-2.43,4.05,5.66-5.66,8.9,8.09,10.52,5.66-4.05h2.43l15.37,18.61,1.62-.81-.81,2.43.81-2.43,4.85,3.24.81-3.24-1.62-6.47-5.66-5.66,4.05-.81h-5.66l-4.85-3.24-5.66-8.09.81-5.66v-1.62h2.43l-3.24-4.85ZM1259.01,553.29v-.81l-3.24-.81-2.43,5.66,4.05,2.43,1.62-6.47ZM1247.69,571.09l7.28-1.62,1.62-4.05-4.05-2.43.81-4.85-5.66,4.05-1.62,5.66,1.62,3.24ZM1246.07,571.09l-.81-4.05-4.05,3.24h-4.05l-.81-2.43,1.62,8.9-4.85,4.05h-7.28l16.99-2.43,5.66-4.85-2.43-2.43ZM1203.19,583.22l.81-3.24,4.85,1.62-3.24-5.66-7.28,4.05,4.85,3.24ZM1239.6,584.84l.81,4.05,2.43,1.62,3.24-6.47-4.85-1.62-1.62,2.43ZM1226.65,585.65l4.85,3.24-2.43-4.05-2.43.81ZM1235.55,618.82l2.43-2.43-.81-6.47-3.24.81-.81,5.66,2.43,2.43Z"/>
        </g>
      </g>
    </a>
    <a xlink:href="http://ja.wikipedia.org/wiki/南城市">
      <g id="a84">
        <g id="use86">
          <path id="_47215" data-name="47215" class="cls-1" d="M1177.3,665.75l16.18-14.56.81-4.05-4.05-1.62v-4.85l-7.28,1.62-5.66,7.28-3.24-.81v-6.47l-.81-.81-4.05,1.62-1.62-4.05-5.66-1.62-2.43.81-4.05,12.14.81,6.47,3.24.81,8.9,10.52,4.85-4.05,3.24,1.62h.81ZM1224.22,648.76l-10.52,6.47.81.81,9.71-7.28Z"/>
        </g>
      </g>
    </a>
    <a xlink:href="http://ja.wikipedia.org/wiki/国頭村">
      <g id="a88">
        <g id="use90">
          <path id="_47301" data-name="47301" class="cls-1" d="M1373.09,411.7l4.85-2.43v-3.24l3.24-2.43-2.43-4.05,1.62-11.33-3.24-3.24.81-8.9-4.85-6.47-.81-4.85-1.62-2.43-4.05,1.62-3.24-3.24-7.28-6.47.81-3.24-3.24-.81-4.05,6.47,3.24,4.05-.81,5.66-7.28,13.75v2.43l-9.71,12.14-8.09,8.9-12.95,3.24,3.24,3.24-1.62,7.28,17.8,11.33,8.09-7.28,7.28,1.62.81,5.66,8.09,9.71,4.05-2.43,2.43-9.71,5.66-6.47-1.62-3.24,4.05-.81.81-4.05Z"/>
        </g>
      </g>
    </a>
    <a xlink:href="http://ja.wikipedia.org/wiki/大宜味村">
      <g id="a92">
        <g id="use94">
          <path id="_47302" data-name="47302" class="cls-1" d="M1333.45,428.69l-17.8-11.33-4.05,4.05-10.52,2.43-5.66,9.71,1.62,3.24,5.66.81,2.43,4.05h-5.66v-3.24l-11.33,9.71,1.62,6.47,4.85,5.66,13.75-13.75,8.9,2.43,16.18-20.23Z"/>
        </g>
      </g>
    </a>
    <a xlink:href="http://ja.wikipedia.org/wiki/東村">
      <g id="a96">
        <g id="use98">
          <path id="_47303" data-name="47303" class="cls-1" d="M1293.8,463.48l8.09,7.28,4.05-.81v-.81l-1.62-3.24,10.52,1.62.81-4.85-3.24-4.85,1.62-3.24,14.56,1.62,12.95-1.62,5.66-.81,3.24-4.05,4.05-7.28,3.24-.81v-3.24l-8.09-9.71-.81-5.66-7.28-1.62-8.09,7.28-16.18,20.23-8.9-2.43-13.75,13.75-.81,3.24Z"/>
        </g>
      </g>
    </a>
    <a xlink:href="http://ja.wikipedia.org/wiki/今帰仁村">
      <g id="a100">
        <g id="use102">
          <path id="_47306" data-name="47306" class="cls-1" d="M1267.91,421.41l-4.05-2.43-3.24,2.43,4.05,5.66,3.24-5.66ZM1242.02,441.63v8.9h1.62l2.43,1.62,1.62-2.43,1.62,1.62,4.05-4.05-2.43-2.43,3.24.81.81-8.9,5.66-5.66-11.33-5.66-3.24,2.43-1.62-1.62,1.62-2.43-6.47-2.43-12.95,2.43-.81,8.09,7.28,5.66h8.09l.81,4.05Z"/>
        </g>
      </g>
    </a>
    <a xlink:href="http://ja.wikipedia.org/wiki/本部町">
      <g id="a104">
        <g id="use106">
          <path id="_47308" data-name="47308" class="cls-1" d="M1242.02,450.53v-8.9l-.81-4.05h-8.09l-7.28-5.66.81-8.09h-9.71l-4.85-3.24-2.43,9.71,2.43,3.24,5.66,8.09-6.47,2.43v5.66l8.09,15.37.81-.81-.81-3.24,8.09-8.09,9.71,1.62,4.85-4.05ZM1204.8,455.39l4.85-8.9-3.24-1.62-4.05,2.43,2.43,8.09ZM1185.39,447.3l4.85.81-1.62-2.43-3.24,1.62Z"/>
        </g>
      </g>
    </a>
    <a xlink:href="http://ja.wikipedia.org/wiki/恩納村">
      <g id="a108">
        <g id="use110">
          <path id="_47311" data-name="47311" class="cls-1" d="M1170.01,533.87l-9.71,8.9,3.24,3.24,4.85-3.24,8.09,2.43.81-2.43,11.33-9.71,5.66-1.62h.81l2.43-5.66,12.14-7.28,7.28.81v-3.24l4.05-3.24,4.05,4.05,2.43-7.28h3.24l4.85-4.05-4.85-8.9-2.43.81-1.62,5.66-4.05-1.62-6.47,3.24-.81,3.24h-3.24l-2.43-3.24-2.43.81-1.62,2.43-1.62-2.43-1.62,3.24-3.24-.81-2.43,3.24,2.43,5.66-12.14,8.09-4.05,6.47-2.43,5.66h-4.85l-4.85-4.85-.81,1.62Z"/>
        </g>
      </g>
    </a>
    <a xlink:href="http://ja.wikipedia.org/wiki/宜野座村">
      <g id="a112">
        <g id="use114">
          <path id="_47313" data-name="47313" class="cls-1" d="M1254.16,519.3l4.85-4.05-3.24-4.85-1.62-2.43,2.43-2.43-4.05-4.05-4.85-4.85v3.24h-3.24l-3.24,4.85-5.66.81-4.85,4.05-.81,1.62,8.09,13.75.81-.81,1.62-3.24,4.85,2.43,8.9-4.05Z"/>
        </g>
      </g>
    </a>
    <a xlink:href="http://ja.wikipedia.org/wiki/金武町">
      <g id="a116">
        <g id="use118">
          <path id="_47314" data-name="47314" class="cls-1" d="M1218.56,530.63l7.28,1.62,3.24,3.24,8.9.81-1.62-4.05,1.62-3.24v-4.05l-8.09-13.75.81-1.62h-3.24l-2.43,7.28-4.05-4.05-4.05,3.24v3.24l-7.28-.81-12.14,7.28-2.43,5.66,2.43,5.66.81-.81,3.24-5.66,6.47-3.24h6.47l4.05,3.24Z"/>
        </g>
      </g>
    </a>
    <a xlink:href="http://ja.wikipedia.org/wiki/伊江村">
      <g id="a120">
        <g id="use122">
          <path id="_47315" data-name="47315" class="cls-1" d="M1181.34,421.41l2.43,1.62,8.9-2.43.81-4.85-7.28-6.47-14.56.81h-7.28l-1.62,5.66,3.24,5.66h15.37Z"/>
        </g>
      </g>
    </a>
    <a xlink:href="http://ja.wikipedia.org/wiki/読谷村">
      <g id="a124">
        <g id="use126">
          <path id="_47324" data-name="47324" class="cls-1" d="M1153.02,555.71l6.47,12.14,11.33-3.24-.81-2.43,6.47-13.75v-3.24l-8.09-2.43-4.85,3.24-3.24-3.24-3.24-.81-3.24-6.47h-5.66l2.43,1.62-1.62,11.33,4.05,7.28Z"/>
        </g>
      </g>
    </a>
    <a xlink:href="http://ja.wikipedia.org/wiki/嘉手納町">
      <g id="a128">
        <g id="use130">
          <path id="_47325" data-name="47325" class="cls-1" d="M1173.25,575.94l3.24-1.62-2.43-8.09,2.43-8.9v-8.9l-6.47,13.75.81,2.43-11.33,3.24-.81,1.62,2.43,7.28,5.66.81,6.47-1.62Z"/>
        </g>
      </g>
    </a>
    <a xlink:href="http://ja.wikipedia.org/wiki/北谷町">
      <g id="a132">
        <g id="use134">
          <path id="_47326" data-name="47326" class="cls-1" d="M1176.49,588.08v-.81h-2.43l.81-1.62-3.24-8.09,1.62-1.62-6.47,1.62-5.66-.81-.81,4.85,2.43,4.05h2.43l.81,11.33,8.09-.81-.81-4.85,3.24-3.24Z"/>
        </g>
      </g>
    </a>
    <a xlink:href="http://ja.wikipedia.org/wiki/北中城村">
      <g id="a136">
        <g id="use138">
          <path id="_47327" data-name="47327" class="cls-1" d="M1193.48,592.93l-7.28-.81-1.62-8.9-4.05,2.43-1.62,2.43-2.43-.81v.81l-3.24,3.24.81,4.85,3.24,4.05,5.66.81,4.85-2.43-1.62-3.24,2.43-3.24,4.85.81Z"/>
        </g>
      </g>
    </a>
    <a xlink:href="http://ja.wikipedia.org/wiki/中城村">
      <g id="a140">
        <g id="use142">
          <path id="_47328" data-name="47328" class="cls-1" d="M1169.21,618.82l8.09,4.85,4.05-14.56,5.66-3.24.81-7.28-4.85,2.43-5.66-.81-4.05,5.66-2.43,8.09-1.62,4.85Z"/>
        </g>
      </g>
    </a>
    <a xlink:href="http://ja.wikipedia.org/wiki/西原町">
      <g id="a144">
        <g id="use146">
          <path id="_47329" data-name="47329" class="cls-1" d="M1160.31,630.96l7.28,1.62,8.9-6.47,3.24,2.43-2.43-4.85-8.09-4.85,1.62-4.85-6.47.81-5.66,6.47-1.62,4.85.81,3.24,2.43,1.62Z"/>
        </g>
      </g>
    </a>
    <a xlink:href="http://ja.wikipedia.org/wiki/与那原町">
      <g id="a148">
        <g id="use150">
          <path id="_47348" data-name="47348" class="cls-1" d="M1167.59,632.58l-7.28-1.62,1.62,4.05v2.43l5.66,1.62,1.62,4.05,4.05-1.62-3.24-4.85-4.85-.81,2.43-3.24Z"/>
        </g>
      </g>
    </a>
    <a xlink:href="http://ja.wikipedia.org/wiki/南風原町">
      <g id="a152">
        <g id="use154">
          <path id="_47350" data-name="47350" class="cls-1" d="M1149.79,645.52l5.66,4.85,4.05-12.14,2.43-.81v-2.43l-1.62-4.05-2.43-1.62-10.52,11.33,2.43,4.85Z"/>
        </g>
      </g>
    </a>
    <a xlink:href="http://ja.wikipedia.org/wiki/渡嘉敷村">
      <g id="a156">
        <g id="use158">
          <path id="_47353" data-name="47353" class="cls-1" d="M1017.1,623.68l1.62,3.24.81-2.43-1.62-3.24-.81,2.43ZM1016.29,643.9l3.24-2.43.81-4.05h-2.43l2.43-1.62-.81-3.24-.81-4.05-4.85-2.43-1.62,1.62-3.24,8.9,1.62,6.47-4.05.81.81,5.66,3.24,1.62-1.62,4.85,1.62,4.05.81-4.05,3.24-.81v-10.52l1.62-.81ZM1047.04,636.62l4.85-8.09-2.43-2.43-4.85,10.52h2.43Z"/>
        </g>
      </g>
    </a>
    <a xlink:href="http://ja.wikipedia.org/wiki/座間味村">
      <g id="a160">
        <g id="use162">
          <path id="_47354" data-name="47354" class="cls-1" d="M1003.35,622.87l.81-3.24-6.47-1.62-1.62-3.24-.81,4.85-2.43,1.62-2.43-2.43-.81,3.24-4.85,1.62,5.66,3.24,2.43-1.62,2.43,4.05,2.43-4.85-1.62-3.24,2.43-1.62,1.62,4.85,4.05.81-.81-2.43ZM968.56,630.15l1.62,3.24,3.24-5.66h-4.05l-.81,2.43ZM995.25,632.58l1.62,5.66,1.62-3.24-3.24-5.66v3.24ZM988.78,639.86l-4.05-8.9-5.66,6.47.81.81,3.24.81v3.24l5.66-2.43ZM985.55,644.71l1.62,2.43,3.24-.81-2.43-4.05-2.43,2.43ZM970.17,652.8l.81-5.66-2.43-2.43-2.43,7.28,4.05.81ZM989.59,652.8l.81-4.85-3.24,3.24,2.43,1.62Z"/>
        </g>
      </g>
    </a>
    <a xlink:href="http://ja.wikipedia.org/wiki/粟国村">
      <g id="a164">
        <g id="use166">
          <path id="_47355" data-name="47355" class="cls-1" d="M970.17,477.23l1.62-6.47-3.24-4.05-5.66,2.43-5.66,8.09h12.95Z"/>
        </g>
      </g>
    </a>
    <a xlink:href="http://ja.wikipedia.org/wiki/渡名喜村">
      <g id="a168">
        <g id="use170">
          <path id="_47356" data-name="47356" class="cls-1" d="M933.76,571.89v2.43l3.24-3.24,2.43-3.24h-4.05l-1.62-8.09-2.43,2.43-.81,4.85,3.24,4.85Z"/>
        </g>
      </g>
    </a>
    <a xlink:href="http://ja.wikipedia.org/wiki/伊平屋村">
      <g id="a172">
        <g id="use174">
          <path id="_47359" data-name="47359" class="cls-1" d="M1231.5,299.24l1.62.81,3.24-10.52,6.47-.81,1.62-6.47,8.9-3.24,4.05-12.95,8.09-7.28-8.09,1.62-11.33,8.9-7.28,9.71-7.28,9.71,1.62,8.09-1.62,2.43ZM1224.22,300.05l3.24,2.43,4.05-4.05-4.05-1.62-3.24,3.24Z"/>
        </g>
      </g>
    </a>
    <a xlink:href="http://ja.wikipedia.org/wiki/伊是名村">
      <g id="a176">
        <g id="use178">
          <path id="_47360" data-name="47360" class="cls-1" d="M1237.98,328.36l2.43-7.28-6.47-4.85-8.09,4.85-2.43,3.24,4.05.81-.81,6.47,7.28,4.05,4.85-.81-.81-6.47ZM1226.65,339.69l.81,3.24h4.85l-3.24-1.62,1.62-1.62h-4.05Z"/>
        </g>
      </g>
    </a>
    <a xlink:href="http://ja.wikipedia.org/wiki/久米島町">
      <g id="a180">
        <g id="use182">
          <path id="_47361" data-name="47361" class="cls-1" d="M789.75,580.79l6.47,11.33,8.9,4.85.81.81-1.62-9.71.81-6.47,7.28-7.28-4.85-3.24-1.62-5.66-6.47-4.05-4.05-5.66-4.05-.81-7.28,3.24-9.71,4.05-4.85.81-1.62,4.05,3.24-4.05-4.05,6.47,3.24,3.24,2.43,1.62-4.05-3.24.81-3.24,5.66,6.47,12.14,1.62-1.62,1.62,4.05,3.24ZM829.39,575.13h6.47l4.05-2.43-10.52,2.43ZM816.45,577.56l2.43.81-.81-2.43-1.62,1.62ZM809.98,578.37h5.66l-2.43-2.43-3.24,2.43Z"/>
        </g>
      </g>
    </a>
    <a xlink:href="http://ja.wikipedia.org/wiki/八重瀬町">
      <g id="a184">
        <g id="use186">
          <path id="_47362" data-name="47362" class="cls-1" d="M1168.4,668.17l-8.9-10.52-3.24-.81-.81-6.47-5.66-4.85h-.81l-3.24,4.05.81,2.43-4.05,5.66,2.43,2.43h4.85l-2.43,7.28,4.05,9.71,4.85,3.24,4.05-5.66,8.09-6.47Z"/>
        </g>
      </g>
    </a>
  </g>
  <g id="g219">
    <a xlink:href="http://ja.wikipedia.org/wiki/宮古島市">
      <g id="a221">
        <g id="use223">
          <path id="_47214" data-name="47214" class="cls-1" d="M904.65,720.91l-.81-2.43,4.05.81-3.24-4.85-1.62-1.62-4.85,1.62.81,3.24,5.66,3.24ZM926.49,722.53l2.43.81-1.62-2.43-.81,1.62ZM980.7,803.44l1.62-.81,1.62-1.62,5.66,4.85-8.9-10.52-4.85-7.28-7.28-.81-8.09-4.05-4.05-5.66-4.85-2.43-5.66,1.62-7.28-4.05-2.43-5.66,1.62-4.85-8.09-5.66-3.24-8.9-2.43-8.9-5.66-1.62-4.85-10.52-2.43-4.05,2.43,4.85-3.24.81-3.24-3.24,3.24,4.05,4.05,8.09,2.43,4.85,5.66,8.9.81,5.66-4.05-3.24-2.43,1.62v13.75l-5.66,3.24-2.43-.81-.81,5.66,8.09,6.47,1.62,7.28v2.43h-6.47l-1.62-8.09-3.24,5.66,3.24,8.9,8.09,4.05,4.85,3.24.81-6.47v6.47l4.85,2.43,6.47-3.24,8.9-.81,6.47-2.43,4.05.81,16.18-.81,10.52.81ZM874.71,763.8l2.43,3.24,8.09,2.43,8.09-1.62v-8.09l-3.24-8.09-8.09-3.24-10.52-3.24-2.43,2.43,1.62,7.28-1.62,1.62h.81l4.85,7.28ZM873.09,771.08l4.05-4.05-3.24-3.24-4.85-6.47,1.62,3.24-4.05-2.43-4.05-4.05-1.62,7.28,4.05,7.28,6.47,2.43,1.62-.81v.81ZM907.07,808.29l.81-4.05-4.05-3.24h-2.43l-.81,4.05,3.24,3.24h3.24Z"/>
        </g>
      </g>
    </a>
  </g>
  <g id="g250">
    <a xlink:href="http://ja.wikipedia.org/wiki/石垣市">
      <g id="a252">
        <g id="use254">
          <path id="_47207a" data-name="47207a" class="cls-1" d="M705.57,824.05l-10.52-2.43-2.43,2.43-2.43,3.24-2.43-2.43,3.24-1.62v-3.24l-1.62-6.47-8.09-3.24-1.62,1.62,4.85,3.24-2.43,2.43v8.09h-4.85l-2.43-3.24h-8.09l-4.05,8.9,6.47,6.47,3.24-4.85,5.66-2.43h5.66l4.05,7.28,4.05,1.62.81,7.28-.81,3.24-.81-2.43-11.33,10.52,4.85,4.85,8.09,2.43,1.62,3.24-1.62,2.43,8.09,3.24,9.71-1.62,4.05-4.85-1.62-3.24,4.05-.81,8.9,4.85,4.85-2.43,2.43-4.05,3.24-22.65-3.24-8.09,2.43-4.85-2.43-5.66,2.43-7.28,9.71-5.66v-8.09l4.05-3.24,5.66-5.66-.81-3.24v-4.85l6.47-5.66,4.85-4.85,1.62-8.09v-6.47l-8.09-2.43-2.43,4.85-4.05,8.9-6.47,7.28,3.24,8.9-2.43,1.62-3.24,12.14-.81,1.62-6.47-6.47-1.62,1.62-5.66,7.28h-4.85l1.62,4.05-3.24,6.47v7.28l-6.47-.81-6.47.81-4.05,3.24ZM692.63,820.01l1.62,2.43.81-.81-1.62-3.24-.81,1.62Z"/>
        </g>
      </g>
    </a>
    <a xlink:href="http://ja.wikipedia.org/wiki/竹富町">
      <g id="a256">
        <g id="use258">
          <path id="_47381a" data-name="47381a" class="cls-1" d="M564.79,813.54l4.05,2.43-.81-3.24-3.24.81ZM540.52,894.44l9.71,3.24h4.05l7.28,2.43,10.52-.81,5.66,2.43,5.66,4.05h6.47l1.62-5.66-1.62-4.05h2.43l5.66,2.43v-12.95l4.05-8.9,6.47,4.05v-11.33l4.05-6.47.81-3.24-7.28-.81-5.66-7.28h-7.28l-2.43-6.47-4.85-2.43-2.43,4.05-3.24-3.24h-3.24l-4.85-1.62-6.47,7.28-3.24-4.85,3.24.81-2.43-.81.81-4.05-4.85-2.43-6.47-8.9-6.47.81v3.24l3.24,1.62-.81,2.43-4.05,1.62-4.05,4.85.81,4.85-4.05-.81,4.05,8.09-4.05,2.43,4.05,4.05-2.43,8.09,1.62,11.33-3.24-3.24-1.62,2.43-.81-6.47-3.24.81v-5.66l-3.24,1.62-1.62,4.05-4.05-8.09-2.43.81,4.85,12.14-3.24,1.62v-1.62l-.81-4.05-5.66-2.43-1.62,4.05,2.43,5.66-7.28-1.62-3.24,1.62,5.66,8.9,1.62,2.43,8.09.81,6.47.81,1.62-8.09,4.05.81,7.28,5.66ZM529.19,855.61l2.43-.81-1.62-1.62-4.85,2.43,2.43,4.05,1.62-4.05ZM530,860.46l1.62,3.24,4.85,4.05.81-3.24-4.05-4.85-3.24.81ZM632.76,868.55l-7.28-4.85-3.24,2.43,2.43,4.05-7.28,3.24,12.95.81,3.24,3.24,4.05-2.43-4.85-6.47ZM665.93,876.64l3.24,5.66,6.47-4.05-5.66-8.09-4.05,6.47ZM642.46,920.33l4.85-4.05.81-4.05-2.43-4.05-3.24,1.62-5.66-3.24-4.05,3.24,2.43,5.66,4.85,5.66,2.43-.81ZM617.38,915.48l1.62-2.43-2.43-1.62-4.85,7.28,5.66-3.24ZM606.06,921.95l2.43,3.24,3.24-.81-.81-4.05-4.85,1.62Z"/>
        </g>
      </g>
    </a>
  </g>
  <g>
    <polyline class="cls-4" points="800.39 946.46 800.39 947.46 799.39 947.46"/>
    <line class="cls-5" x1="797.39" y1="947.46" x2="493.33" y2="947.46"/>
    <polyline class="cls-4" points="492.33 947.46 491.33 947.46 491.33 946.46"/>
    <line class="cls-3" x1="491.33" y1="944.46" x2="491.33" y2="741.31"/>
    <polyline class="cls-4" points="491.33 740.31 491.33 739.31 492.33 739.31"/>
    <line class="cls-5" x1="494.33" y1="739.31" x2="798.39" y2="739.31"/>
    <polyline class="cls-4" points="799.39 739.31 800.39 739.31 800.39 740.31"/>
    <line class="cls-3" x1="800.39" y1="742.32" x2="800.39" y2="945.46"/>
  </g>
  <g>
    <polyline class="cls-4" points="1026.43 835.88 1026.41 836.88 1025.41 836.86"/>
    <line class="cls-6" x1="1023.41" y1="836.83" x2="844.13" y2="833.63"/>
    <polyline class="cls-4" points="843.13 833.62 842.13 833.6 842.15 832.6"/>
    <line class="cls-2" x1="842.18" y1="830.63" x2="844.46" y2="697.58"/>
    <polyline class="cls-4" points="844.48 696.59 844.49 695.59 845.49 695.61"/>
    <line class="cls-6" x1="847.5" y1="695.65" x2="1026.77" y2="698.84"/>
    <polyline class="cls-4" points="1027.77 698.86 1028.77 698.88 1028.76 699.88"/>
    <line class="cls-2" x1="1028.72" y1="701.85" x2="1026.45" y2="834.9"/>
  </g>
</svg>